<svg width="1512" height="471" viewBox="0 0 1512 471" fill="none" xmlns="http://www.w3.org/2000/svg">
<rect width="1512" height="471" fill="url(#paint0_linear_6089_9977)"/>

<rect x="168" y="376" width="179.2" height="50" rx="14" fill="#FF5E00" fill-opacity="0.03"/>
<rect x="168.5" y="376.5" width="178.2" height="49" rx="13.5" stroke="#FF5E00" stroke-opacity="0.05"/>


<g clip-path="url(#clip0_6089_9977)">
<path opacity="0.25" d="M1052.84 140.631L1003.18 166.484C987.5 175.102 977.047 189.987 977.047 207.223V258.146C977.047 274.597 986.629 290.266 1003.18 298.884L1052.84 323.954C1068.52 332.571 1088.55 332.571 1105.11 323.954L1154.76 298.101C1170.44 289.482 1180.9 274.597 1180.9 257.362V206.439C1180.9 189.987 1171.31 174.318 1154.76 165.701L1105.11 139.848C1089.43 132.796 1069.39 132.796 1052.84 140.631Z" fill="url(#paint1_linear_6089_9977)"/>
<path opacity="0.25" d="M1180.49 352.206L1151.68 307.647C1142.08 293.576 1125.49 284.195 1106.29 284.195H1049.54C1031.2 284.195 1013.74 292.794 1004.14 307.647L976.202 352.206C966.599 366.278 966.599 384.257 976.202 399.111L1005.01 443.669C1014.62 457.741 1031.2 467.122 1050.41 467.122H1107.16C1125.49 467.122 1142.95 458.523 1152.56 443.669L1181.37 399.111C1189.22 385.039 1189.22 367.059 1180.49 352.206Z" fill="url(#paint2_linear_6089_9977)"/>
<path opacity="0.25" d="M1505.23 351.968L1476.42 307.409C1466.81 293.338 1450.23 283.957 1431.02 283.957H1374.27C1355.94 283.957 1338.48 292.556 1328.87 307.409L1300.94 351.968C1291.33 366.039 1291.33 384.019 1300.94 398.872L1329.75 443.431C1339.35 457.502 1355.94 466.883 1375.15 466.883H1431.89C1450.23 466.883 1467.69 458.284 1477.29 443.431L1506.1 398.872C1513.96 384.801 1513.96 366.821 1505.23 351.968Z" fill="url(#paint3_linear_6089_9977)"/>
<path opacity="0.25" d="M1498.95 71.0109L1470.14 26.4522C1460.54 12.3809 1443.95 3 1424.75 3H1368C1349.67 3 1332.2 11.599 1322.6 26.4522L1294.66 71.0109C1285.06 85.0822 1285.06 103.062 1294.66 117.915L1323.47 162.474C1333.08 176.545 1349.67 185.926 1368.87 185.926H1425.62C1443.95 185.926 1461.41 177.327 1471.02 162.474L1499.83 117.915C1507.69 103.844 1507.69 85.8641 1498.95 71.0109Z" fill="url(#paint4_linear_6089_9977)"/>
<path opacity="0.25" d="M1181.39 71.0109L1152.58 26.4522C1142.98 12.3809 1126.39 3 1107.18 3H1050.44C1032.1 3 1014.64 11.599 1005.04 26.4522L977.101 71.0109C967.497 85.0822 967.497 103.062 977.101 117.915L1005.91 162.474C1015.51 176.545 1032.1 185.926 1051.31 185.926H1108.06C1126.39 185.926 1143.85 177.327 1153.45 162.474L1182.27 117.915C1190.12 103.844 1190.12 85.8641 1181.39 71.0109Z" fill="url(#paint5_linear_6089_9977)"/>
<path opacity="0.25" d="M1342.1 208.698L1313.29 164.139C1303.68 150.068 1287.09 140.688 1267.89 140.688H1211.14C1192.81 140.688 1175.35 149.287 1165.74 164.139L1137.8 208.698C1128.2 222.77 1128.2 240.75 1137.8 255.603L1166.61 300.162C1176.22 314.233 1192.81 323.614 1212.01 323.614H1268.76C1287.09 323.614 1304.56 315.015 1314.16 300.162L1342.97 255.603C1350.83 241.531 1350.83 223.552 1342.1 208.698Z" fill="url(#paint6_linear_6089_9977)"/>
<path opacity="0.25" d="M1370.41 140.631L1320.75 166.484C1305.07 175.102 1294.62 189.987 1294.62 207.223V258.146C1294.62 274.597 1304.2 290.266 1320.75 298.884L1370.41 323.954C1386.09 332.571 1406.12 332.571 1422.68 323.954L1472.33 298.101C1488.01 289.482 1498.47 274.597 1498.47 257.362V206.439C1498.47 189.987 1488.88 174.318 1472.33 165.701L1422.68 139.848C1407 132.796 1386.96 132.796 1370.41 140.631Z" fill="url(#paint7_linear_6089_9977)"/>
<path opacity="0.25" d="M1213.55 280.543L1163.89 306.397C1148.21 315.014 1137.76 329.899 1137.76 347.135V398.058C1137.76 414.509 1147.34 430.178 1163.89 438.796L1213.55 463.866C1229.23 472.483 1249.27 472.483 1265.82 463.866L1315.47 438.013C1331.15 429.395 1341.61 414.509 1341.61 397.274V346.351C1341.61 329.899 1332.02 314.23 1315.47 305.613L1265.82 279.76C1250.14 272.709 1230.1 272.709 1213.55 280.543Z" fill="url(#paint8_linear_6089_9977)"/>
<path opacity="0.25" d="M1342.1 71.0109L1313.28 26.4522C1303.68 12.3809 1287.09 3 1267.89 3H1211.14C1192.81 3 1175.34 11.599 1165.74 26.4522L1137.8 71.0109C1128.2 85.0822 1128.2 103.062 1137.8 117.915L1166.61 162.474C1176.22 176.545 1192.81 185.926 1212.01 185.926H1268.76C1287.09 185.926 1304.55 177.327 1314.16 162.474L1342.97 117.915C1350.83 103.844 1350.83 85.8641 1342.1 71.0109Z" fill="url(#paint9_linear_6089_9977)"/>
</g>
<defs>
<linearGradient id="paint0_linear_6089_9977" x1="50" y1="235.5" x2="1959" y2="235.5" gradientUnits="userSpaceOnUse">
<stop offset="0.62"/>
<stop offset="1" stop-color="#5750CC"/>
</linearGradient>
<linearGradient id="paint1_linear_6089_9977" x1="1284.36" y1="134.654" x2="1030.67" y2="295.897" gradientUnits="userSpaceOnUse">
<stop stop-color="#73E2CE"/>
<stop offset="0.383" stop-color="#6C63FF"/>
<stop offset="1"/>
</linearGradient>
<linearGradient id="paint2_linear_6089_9977" x1="1187.15" y1="559.964" x2="1057.53" y2="306.691" gradientUnits="userSpaceOnUse">
<stop stop-color="#73E2CE"/>
<stop offset="0.383" stop-color="#6C63FF"/>
<stop offset="1"/>
</linearGradient>
<linearGradient id="paint3_linear_6089_9977" x1="1511.89" y1="559.725" x2="1382.26" y2="306.452" gradientUnits="userSpaceOnUse">
<stop stop-color="#73E2CE"/>
<stop offset="0.383" stop-color="#6C63FF"/>
<stop offset="1"/>
</linearGradient>
<linearGradient id="paint4_linear_6089_9977" x1="1505.62" y1="278.768" x2="1375.99" y2="25.4955" gradientUnits="userSpaceOnUse">
<stop stop-color="#73E2CE"/>
<stop offset="0.383" stop-color="#6C63FF"/>
<stop offset="1"/>
</linearGradient>
<linearGradient id="paint5_linear_6089_9977" x1="1188.05" y1="278.768" x2="1058.43" y2="25.4955" gradientUnits="userSpaceOnUse">
<stop stop-color="#73E2CE"/>
<stop offset="0.383" stop-color="#6C63FF"/>
<stop offset="1"/>
</linearGradient>
<linearGradient id="paint6_linear_6089_9977" x1="1348.76" y1="416.455" x2="1219.13" y2="163.183" gradientUnits="userSpaceOnUse">
<stop stop-color="#73E2CE"/>
<stop offset="0.383" stop-color="#6C63FF"/>
<stop offset="1"/>
</linearGradient>
<linearGradient id="paint7_linear_6089_9977" x1="1601.93" y1="134.654" x2="1348.24" y2="295.897" gradientUnits="userSpaceOnUse">
<stop stop-color="#73E2CE"/>
<stop offset="0.383" stop-color="#6C63FF"/>
<stop offset="1"/>
</linearGradient>
<linearGradient id="paint8_linear_6089_9977" x1="1445.07" y1="274.566" x2="1191.38" y2="435.81" gradientUnits="userSpaceOnUse">
<stop stop-color="#73E2CE"/>
<stop offset="0.383" stop-color="#6C63FF"/>
<stop offset="1"/>
</linearGradient>
<linearGradient id="paint9_linear_6089_9977" x1="1348.76" y1="278.768" x2="1219.13" y2="25.4955" gradientUnits="userSpaceOnUse">
<stop stop-color="#73E2CE"/>
<stop offset="0.383" stop-color="#6C63FF"/>
<stop offset="1"/>
</linearGradient>
<clipPath id="clip0_6089_9977">
<rect width="543" height="468" fill="white" transform="translate(969 3)"/>
</clipPath>
</defs>
</svg>
