<svg width="487" height="462" viewBox="0 0 487 462" fill="none" xmlns="http://www.w3.org/2000/svg">
<rect width="487" height="462" rx="10" fill="black" fill-opacity="0.65"/>
<path d="M233.695 247.4C233.695 248.548 234.962 249.243 235.931 248.626L249.123 240.227C250.021 239.655 250.021 238.345 249.123 237.773L235.931 229.374C234.962 228.757 233.695 229.453 233.695 230.6V247.4ZM240 265C236.447 265 233.088 264.318 229.925 262.952C226.762 261.587 223.999 259.724 221.637 257.362C219.276 255.001 217.412 252.238 216.048 249.075C214.683 245.912 214 242.553 214 239C214 235.403 214.683 232.023 216.048 228.86C217.412 225.697 219.276 222.945 221.637 220.605C223.999 218.265 226.762 216.413 229.925 215.048C233.088 213.683 236.447 213 240 213C243.597 213 246.977 213.683 250.14 215.048C253.303 216.413 256.055 218.265 258.395 220.605C260.735 222.945 262.587 225.697 263.952 228.86C265.317 232.023 266 235.403 266 239C266 242.553 265.317 245.912 263.952 249.075C262.587 252.238 260.735 255.001 258.395 257.362C256.055 259.724 253.303 261.587 250.14 262.952C246.977 264.318 243.597 265 240 265Z" fill="white"/>
</svg>
