
<svg width="18" height="19" viewBox="0 0 18 19" fill="none" xmlns="http://www.w3.org/2000/svg">
<rect width="18" height="19" fill="#1F1F1F"/>
<g clip-path="url(#clip0_0_1)">
<rect width="1440" height="884" transform="translate(-1213 -652)" fill="white"/>
<g filter="url(#filter0_d_0_1)">
<path d="M-445 -8C-445 -12.4183 -441.418 -16 -437 -16H27C31.4183 -16 35 -12.4183 35 -8V24C35 28.4183 31.4183 32 27 32H-437C-441.418 32 -445 28.4183 -445 24V-8Z" fill="white" shape-rendering="crispEdges"/>
<path d="M-444.5 -8C-444.5 -12.1421 -441.142 -15.5 -437 -15.5H27C31.1421 -15.5 34.5 -12.1421 34.5 -8V24C34.5 28.1421 31.1421 31.5 27 31.5H-437C-441.142 31.5 -444.5 28.1421 -444.5 24V-8Z" stroke="#D0D5DD" shape-rendering="crispEdges"/>
</g>
<path d="M16.1614 17.328L16.1614 17.328C16.8067 16.6826 17.0887 15.8673 17.2215 14.8791C17.3502 13.9226 17.3501 12.7033 17.35 11.1766V11.172V11.125V9.45834V9.41133V9.40669C17.3501 7.88007 17.3502 6.6607 17.2215 5.70414C17.0887 4.71608 16.8067 3.90066 16.1614 3.25533L16.1614 3.25532C15.516 2.60999 14.7006 2.32801 13.7125 2.19517L13.6992 2.29428L13.7125 2.19517C13.5441 2.17253 13.3678 2.1539 13.1834 2.13856V1.125C13.1834 0.724596 12.8588 0.4 12.4584 0.4C12.058 0.4 11.7334 0.724596 11.7334 1.125V2.07545C11.2079 2.06665 10.6328 2.06666 10.0054 2.06667H9.9584H6.51671V1.125C6.51671 0.724594 6.19212 0.4 5.79171 0.4C5.3913 0.4 5.06671 0.724594 5.06671 1.125V2.07711C4.51098 2.09502 4.06718 2.14349 3.66867 2.27705C2.46197 2.6815 1.51487 3.62859 1.11042 4.8353C0.899547 5.46446 0.899733 6.21317 0.900016 7.34757L0.90002 7.36667V7.36668L0.90004 7.49755V7.49756V11.125V11.172L0.90004 11.1794C0.90003 12.7048 0.900022 13.9232 1.02854 14.8791C1.16139 15.8673 1.44337 16.6826 2.0887 17.328L2.15941 17.2573L2.0887 17.328C2.73403 17.9733 3.54946 18.2553 4.53754 18.3881C5.4935 18.5167 6.71195 18.5167 8.2373 18.5167H8.24461H8.29171H9.9584H10.0054H10.0127C11.538 18.5167 12.7566 18.5167 13.7125 18.3881C14.7006 18.2553 15.516 17.9733 16.1614 17.328ZM13.1834 3.5941C13.3002 3.60517 13.412 3.61782 13.5194 3.63224C14.3466 3.74347 14.805 3.94961 15.1361 4.28063C15.4671 4.61165 15.6733 5.0701 15.7845 5.89736C15.8985 6.74553 15.9 7.86645 15.9 9.45834V11.125C15.9 12.7169 15.8985 13.8378 15.7845 14.686C15.6733 15.5133 15.4671 15.9717 15.1361 16.3027C14.805 16.6338 14.3466 16.8399 13.5194 16.9511C12.6712 17.0651 11.5503 17.0667 9.9584 17.0667H8.29171C6.69983 17.0667 5.5789 17.0651 4.73074 16.9511C3.90347 16.8399 3.44503 16.6337 3.114 16.3027C2.78298 15.9717 2.57684 15.5133 2.46562 14.686C2.35158 13.8378 2.35004 12.7169 2.35004 11.125V7.49755C2.35004 6.8329 2.35211 6.37617 2.37051 6.0364C2.38887 5.6972 2.42327 5.48104 2.48526 5.2961C2.7452 4.52053 3.3539 3.91183 4.12947 3.65188C4.34854 3.57845 4.61031 3.54401 5.06671 3.52865V3.625C5.06671 4.0254 5.3913 4.35 5.79171 4.35C6.19212 4.35 6.51671 4.0254 6.51671 3.625V3.51667H9.9584C10.6278 3.51667 11.2144 3.51691 11.7334 3.52576V3.625C11.7334 4.0254 12.058 4.35 12.4584 4.35C12.8588 4.35 13.1834 4.0254 13.1834 3.625V3.5941ZM4.95838 6.23334C4.55798 6.23334 4.23338 6.55793 4.23338 6.95834C4.23338 7.35875 4.55798 7.68334 4.95838 7.68334H13.2917C13.6921 7.68334 14.0167 7.35874 14.0167 6.95834C14.0167 6.55793 13.6921 6.23334 13.2917 6.23334H4.95838ZM5.79172 11.225C6.30719 11.225 6.72505 10.8071 6.72505 10.2917C6.72505 9.7762 6.30719 9.35834 5.79172 9.35834C5.27625 9.35834 4.85838 9.7762 4.85838 10.2917C4.85838 10.8071 5.27625 11.225 5.79172 11.225ZM5.79172 14.5583C6.30719 14.5583 6.72505 14.1404 6.72505 13.625C6.72505 13.1095 6.30718 12.6917 5.79172 12.6917C5.27626 12.6917 4.85838 13.1095 4.85838 13.625C4.85838 14.1404 5.27625 14.5583 5.79172 14.5583ZM9.1251 14.5583C9.64053 14.5583 10.0584 14.1404 10.0584 13.625C10.0584 13.1095 9.64052 12.6917 9.1251 12.6917C8.60959 12.6917 8.19172 13.1095 8.19172 13.625C8.19172 14.1404 8.60959 14.5583 9.1251 14.5583ZM12.4584 14.5583C12.9738 14.5583 13.3917 14.1404 13.3917 13.625C13.3917 13.1095 12.9738 12.6917 12.4584 12.6917C11.9429 12.6917 11.5251 13.1095 11.5251 13.625C11.5251 14.1404 11.9429 14.5583 12.4584 14.5583ZM9.1251 11.225C9.64053 11.225 10.0584 10.8071 10.0584 10.2917C10.0584 9.7762 9.64053 9.35834 9.1251 9.35834C8.60958 9.35834 8.19172 9.7762 8.19172 10.2917C8.19172 10.8071 8.60959 11.225 9.1251 11.225ZM12.4584 11.225C12.9738 11.225 13.3917 10.8071 13.3917 10.2917C13.3917 9.7762 12.9738 9.35834 12.4584 9.35834C11.9429 9.35834 11.5251 9.77621 11.5251 10.2917C11.5251 10.8071 11.9429 11.225 12.4584 11.225Z" fill="#667085" stroke="#425466" stroke-width="0.2"/>
</g>
<defs>
<filter id="filter0_d_0_1" x="-447" y="-17" width="484" height="52" filterUnits="userSpaceOnUse" color-interpolation-filters="sRGB">
<feFlood flood-opacity="0" result="BackgroundImageFix"/>
<feColorMatrix in="SourceAlpha" type="matrix" values="0 0 0 0 0 0 0 0 0 0 0 0 0 0 0 0 0 0 127 0" result="hardAlpha"/>
<feOffset dy="1"/>
<feGaussianBlur stdDeviation="1"/>
<feComposite in2="hardAlpha" operator="out"/>
<feColorMatrix type="matrix" values="0 0 0 0 0.0627451 0 0 0 0 0.0941176 0 0 0 0 0.156863 0 0 0 0.05 0"/>
<feBlend mode="normal" in2="BackgroundImageFix" result="effect1_dropShadow_0_1"/>
<feBlend mode="normal" in="SourceGraphic" in2="effect1_dropShadow_0_1" result="shape"/>
</filter>
<clipPath id="clip0_0_1">
<rect width="1440" height="884" fill="white" transform="translate(-1213 -652)"/>
</clipPath>
</defs>
</svg>
