<svg width="1512" height="1098" viewBox="0 0 1512 1098" fill="none" xmlns="http://www.w3.org/2000/svg">
<g clip-path="url(#clip0_5774_14458)">
<g opacity="0.5">
<path d="M47.5568 305.075H756.499M-117.141 31.9141H756.499M-116.391 168.121H756.499" stroke="#3C4556" stroke-opacity="0.15" stroke-width="0.626" stroke-linecap="square"/>
<path d="M47.5547 -80.9053V330.708M374.701 31.3534V330.708M538.274 31.3534V330.708M701.848 31.3534V330.708M211.128 -80.9053V330.708" stroke="#3C4556" stroke-opacity="0.15" stroke-width="0.626" stroke-linecap="square"/>
<path fill-rule="evenodd" clip-rule="evenodd" d="M47.6509 171.38C49.7197 171.38 51.3956 169.682 51.3956 167.586C51.3956 165.491 49.7197 163.792 47.6509 163.792C45.5832 163.792 43.9062 165.491 43.9062 167.586C43.9062 169.682 45.5832 171.38 47.6509 171.38ZM47.6509 309.213C49.7197 309.213 51.3956 307.514 51.3956 305.418C51.3956 303.323 49.7197 301.625 47.6509 301.625C45.5832 301.625 43.9062 303.323 43.9062 305.418C43.9062 307.514 45.5832 309.213 47.6509 309.213ZM47.6509 36.0765C49.7197 36.0765 51.3956 34.3775 51.3956 32.2834C51.3956 30.1872 49.7197 28.4893 47.6509 28.4893C45.5832 28.4893 43.9062 30.1872 43.9062 32.2823C43.9062 34.3775 45.5832 36.0765 47.6509 36.0765ZM211.167 36.0765C213.235 36.0765 214.912 34.3775 214.912 32.2834C214.912 30.1872 213.235 28.4893 211.167 28.4893C209.099 28.4893 207.423 30.1872 207.423 32.2823C207.423 34.3775 209.099 36.0765 211.167 36.0765ZM211.167 171.38C213.235 171.38 214.912 169.682 214.912 167.586C214.912 165.491 213.235 163.792 211.167 163.792C209.099 163.792 207.423 165.491 207.423 167.586C207.423 169.682 209.099 171.38 211.167 171.38ZM211.167 309.213C213.235 309.213 214.912 307.514 214.912 305.418C214.912 303.323 213.235 301.625 211.167 301.625C209.099 301.625 207.423 303.323 207.423 305.418C207.423 307.514 209.099 309.213 211.167 309.213ZM374.683 171.38C376.75 171.38 378.427 169.682 378.427 167.586C378.427 165.491 376.75 163.792 374.683 163.792C372.615 163.792 370.938 165.491 370.938 167.586C370.938 169.682 372.615 171.38 374.683 171.38ZM374.683 309.213C376.75 309.213 378.427 307.514 378.427 305.418C378.427 303.323 376.75 301.625 374.683 301.625C372.615 301.625 370.938 303.323 370.938 305.418C370.938 307.514 372.615 309.213 374.683 309.213ZM374.683 36.0765C376.75 36.0765 378.427 34.3775 378.427 32.2834C378.427 30.1872 376.75 28.4893 374.683 28.4893C372.615 28.4893 370.938 30.1872 370.938 32.2823C370.938 34.3775 372.615 36.0765 374.683 36.0765ZM538.198 36.0765C540.267 36.0765 541.943 34.3775 541.943 32.2834C541.943 30.1872 540.267 28.4893 538.198 28.4893C536.13 28.4893 534.454 30.1872 534.454 32.2823C534.454 34.3775 536.13 36.0765 538.198 36.0765ZM538.198 171.38C540.267 171.38 541.943 169.682 541.943 167.586C541.943 165.491 540.267 163.792 538.198 163.792C536.13 163.792 534.454 165.491 534.454 167.586C534.454 169.682 536.13 171.38 538.198 171.38ZM538.198 309.213C540.267 309.213 541.943 307.514 541.943 305.418C541.943 303.323 540.267 301.625 538.198 301.625C536.13 301.625 534.454 303.323 534.454 305.418C534.454 307.514 536.13 309.213 538.198 309.213ZM701.715 171.38C703.782 171.38 705.459 169.682 705.459 167.586C705.459 165.491 703.782 163.792 701.715 163.792C699.647 163.792 697.97 165.491 697.97 167.586C697.97 169.682 699.647 171.38 701.715 171.38ZM701.715 309.213C703.782 309.213 705.459 307.514 705.459 305.418C705.459 303.323 703.782 301.625 701.715 301.625C699.647 301.625 697.97 303.323 697.97 305.418C697.97 307.514 699.647 309.213 701.715 309.213ZM701.715 36.0765C703.782 36.0765 705.459 34.3775 705.459 32.2834C705.459 30.1872 703.782 28.4893 701.715 28.4893C699.647 28.4893 697.97 30.1872 697.97 32.2823C697.97 34.3775 699.647 36.0765 701.715 36.0765Z" fill="#3C4556" fill-opacity="0.15"/>
<path d="M797.675 307.177H963.119M1125.57 307.177H1834.51M960.874 34.0156H1834.51M961.622 170.222H1834.51M756.5 170.222H794.68" stroke="#3C4556" stroke-opacity="0.15" stroke-width="0.626" stroke-linecap="square"/>
<path d="M962.367 -78.8037V189.868M962.367 307.364V332.81M1125.56 -78.8037V332.81M1452.71 33.455V332.81M1289.14 -78.8037V332.81" stroke="#3C4556" stroke-opacity="0.15" stroke-width="0.626" stroke-linecap="square"/>
<path fill-rule="evenodd" clip-rule="evenodd" d="M798.627 173.481C800.695 173.481 802.372 171.783 802.372 169.688C802.372 167.593 800.695 165.894 798.627 165.894C796.56 165.894 794.883 167.593 794.883 169.688C794.883 171.783 796.56 173.481 798.627 173.481ZM798.627 311.314C800.695 311.314 802.372 309.615 802.372 307.52C802.372 305.425 800.695 303.727 798.627 303.727C796.56 303.727 794.883 305.425 794.883 307.52C794.883 309.615 796.56 311.314 798.627 311.314ZM962.143 173.481C964.212 173.481 965.887 171.783 965.887 169.688C965.887 167.593 964.212 165.894 962.143 165.894C960.075 165.894 958.398 167.593 958.398 169.688C958.398 171.783 960.075 173.481 962.143 173.481ZM962.143 311.314C964.212 311.314 965.887 309.615 965.887 307.52C965.887 305.425 964.212 303.727 962.143 303.727C960.075 303.727 958.398 305.425 958.398 307.52C958.398 309.615 960.075 311.314 962.143 311.314ZM1125.66 173.481C1127.73 173.481 1129.4 171.783 1129.4 169.688C1129.4 167.593 1127.73 165.894 1125.66 165.894C1123.59 165.894 1121.92 167.593 1121.92 169.688C1121.92 171.783 1123.59 173.481 1125.66 173.481ZM1125.66 311.314C1127.73 311.314 1129.4 309.615 1129.4 307.52C1129.4 305.425 1127.73 303.727 1125.66 303.727C1123.59 303.727 1121.92 305.425 1121.92 307.52C1121.92 309.615 1123.59 311.314 1125.66 311.314ZM1125.66 38.1781C1127.73 38.1781 1129.4 36.479 1129.4 34.385C1129.4 32.2888 1127.73 30.5908 1125.66 30.5908C1123.59 30.5908 1121.92 32.2888 1121.92 34.3839C1121.92 36.479 1123.59 38.1781 1125.66 38.1781ZM1289.18 38.1781C1291.24 38.1781 1292.92 36.479 1292.92 34.385C1292.92 32.2888 1291.24 30.5908 1289.18 30.5908C1287.11 30.5908 1285.43 32.2888 1285.43 34.3839C1285.43 36.479 1287.11 38.1781 1289.18 38.1781ZM1289.18 173.481C1291.24 173.481 1292.92 171.783 1292.92 169.688C1292.92 167.593 1291.24 165.894 1289.18 165.894C1287.11 165.894 1285.43 167.593 1285.43 169.688C1285.43 171.783 1287.11 173.481 1289.18 173.481ZM1289.18 311.314C1291.24 311.314 1292.92 309.615 1292.92 307.52C1292.92 305.425 1291.24 303.727 1289.18 303.727C1287.11 303.727 1285.43 305.425 1285.43 307.52C1285.43 309.615 1287.11 311.314 1289.18 311.314ZM1452.69 173.481C1454.76 173.481 1456.44 171.783 1456.44 169.688C1456.44 167.593 1454.76 165.894 1452.69 165.894C1450.62 165.894 1448.95 167.593 1448.95 169.688C1448.95 171.783 1450.62 173.481 1452.69 173.481ZM1452.69 311.314C1454.76 311.314 1456.44 309.615 1456.44 307.52C1456.44 305.425 1454.76 303.727 1452.69 303.727C1450.62 303.727 1448.95 305.425 1448.95 307.52C1448.95 309.615 1450.62 311.314 1452.69 311.314ZM1452.69 38.1781C1454.76 38.1781 1456.44 36.479 1456.44 34.385C1456.44 32.2888 1454.76 30.5908 1452.69 30.5908C1450.62 30.5908 1448.95 32.2888 1448.95 34.3839C1448.95 36.479 1450.62 38.1781 1452.69 38.1781ZM962.143 38.1781C964.212 38.1781 965.887 36.479 965.887 34.385C965.887 32.2888 964.212 30.5908 962.143 30.5908C960.075 30.5908 958.398 32.2888 958.398 34.3839C958.398 36.479 960.075 38.1781 962.143 38.1781Z" fill="#3C4556" fill-opacity="0.15"/>
</g>
<g opacity="0.5">
<path d="M47.5568 718.791H756.499M-117.141 445.629H756.499M-116.391 581.836H756.499" stroke="#3C4556" stroke-opacity="0.15" stroke-width="0.626" stroke-linecap="square"/>
<path d="M47.5547 332.811V744.424M374.701 445.068V744.424M538.274 445.068V744.424M701.848 445.068V744.424M211.128 332.811V744.424" stroke="#3C4556" stroke-opacity="0.15" stroke-width="0.626" stroke-linecap="square"/>
<path fill-rule="evenodd" clip-rule="evenodd" d="M47.6509 585.095C49.7197 585.095 51.3956 583.396 51.3956 581.301C51.3956 579.206 49.7197 577.508 47.6509 577.508C45.5832 577.508 43.9062 579.206 43.9062 581.301C43.9062 583.396 45.5832 585.095 47.6509 585.095ZM47.6509 722.927C49.7197 722.927 51.3956 721.23 51.3956 719.134C51.3956 717.039 49.7197 715.34 47.6509 715.34C45.5832 715.34 43.9062 717.039 43.9062 719.134C43.9062 721.23 45.5832 722.927 47.6509 722.927ZM47.6509 449.791C49.7197 449.791 51.3956 448.093 51.3956 445.998C51.3956 443.903 49.7197 442.204 47.6509 442.204C45.5832 442.204 43.9062 443.903 43.9062 445.998C43.9062 448.093 45.5832 449.791 47.6509 449.791ZM211.167 449.791C213.235 449.791 214.912 448.093 214.912 445.998C214.912 443.903 213.235 442.204 211.167 442.204C209.099 442.204 207.423 443.903 207.423 445.998C207.423 448.093 209.099 449.791 211.167 449.791ZM211.167 585.095C213.235 585.095 214.912 583.396 214.912 581.301C214.912 579.206 213.235 577.508 211.167 577.508C209.099 577.508 207.423 579.206 207.423 581.301C207.423 583.396 209.099 585.095 211.167 585.095ZM211.167 722.927C213.235 722.927 214.912 721.23 214.912 719.134C214.912 717.039 213.235 715.34 211.167 715.34C209.099 715.34 207.423 717.039 207.423 719.134C207.423 721.23 209.099 722.927 211.167 722.927ZM374.683 585.095C376.75 585.095 378.427 583.396 378.427 581.301C378.427 579.206 376.75 577.508 374.683 577.508C372.615 577.508 370.938 579.206 370.938 581.301C370.938 583.396 372.615 585.095 374.683 585.095ZM374.683 722.927C376.75 722.927 378.427 721.23 378.427 719.134C378.427 717.039 376.75 715.34 374.683 715.34C372.615 715.34 370.938 717.039 370.938 719.134C370.938 721.23 372.615 722.927 374.683 722.927ZM374.683 449.791C376.75 449.791 378.427 448.093 378.427 445.998C378.427 443.903 376.75 442.204 374.683 442.204C372.615 442.204 370.938 443.903 370.938 445.998C370.938 448.093 372.615 449.791 374.683 449.791ZM538.198 449.791C540.267 449.791 541.943 448.093 541.943 445.998C541.943 443.903 540.267 442.204 538.198 442.204C536.13 442.204 534.454 443.903 534.454 445.998C534.454 448.093 536.13 449.791 538.198 449.791ZM538.198 585.095C540.267 585.095 541.943 583.396 541.943 581.301C541.943 579.206 540.267 577.508 538.198 577.508C536.13 577.508 534.454 579.206 534.454 581.301C534.454 583.396 536.13 585.095 538.198 585.095ZM538.198 722.927C540.267 722.927 541.943 721.23 541.943 719.134C541.943 717.039 540.267 715.34 538.198 715.34C536.13 715.34 534.454 717.039 534.454 719.134C534.454 721.23 536.13 722.927 538.198 722.927ZM701.715 585.095C703.782 585.095 705.459 583.396 705.459 581.301C705.459 579.206 703.782 577.508 701.715 577.508C699.647 577.508 697.97 579.206 697.97 581.301C697.97 583.396 699.647 585.095 701.715 585.095ZM701.715 722.927C703.782 722.927 705.459 721.23 705.459 719.134C705.459 717.039 703.782 715.34 701.715 715.34C699.647 715.34 697.97 717.039 697.97 719.134C697.97 721.23 699.647 722.927 701.715 722.927ZM701.715 449.791C703.782 449.791 705.459 448.093 705.459 445.998C705.459 443.903 703.782 442.204 701.715 442.204C699.647 442.204 697.97 443.903 697.97 445.998C697.97 448.093 699.647 449.791 701.715 449.791Z" fill="#3C4556" fill-opacity="0.15"/>
<path d="M797.675 718.791H963.119M1125.57 718.791H1834.51M960.874 445.629H1834.51M961.622 581.836H1834.51M756.5 581.836H794.68" stroke="#3C4556" stroke-opacity="0.15" stroke-width="0.626" stroke-linecap="square"/>
<path d="M962.367 332.81V601.481M962.367 718.979V744.424M1125.56 332.81V744.424M1452.71 445.068V744.424M1289.14 332.81V744.424" stroke="#3C4556" stroke-opacity="0.15" stroke-width="0.626" stroke-linecap="square"/>
<path fill-rule="evenodd" clip-rule="evenodd" d="M798.627 585.094C800.695 585.094 802.372 583.396 802.372 581.301C802.372 579.206 800.695 577.508 798.627 577.508C796.56 577.508 794.883 579.206 794.883 581.301C794.883 583.396 796.56 585.094 798.627 585.094ZM798.627 722.927C800.695 722.927 802.372 721.229 802.372 719.133C802.372 717.038 800.695 715.34 798.627 715.34C796.56 715.34 794.883 717.038 794.883 719.133C794.883 721.229 796.56 722.927 798.627 722.927ZM962.143 585.094C964.212 585.094 965.887 583.396 965.887 581.301C965.887 579.206 964.212 577.508 962.143 577.508C960.075 577.508 958.398 579.206 958.398 581.301C958.398 583.396 960.075 585.094 962.143 585.094ZM962.143 722.927C964.212 722.927 965.887 721.229 965.887 719.133C965.887 717.038 964.212 715.34 962.143 715.34C960.075 715.34 958.398 717.038 958.398 719.133C958.398 721.229 960.075 722.927 962.143 722.927ZM1125.66 585.094C1127.73 585.094 1129.4 583.396 1129.4 581.301C1129.4 579.206 1127.73 577.508 1125.66 577.508C1123.59 577.508 1121.92 579.206 1121.92 581.301C1121.92 583.396 1123.59 585.094 1125.66 585.094ZM1125.66 722.927C1127.73 722.927 1129.4 721.229 1129.4 719.133C1129.4 717.038 1127.73 715.34 1125.66 715.34C1123.59 715.34 1121.92 717.038 1121.92 719.133C1121.92 721.229 1123.59 722.927 1125.66 722.927ZM1125.66 449.791C1127.73 449.791 1129.4 448.093 1129.4 445.998C1129.4 443.903 1127.73 442.204 1125.66 442.204C1123.59 442.204 1121.92 443.903 1121.92 445.998C1121.92 448.093 1123.59 449.791 1125.66 449.791ZM1289.18 449.791C1291.24 449.791 1292.92 448.093 1292.92 445.998C1292.92 443.903 1291.24 442.204 1289.18 442.204C1287.11 442.204 1285.43 443.903 1285.43 445.998C1285.43 448.093 1287.11 449.791 1289.18 449.791ZM1289.18 585.094C1291.24 585.094 1292.92 583.396 1292.92 581.301C1292.92 579.206 1291.24 577.508 1289.18 577.508C1287.11 577.508 1285.43 579.206 1285.43 581.301C1285.43 583.396 1287.11 585.094 1289.18 585.094ZM1289.18 722.927C1291.24 722.927 1292.92 721.229 1292.92 719.133C1292.92 717.038 1291.24 715.34 1289.18 715.34C1287.11 715.34 1285.43 717.038 1285.43 719.133C1285.43 721.229 1287.11 722.927 1289.18 722.927ZM1452.69 585.094C1454.76 585.094 1456.44 583.396 1456.44 581.301C1456.44 579.206 1454.76 577.508 1452.69 577.508C1450.62 577.508 1448.95 579.206 1448.95 581.301C1448.95 583.396 1450.62 585.094 1452.69 585.094ZM1452.69 722.927C1454.76 722.927 1456.44 721.229 1456.44 719.133C1456.44 717.038 1454.76 715.34 1452.69 715.34C1450.62 715.34 1448.95 717.038 1448.95 719.133C1448.95 721.229 1450.62 722.927 1452.69 722.927ZM1452.69 449.791C1454.76 449.791 1456.44 448.093 1456.44 445.998C1456.44 443.903 1454.76 442.204 1452.69 442.204C1450.62 442.204 1448.95 443.903 1448.95 445.998C1448.95 448.093 1450.62 449.791 1452.69 449.791ZM962.143 449.791C964.212 449.791 965.887 448.093 965.887 445.998C965.887 443.903 964.212 442.204 962.143 442.204C960.075 442.204 958.398 443.903 958.398 445.998C958.398 448.093 960.075 449.791 962.143 449.791Z" fill="#3C4556" fill-opacity="0.15"/>
</g>
<g opacity="0.5">
<path d="M-117.141 857.243H756.499M-116.391 993.45H756.499" stroke="#3C4556" stroke-opacity="0.15" stroke-width="0.626" stroke-linecap="square"/>
<path d="M47.5547 744.424V1156.04M374.701 856.682V1156.04M538.274 856.682V1156.04M701.848 856.682V1156.04M211.128 744.424V1156.04" stroke="#3C4556" stroke-opacity="0.15" stroke-width="0.626" stroke-linecap="square"/>
<path fill-rule="evenodd" clip-rule="evenodd" d="M47.6509 996.709C49.7197 996.709 51.3956 995.011 51.3956 992.916C51.3956 990.82 49.7197 989.121 47.6509 989.121C45.5832 989.121 43.9062 990.82 43.9062 992.916C43.9062 995.011 45.5832 996.709 47.6509 996.709ZM47.6509 861.406C49.7197 861.406 51.3956 859.707 51.3956 857.611C51.3956 855.516 49.7197 853.818 47.6509 853.818C45.5832 853.818 43.9062 855.516 43.9062 857.611C43.9062 859.707 45.5832 861.406 47.6509 861.406ZM211.167 861.406C213.235 861.406 214.912 859.707 214.912 857.611C214.912 855.516 213.235 853.818 211.167 853.818C209.099 853.818 207.423 855.516 207.423 857.611C207.423 859.707 209.099 861.406 211.167 861.406ZM211.167 996.709C213.235 996.709 214.912 995.011 214.912 992.916C214.912 990.82 213.235 989.121 211.167 989.121C209.099 989.121 207.423 990.82 207.423 992.916C207.423 995.011 209.099 996.709 211.167 996.709ZM374.683 996.709C376.75 996.709 378.427 995.011 378.427 992.916C378.427 990.82 376.75 989.121 374.683 989.121C372.615 989.121 370.938 990.82 370.938 992.916C370.938 995.011 372.615 996.709 374.683 996.709ZM374.683 861.406C376.75 861.406 378.427 859.707 378.427 857.611C378.427 855.516 376.75 853.818 374.683 853.818C372.615 853.818 370.938 855.516 370.938 857.611C370.938 859.707 372.615 861.406 374.683 861.406ZM538.198 861.406C540.267 861.406 541.943 859.707 541.943 857.611C541.943 855.516 540.267 853.818 538.198 853.818C536.13 853.818 534.454 855.516 534.454 857.611C534.454 859.707 536.13 861.406 538.198 861.406ZM538.198 996.709C540.267 996.709 541.943 995.011 541.943 992.916C541.943 990.82 540.267 989.121 538.198 989.121C536.13 989.121 534.454 990.82 534.454 992.916C534.454 995.011 536.13 996.709 538.198 996.709ZM701.715 996.709C703.782 996.709 705.459 995.011 705.459 992.916C705.459 990.82 703.782 989.121 701.715 989.121C699.647 989.121 697.97 990.82 697.97 992.916C697.97 995.011 699.647 996.709 701.715 996.709ZM701.715 861.406C703.782 861.406 705.459 859.707 705.459 857.611C705.459 855.516 703.782 853.818 701.715 853.818C699.647 853.818 697.97 855.516 697.97 857.611C697.97 859.707 699.647 861.406 701.715 861.406Z" fill="#3C4556" fill-opacity="0.15"/>
<path d="M960.874 857.243H1834.51M961.622 993.45H1834.51M756.5 993.45H794.68" stroke="#3C4556" stroke-opacity="0.15" stroke-width="0.626" stroke-linecap="square"/>
<path d="M962.367 744.424V1013.1M1125.56 744.424V1156.04M1452.71 856.681V1156.04M1289.14 744.424V1156.04" stroke="#3C4556" stroke-opacity="0.15" stroke-width="0.626" stroke-linecap="square"/>
<path fill-rule="evenodd" clip-rule="evenodd" d="M798.627 996.709C800.695 996.709 802.372 995.01 802.372 992.915C802.372 990.819 800.695 989.121 798.627 989.121C796.56 989.121 794.883 990.819 794.883 992.915C794.883 995.01 796.56 996.709 798.627 996.709ZM962.143 996.709C964.212 996.709 965.887 995.01 965.887 992.915C965.887 990.819 964.212 989.121 962.143 989.121C960.075 989.121 958.398 990.819 958.398 992.915C958.398 995.01 960.075 996.709 962.143 996.709ZM1125.66 996.709C1127.73 996.709 1129.4 995.01 1129.4 992.915C1129.4 990.819 1127.73 989.121 1125.66 989.121C1123.59 989.121 1121.92 990.819 1121.92 992.915C1121.92 995.01 1123.59 996.709 1125.66 996.709ZM1125.66 861.405C1127.73 861.405 1129.4 859.707 1129.4 857.612C1129.4 855.516 1127.73 853.817 1125.66 853.817C1123.59 853.817 1121.92 855.516 1121.92 857.612C1121.92 859.707 1123.59 861.405 1125.66 861.405ZM1289.18 861.405C1291.24 861.405 1292.92 859.707 1292.92 857.612C1292.92 855.516 1291.24 853.817 1289.18 853.817C1287.11 853.817 1285.43 855.516 1285.43 857.612C1285.43 859.707 1287.11 861.405 1289.18 861.405ZM1289.18 996.709C1291.24 996.709 1292.92 995.01 1292.92 992.915C1292.92 990.819 1291.24 989.121 1289.18 989.121C1287.11 989.121 1285.43 990.819 1285.43 992.915C1285.43 995.01 1287.11 996.709 1289.18 996.709ZM1452.69 996.709C1454.76 996.709 1456.44 995.01 1456.44 992.915C1456.44 990.819 1454.76 989.121 1452.69 989.121C1450.62 989.121 1448.95 990.819 1448.95 992.915C1448.95 995.01 1450.62 996.709 1452.69 996.709ZM1452.69 861.405C1454.76 861.405 1456.44 859.707 1456.44 857.612C1456.44 855.516 1454.76 853.817 1452.69 853.817C1450.62 853.817 1448.95 855.516 1448.95 857.612C1448.95 859.707 1450.62 861.405 1452.69 861.405ZM962.143 861.405C964.212 861.405 965.887 859.707 965.887 857.612C965.887 855.516 964.212 853.817 962.143 853.817C960.075 853.817 958.398 855.516 958.398 857.612C958.398 859.707 960.075 861.405 962.143 861.405Z" fill="#3C4556" fill-opacity="0.15"/>
</g>
<path d="M697.131 591V581.2H701.247C701.854 581.2 702.386 581.307 702.843 581.522C703.31 581.727 703.669 582.026 703.921 582.418C704.183 582.81 704.313 583.277 704.313 583.818V583.972C704.313 584.588 704.164 585.083 703.865 585.456C703.576 585.82 703.221 586.077 702.801 586.226V586.45C703.156 586.469 703.441 586.59 703.655 586.814C703.87 587.029 703.977 587.341 703.977 587.752V591H702.451V587.962C702.451 587.71 702.386 587.509 702.255 587.36C702.125 587.211 701.915 587.136 701.625 587.136H698.643V591H697.131ZM698.643 585.764H701.079C701.621 585.764 702.041 585.629 702.339 585.358C702.638 585.078 702.787 584.7 702.787 584.224V584.112C702.787 583.636 702.638 583.263 702.339 582.992C702.05 582.712 701.63 582.572 701.079 582.572H698.643V585.764ZM709.433 591.196C708.733 591.196 708.122 591.051 707.599 590.762C707.076 590.463 706.666 590.048 706.367 589.516C706.078 588.975 705.933 588.349 705.933 587.64V587.472C705.933 586.753 706.078 586.128 706.367 585.596C706.656 585.055 707.058 584.639 707.571 584.35C708.094 584.051 708.696 583.902 709.377 583.902C710.04 583.902 710.618 584.051 711.113 584.35C711.617 584.639 712.009 585.045 712.289 585.568C712.569 586.091 712.709 586.702 712.709 587.402V587.948H707.403C707.422 588.555 707.622 589.04 708.005 589.404C708.397 589.759 708.882 589.936 709.461 589.936C710.002 589.936 710.408 589.815 710.679 589.572C710.959 589.329 711.174 589.049 711.323 588.732L712.513 589.348C712.382 589.609 712.191 589.885 711.939 590.174C711.696 590.463 711.374 590.706 710.973 590.902C710.572 591.098 710.058 591.196 709.433 591.196ZM707.417 586.842H711.239C711.202 586.319 711.015 585.913 710.679 585.624C710.343 585.325 709.904 585.176 709.363 585.176C708.822 585.176 708.378 585.325 708.033 585.624C707.697 585.913 707.492 586.319 707.417 586.842ZM714.359 587.584V587.374C714.359 586.646 714.503 586.025 714.793 585.512C715.091 584.999 715.483 584.602 715.969 584.322C716.454 584.042 716.986 583.902 717.565 583.902C718.237 583.902 718.75 584.028 719.105 584.28C719.469 584.532 719.735 584.803 719.903 585.092H720.127V584.098H721.527V592.414C721.527 592.834 721.401 593.17 721.149 593.422C720.906 593.674 720.57 593.8 720.141 593.8H715.493V592.54H719.693C719.963 592.54 720.099 592.4 720.099 592.12V589.922H719.875C719.772 590.09 719.627 590.263 719.441 590.44C719.254 590.617 719.007 590.762 718.699 590.874C718.4 590.986 718.022 591.042 717.565 591.042C716.986 591.042 716.449 590.907 715.955 590.636C715.469 590.356 715.082 589.959 714.793 589.446C714.503 588.923 714.359 588.303 714.359 587.584ZM717.957 589.782C718.582 589.782 719.095 589.586 719.497 589.194C719.907 588.793 720.113 588.242 720.113 587.542V587.416C720.113 586.697 719.912 586.147 719.511 585.764C719.109 585.372 718.591 585.176 717.957 585.176C717.341 585.176 716.827 585.372 716.417 585.764C716.015 586.147 715.815 586.697 715.815 587.416V587.542C715.815 588.242 716.015 588.793 716.417 589.194C716.827 589.586 717.341 589.782 717.957 589.782ZM723.9 591V584.098H725.342V591H723.9ZM724.628 583.16C724.348 583.16 724.11 583.071 723.914 582.894C723.727 582.707 723.634 582.469 723.634 582.18C723.634 581.891 723.727 581.657 723.914 581.48C724.11 581.293 724.348 581.2 724.628 581.2C724.917 581.2 725.155 581.293 725.342 581.48C725.528 581.657 725.622 581.891 725.622 582.18C725.622 582.469 725.528 582.707 725.342 582.894C725.155 583.071 724.917 583.16 724.628 583.16ZM730.56 591.196C729.682 591.196 728.954 591 728.376 590.608C727.797 590.216 727.442 589.623 727.312 588.83L728.656 588.508C728.73 588.891 728.856 589.194 729.034 589.418C729.211 589.642 729.43 589.801 729.692 589.894C729.962 589.987 730.252 590.034 730.56 590.034C731.017 590.034 731.367 589.945 731.61 589.768C731.862 589.591 731.988 589.362 731.988 589.082C731.988 588.802 731.871 588.597 731.638 588.466C731.404 588.335 731.059 588.228 730.602 588.144L730.126 588.06C729.659 587.976 729.234 587.855 728.852 587.696C728.469 587.537 728.166 587.318 727.942 587.038C727.718 586.758 727.606 586.399 727.606 585.96C727.606 585.307 727.848 584.803 728.334 584.448C728.819 584.084 729.463 583.902 730.266 583.902C731.04 583.902 731.675 584.079 732.17 584.434C732.674 584.779 733 585.251 733.15 585.848L731.806 586.226C731.722 585.806 731.544 585.512 731.274 585.344C731.003 585.167 730.667 585.078 730.266 585.078C729.874 585.078 729.566 585.153 729.342 585.302C729.118 585.442 729.006 585.643 729.006 585.904C729.006 586.184 729.113 586.389 729.328 586.52C729.552 586.651 729.85 586.749 730.224 586.814L730.714 586.898C731.208 586.982 731.661 587.099 732.072 587.248C732.482 587.397 732.804 587.612 733.038 587.892C733.28 588.172 733.402 588.545 733.402 589.012C733.402 589.703 733.145 590.239 732.632 590.622C732.118 591.005 731.428 591.196 730.56 591.196ZM737.777 591C737.357 591 737.021 590.874 736.769 590.622C736.526 590.37 736.405 590.034 736.405 589.614V585.316H734.501V584.098H736.405V581.816H737.847V584.098H739.905V585.316H737.847V589.362C737.847 589.642 737.978 589.782 738.239 589.782H739.681V591H737.777ZM744.767 591.196C744.067 591.196 743.456 591.051 742.933 590.762C742.41 590.463 742 590.048 741.701 589.516C741.412 588.975 741.267 588.349 741.267 587.64V587.472C741.267 586.753 741.412 586.128 741.701 585.596C741.99 585.055 742.392 584.639 742.905 584.35C743.428 584.051 744.03 583.902 744.711 583.902C745.374 583.902 745.952 584.051 746.447 584.35C746.951 584.639 747.343 585.045 747.623 585.568C747.903 586.091 748.043 586.702 748.043 587.402V587.948H742.737C742.756 588.555 742.956 589.04 743.339 589.404C743.731 589.759 744.216 589.936 744.795 589.936C745.336 589.936 745.742 589.815 746.013 589.572C746.293 589.329 746.508 589.049 746.657 588.732L747.847 589.348C747.716 589.609 747.525 589.885 747.273 590.174C747.03 590.463 746.708 590.706 746.307 590.902C745.906 591.098 745.392 591.196 744.767 591.196ZM742.751 586.842H746.573C746.536 586.319 746.349 585.913 746.013 585.624C745.677 585.325 745.238 585.176 744.697 585.176C744.156 585.176 743.712 585.325 743.367 585.624C743.031 585.913 742.826 586.319 742.751 586.842ZM750.029 591V584.098H751.443V584.91H751.667C751.779 584.621 751.956 584.411 752.199 584.28C752.451 584.14 752.759 584.07 753.123 584.07H753.949V585.372H753.067C752.6 585.372 752.217 585.503 751.919 585.764C751.62 586.016 751.471 586.408 751.471 586.94V591H750.029ZM759.511 591V584.098H760.925V584.91H761.149C761.28 584.667 761.49 584.453 761.779 584.266C762.068 584.079 762.46 583.986 762.955 583.986C763.468 583.986 763.879 584.093 764.187 584.308C764.504 584.513 764.742 584.779 764.901 585.106H765.125C765.284 584.789 765.512 584.523 765.811 584.308C766.119 584.093 766.553 583.986 767.113 583.986C767.561 583.986 767.958 584.079 768.303 584.266C768.648 584.443 768.924 584.714 769.129 585.078C769.334 585.433 769.437 585.876 769.437 586.408V591H767.995V586.52C767.995 586.1 767.878 585.778 767.645 585.554C767.421 585.321 767.099 585.204 766.679 585.204C766.231 585.204 765.872 585.349 765.601 585.638C765.33 585.927 765.195 586.343 765.195 586.884V591H763.753V586.52C763.753 586.1 763.636 585.778 763.403 585.554C763.179 585.321 762.857 585.204 762.437 585.204C761.989 585.204 761.63 585.349 761.359 585.638C761.088 585.927 760.953 586.343 760.953 586.884V591H759.511ZM772.454 593.8V592.54H776.304C776.565 592.54 776.696 592.4 776.696 592.12V589.992H776.472C776.388 590.179 776.257 590.361 776.08 590.538C775.912 590.706 775.683 590.846 775.394 590.958C775.104 591.07 774.74 591.126 774.302 591.126C773.779 591.126 773.312 591.009 772.902 590.776C772.491 590.543 772.169 590.211 771.936 589.782C771.702 589.353 771.586 588.844 771.586 588.256V584.098H773.028V588.144C773.028 588.741 773.177 589.185 773.476 589.474C773.774 589.754 774.19 589.894 774.722 589.894C775.31 589.894 775.781 589.698 776.136 589.306C776.5 588.914 776.682 588.345 776.682 587.598V584.098H778.124V592.414C778.124 592.834 777.998 593.17 777.746 593.422C777.503 593.674 777.167 593.8 776.738 593.8H772.454ZM787.53 591.196C786.867 591.196 786.265 591.056 785.724 590.776C785.192 590.496 784.767 590.09 784.45 589.558C784.142 589.026 783.988 588.387 783.988 587.64V587.458C783.988 586.711 784.142 586.077 784.45 585.554C784.767 585.022 785.192 584.616 785.724 584.336C786.265 584.047 786.867 583.902 787.53 583.902C788.192 583.902 788.757 584.023 789.224 584.266C789.69 584.509 790.064 584.831 790.344 585.232C790.633 585.633 790.82 586.077 790.904 586.562L789.504 586.856C789.457 586.548 789.359 586.268 789.21 586.016C789.06 585.764 788.85 585.563 788.58 585.414C788.309 585.265 787.968 585.19 787.558 585.19C787.156 585.19 786.792 585.283 786.466 585.47C786.148 585.647 785.896 585.909 785.71 586.254C785.523 586.59 785.43 587.001 785.43 587.486V587.612C785.43 588.097 785.523 588.513 785.71 588.858C785.896 589.203 786.148 589.465 786.466 589.642C786.792 589.819 787.156 589.908 787.558 589.908C788.164 589.908 788.626 589.754 788.944 589.446C789.261 589.129 789.462 588.727 789.546 588.242L790.946 588.564C790.834 589.04 790.633 589.479 790.344 589.88C790.064 590.281 789.69 590.603 789.224 590.846C788.757 591.079 788.192 591.196 787.53 591.196ZM792.859 591V581.2H794.301V585.078H794.525C794.618 584.901 794.749 584.728 794.917 584.56C795.094 584.392 795.323 584.257 795.603 584.154C795.892 584.042 796.256 583.986 796.695 583.986C797.217 583.986 797.679 584.103 798.081 584.336C798.491 584.569 798.813 584.901 799.047 585.33C799.28 585.75 799.397 586.259 799.397 586.856V591H797.955V586.968C797.955 586.371 797.805 585.932 797.507 585.652C797.208 585.363 796.797 585.218 796.275 585.218C795.677 585.218 795.197 585.414 794.833 585.806C794.478 586.198 794.301 586.767 794.301 587.514V591H792.859ZM801.722 591V584.098H803.164V591H801.722ZM802.45 583.16C802.17 583.16 801.932 583.071 801.736 582.894C801.549 582.707 801.456 582.469 801.456 582.18C801.456 581.891 801.549 581.657 801.736 581.48C801.932 581.293 802.17 581.2 802.45 581.2C802.739 581.2 802.977 581.293 803.164 581.48C803.351 581.657 803.444 581.891 803.444 582.18C803.444 582.469 803.351 582.707 803.164 582.894C802.977 583.071 802.739 583.16 802.45 583.16ZM805.554 591V581.2H806.996V591H805.554ZM812.242 591.196C811.673 591.196 811.145 591.056 810.66 590.776C810.175 590.496 809.783 590.095 809.484 589.572C809.195 589.04 809.05 588.401 809.05 587.654V587.444C809.05 586.707 809.195 586.072 809.484 585.54C809.773 585.008 810.161 584.602 810.646 584.322C811.131 584.042 811.663 583.902 812.242 583.902C812.69 583.902 813.063 583.958 813.362 584.07C813.67 584.182 813.922 584.327 814.118 584.504C814.314 584.672 814.463 584.849 814.566 585.036H814.79V581.2H816.232V591H814.818V590.02H814.594C814.417 590.319 814.146 590.589 813.782 590.832C813.427 591.075 812.914 591.196 812.242 591.196ZM812.648 589.936C813.273 589.936 813.787 589.735 814.188 589.334C814.599 588.933 814.804 588.359 814.804 587.612V587.486C814.804 586.749 814.603 586.179 814.202 585.778C813.801 585.377 813.283 585.176 812.648 585.176C812.032 585.176 811.519 585.377 811.108 585.778C810.707 586.179 810.506 586.749 810.506 587.486V587.612C810.506 588.359 810.707 588.933 811.108 589.334C811.519 589.735 812.032 589.936 812.648 589.936Z" fill="white"/>
</g>
<defs>
<clipPath id="clip0_5774_14458">
<rect width="1513" height="1098" fill="white"/>
</clipPath>
</defs>
</svg>
