<svg width="80" height="80" viewBox="0 0 80 80" fill="none" xmlns="http://www.w3.org/2000/svg">
<circle cx="40" cy="40" r="40" fill="#30133D"/>
<path fill-rule="evenodd" clip-rule="evenodd" d="M40.8563 26.7693C48.2637 26.7693 54.2686 32.7133 54.2686 40.0455C54.2686 47.3778 48.2637 53.3218 40.8563 53.3218C37.6434 53.3218 34.6948 52.2032 32.3854 50.3385L32.3849 50.3391L27.3564 51.3465L29.4311 47.0021C28.1713 44.9791 27.4437 42.5966 27.4437 40.0455C27.4437 32.7133 33.4487 26.7693 40.8563 26.7693Z" fill="black"/>
<path fill-rule="evenodd" clip-rule="evenodd" d="M40.9596 26.5608C48.624 26.5608 54.8372 32.711 54.8372 40.2976C54.8372 47.8843 48.624 54.0344 40.9596 54.0344C38.0834 54.0344 35.4114 53.1685 33.1958 51.6854L25.4985 53.3984L28.5422 46.4386L28.5427 46.4375C27.6084 44.5897 27.0816 42.5047 27.0816 40.2976C27.0816 32.711 33.2949 26.5608 40.9593 26.5608H40.9596ZM40.9596 28.6391C47.4644 28.6391 52.7376 33.8589 52.7376 40.2976C52.7376 46.7365 47.4644 51.9561 40.9596 51.9561C38.1382 51.9561 35.5489 50.9739 33.521 49.3364L33.5205 49.3368L29.1048 50.2215L30.9267 46.4064C29.8203 44.6298 29.1815 42.5377 29.1815 40.2975C29.1815 33.8586 34.4547 28.639 40.9597 28.639L40.9596 28.6391Z" fill="white"/>
<path d="M18.9726 55C19.6692 55 20.2338 54.4422 20.2338 53.7541C20.2338 53.066 19.6692 52.5082 18.9726 52.5082C18.2761 52.5082 17.7114 53.066 17.7114 53.7541C17.7114 54.4422 18.2761 55 18.9726 55Z" fill="white"/>
<path d="M21.6035 54.748C22.1593 54.748 22.6099 54.3029 22.6099 53.7539C22.6099 53.2048 22.1593 52.7598 21.6035 52.7598C21.0477 52.7598 20.5972 53.2048 20.5972 53.7539C20.5972 54.3029 21.0477 54.748 21.6035 54.748Z" fill="white"/>
<path d="M23.6709 54.4558C24.0632 54.4558 24.3813 54.1416 24.3813 53.754C24.3813 53.3663 24.0632 53.0521 23.6709 53.0521C23.2785 53.0521 22.9604 53.3663 22.9604 53.754C22.9604 54.1416 23.2785 54.4558 23.6709 54.4558Z" fill="white"/>
<path fill-rule="evenodd" clip-rule="evenodd" d="M19.7779 51.7181H27.0114L25.759 42.0563L31.161 27.2759H25.7502L22.718 36.8095C21.3853 33.6441 20.0605 31.0531 18.4419 28.0238L11.25 28.6846L19.2581 42.1741L19.7779 51.7179V51.7181Z" fill="white"/>
<path fill-rule="evenodd" clip-rule="evenodd" d="M61.7252 28.6774C61.0175 34.5274 60.0838 39.8121 58.3545 45.4328H62.7397C64.6727 40.534 66.1805 35.7825 67.6484 30.4446L61.7252 28.6775V28.6774Z" fill="white"/>
<path d="M59.6416 53.5513C61.4306 53.5513 62.8809 52.1166 62.8809 50.3468C62.8809 48.577 61.4306 47.1423 59.6416 47.1423C57.8526 47.1423 56.4023 48.577 56.4023 50.3468C56.4023 52.1166 57.8526 53.5513 59.6416 53.5513Z" fill="white"/>
<path fill-rule="evenodd" clip-rule="evenodd" d="M28.1841 28.4709C29.3571 27.838 30.6181 27.8019 31.5755 26.942C31.5755 26.942 32.3879 26.3936 32.6199 26.2776C32.8521 26.1616 33.6451 25.8715 33.7805 25.8909C33.9159 25.9103 34.4575 25.7941 34.4575 25.7941C36.5221 25.8597 36.701 25.7104 38.6869 25.2619C41.3769 25.139 43.5967 24.7171 46.2365 25.3037L48.4993 25.8377C49.6919 26.2391 51.4031 26.6107 52.1034 27.7778L52.8303 27.8318C53.8108 27.8318 53.8337 28.2954 54.792 28.0559L55.5076 28.2493C55.5076 29.3526 55.1866 29.5768 55.1932 30.0525L55.2125 31.1164L55.6575 32.1997C55.6575 32.1997 55.851 32.954 55.851 33.0701C55.851 33.1862 55.6188 34.2114 55.6188 34.2114L55.0385 35.1786L54.4077 35.8258L53.9088 36.3247L53.4818 35.8978L51.5847 31.4601L49.1016 28.3404L43.5445 27.1569L36.2893 27.9288L31.1612 32.0967L27.3449 35.9131L26.3071 32.7142L27.8769 28.7783L28.184 28.4712L28.1841 28.4709Z" fill="white"/>
<path fill-rule="evenodd" clip-rule="evenodd" d="M30.1764 31.7692L30.1768 31.7691L30.4304 31.6713L30.4379 31.6683L30.4453 31.6656L30.4525 31.6628C30.8684 31.5054 30.7684 31.5676 31.1607 30.8395C31.2943 30.5915 31.3673 30.5856 31.5508 30.453C31.6622 30.3723 31.9091 30.219 32.0445 30.1839C32.4961 30.0672 32.7932 30.086 33.1873 29.8569C33.5508 29.6457 33.8355 29.4295 34.2123 29.6334C34.4069 29.7388 34.2837 29.9382 34.3082 30.1729C34.3228 30.3134 34.4089 30.5654 34.4434 30.7043C34.5456 31.1149 34.2589 31.3853 34.5073 31.6281C34.5633 31.6829 34.609 31.7588 34.6834 31.7987C35.0663 31.8319 35.0875 31.3252 35.7144 31.6927C35.9694 31.8422 35.9179 31.8173 36.2645 31.8207C36.4971 31.823 36.7335 31.8193 36.9633 31.8356C37.2414 31.9822 37.1194 33.3713 37.1703 33.8172C37.2088 34.1534 37.2438 34.164 37.1485 34.5075C37.3493 34.6505 37.3177 34.5907 37.5283 34.7784C37.5776 34.8221 37.6071 34.8356 37.6537 34.8855L38.0646 35.3339C38.1805 35.4539 38.1241 35.4709 38.141 35.6722C38.154 35.8261 38.2239 35.8361 38.2196 36.0011C38.2121 36.292 38.1512 36.6274 38.1589 36.9115C38.1629 37.0581 38.2047 37.1001 38.1922 37.2782C38.1815 37.4298 38.1681 37.5847 38.1543 37.7365C38.121 38.1013 38.1675 38.1566 38.2716 38.4407C38.5294 39.1437 38.3641 39.3014 38.304 40.0809C38.2766 40.4366 38.4531 40.4725 38.5324 40.683C38.6031 40.8708 38.4592 41.3122 38.5113 41.5213C38.5309 41.6002 38.6188 41.7101 38.6591 41.7954L38.9916 42.7484C39.0264 42.9121 39.1351 43.2911 39.1294 43.4367C39.1239 43.5771 39.0811 43.7556 39.0795 43.8912C39.0771 44.1014 39.3039 44.1143 39.297 44.3308C39.2933 44.4464 39.2124 45.1422 39.1839 45.2353C39.1608 45.3105 38.844 45.6151 38.7733 45.7004C38.5685 45.9477 38.4353 46.0157 38.613 46.3064C38.7672 46.5588 38.89 46.8548 39.2879 46.8559C41.9833 46.8635 40.3862 46.8502 41.3133 47.161C41.5296 47.2335 41.7948 47.3546 42.0326 47.3997C42.2734 47.4453 42.4069 47.4127 42.5453 47.6127C42.6506 47.765 42.6665 48.071 42.7295 48.2806C42.7612 48.3862 42.9486 48.7657 43.0226 48.8362C43.165 48.972 43.3648 49.0903 43.5201 49.2079C43.7575 49.3877 43.7928 49.3667 43.9224 49.6639C44.0093 49.8632 43.9805 50.049 44.0758 50.2614C44.135 50.3933 44.1853 50.4146 44.1677 50.5877C44.1248 51.0091 44.1594 50.5603 44.0761 51.1614C44.0401 51.4208 44.0226 51.4057 44.0143 51.6168C43.9281 51.7845 43.9094 52.3053 43.8877 52.5151C43.8278 53.0909 43.8859 52.9879 44.0658 53.1137C44.1793 53.0673 44.1105 53.1599 44.2039 53.1191C44.5294 52.9771 44.5962 53.1468 44.9216 52.7921C44.9719 52.7372 45.2306 52.4604 45.2565 52.4062C45.4735 51.954 45.2898 51.8259 45.4171 51.4548C45.4459 51.3706 45.4993 51.2971 45.5296 51.2062C45.5624 51.1074 45.5697 51.0019 45.6058 50.9033C45.7192 50.593 46.1585 50.3442 46.3523 50.2003C46.5094 50.0835 46.7147 50.1037 46.9082 50.0751C47.0846 50.049 47.2501 49.9681 47.4485 49.9251C47.7535 49.8591 48.5997 49.4611 48.9065 49.2631C49.0308 49.1828 48.9806 49.1724 49.0831 49.0812C49.4763 48.7309 49.7779 48.8823 49.9378 48.12C49.8524 48.0526 49.7923 48.0602 49.7675 47.9237C49.5002 46.4481 50.5019 46.5275 50.714 46.0907C50.8174 45.8779 50.9764 45.3781 51.1376 45.2238C51.2351 45.1304 51.2464 45.1348 51.3424 45.0067C51.6712 44.5678 51.641 44.9548 52.0725 44.4862C52.1908 44.3577 52.2014 44.38 52.221 44.1548C51.9294 43.9331 52.1296 43.9466 52.0196 43.6853C51.9613 43.5468 51.7579 43.4379 51.7188 43.2976C51.5825 42.8087 51.386 43.2388 51.1434 42.8334C51.0872 42.7395 51.0341 42.7227 51.0376 42.6066C51.0403 42.5189 51.2042 42.0557 51.2357 42.0135C51.3796 41.8211 51.7158 41.6013 51.7525 41.3628C51.7701 41.2484 51.7782 41.1125 51.7911 40.9954L51.9519 39.5329C51.9827 39.2283 52.0294 39.1969 52.1539 38.9413C52.4128 38.4102 52.4393 38.3663 52.6064 37.7953C52.7951 37.1504 52.8691 36.4988 52.6119 35.9443C52.4807 35.6612 52.5065 35.7096 52.5489 35.3368C52.8433 35.0982 53.2812 34.934 53.6281 34.6336C53.8837 34.4122 53.9233 34.5763 54.106 34.2064C54.2818 33.8506 54.3654 33.8835 54.4665 33.6477C54.6047 33.3254 54.7415 33.4495 54.7938 33.2826C54.9412 32.8111 54.7657 32.6497 54.566 32.3594C54.4946 32.2556 54.4717 32.2659 54.4039 32.1243C54.31 31.9279 54.2931 31.7474 54.0464 31.6841C54.0751 31.0271 53.6951 31.4119 54.2491 30.4749C54.4227 30.1814 54.406 30.1952 54.478 29.8301C54.5247 29.5934 54.6387 29.375 54.6687 29.1401C54.5781 29.1001 54.5923 29.071 54.487 29.0595C54.4011 29.0502 54.306 29.0737 54.2153 29.0611C53.9794 29.0282 54.1554 28.9977 53.7359 28.988C53.6302 28.8455 53.6594 28.807 53.4207 28.7826C53.2418 28.7643 53.0467 28.7333 52.867 28.7312L52.7195 28.9357C52.6191 28.8946 52.6406 28.8767 52.5361 28.8336C52.1891 29.0508 52.143 29.0374 51.8123 28.8604C51.6183 28.7565 51.0269 28.1226 50.8099 27.9331C50.7146 27.8501 50.3354 27.5795 50.2111 27.5416C49.1583 27.2213 48.2524 27.0385 47.2614 26.6369C47.0281 26.5423 46.8048 26.4195 46.5245 26.4036C45.5388 26.3477 44.5798 26.1253 43.5833 26.1368C43.0056 26.1435 39.0619 26.1919 38.6527 26.3423C38.1355 26.5323 37.6214 26.7327 37.0981 26.8939C36.3619 27.1208 34.7256 27.0109 34.2574 27.1651C34.1539 27.1992 34.0239 27.2969 33.9048 27.3491C33.7851 27.4015 33.6388 27.4541 33.5201 27.4999C33.1812 27.6306 32.9431 27.695 32.7239 27.9112C32.4813 28.1502 32.3748 28.0371 32.1647 28.2794C31.999 28.4705 31.8064 28.6749 31.6353 28.854C31.3253 29.1783 31.099 29.3139 30.7472 29.5738C30.3288 29.8829 30.5484 29.8633 29.9491 30.3979L29.1211 31.1371L29.1503 31.3534C29.1503 31.3534 29.2237 31.3696 29.2359 31.439C29.2481 31.5082 29.4356 31.439 29.4356 31.439L29.7288 31.5408L29.8872 31.7608L30.177 31.7693L30.1764 31.7692Z" fill="#FFCC00"/>
<path fill-rule="evenodd" clip-rule="evenodd" d="M38.6788 36.6918C38.7 36.7418 38.7238 36.7811 38.7214 36.8752C38.7145 37.1424 38.6586 37.4506 38.6657 37.7115C38.6693 37.8462 38.7079 37.8848 38.6964 38.0485C38.6865 38.1877 38.6742 38.33 38.6616 38.4694C38.6311 38.8046 38.6737 38.8554 38.7693 39.1164C39.0062 39.7623 38.8543 39.9071 38.7992 40.6233C38.7739 40.9501 38.9362 40.9831 39.0089 41.1763C39.0738 41.3489 38.9416 41.7545 38.9895 41.9464C39.0076 42.0189 39.0883 42.1198 39.1253 42.1983L39.4308 43.0738C39.4628 43.2242 39.5625 43.5724 39.5572 43.706C39.5523 43.835 39.5129 43.9992 39.5114 44.1235C39.5092 44.3167 39.6199 44.2307 39.6136 44.4297C39.6102 44.536 39.5359 45.1751 39.5097 45.2607C39.4885 45.3298 39.1746 45.7072 39.1098 45.7857C38.9216 46.0129 38.7993 46.0753 38.9625 46.3425C39.1042 46.5744 39.1368 46.6042 39.5022 46.6053C41.9785 46.6122 40.7857 46.6943 41.6374 46.9799C41.8361 47.0466 42.0521 47.1209 42.2705 47.1623C42.4918 47.2041 42.6514 47.2758 42.7783 47.4594C42.8751 47.5993 42.8067 47.9634 42.8645 48.156C42.8937 48.253 43.0658 48.6016 43.1337 48.6664C43.2646 48.7912 43.448 48.8999 43.5908 49.008C43.8089 49.1731 43.8413 49.1538 43.9603 49.4269C44.0402 49.6101 44.1261 49.7808 44.2136 49.9759C44.2679 50.0971 44.3142 50.1166 44.298 50.2756C44.2586 50.6628 44.3812 50.4537 44.3047 51.0058C44.2716 51.2441 44.2725 51.1704 44.1781 51.3544C44.0989 51.5085 44.0818 51.9869 44.0617 52.1797C44.0067 52.7088 43.9266 52.8129 44.092 52.9286C44.1963 52.8859 44.1976 52.8417 44.2836 52.8043C44.5825 52.6738 44.6439 52.8299 44.943 52.5039C44.9891 52.4534 45.1603 52.1992 45.1842 52.1494C45.2599 51.6146 45.2166 51.4131 45.3336 51.0722C45.3601 50.995 45.4091 50.9275 45.4369 50.8439C45.467 50.7532 45.4737 50.6563 45.5069 50.5656C45.6112 50.2806 45.961 49.9982 46.1389 49.8661C46.2833 49.7588 46.6137 49.7431 46.7914 49.7168C46.9534 49.6929 47.1055 49.6184 47.2876 49.579C47.5678 49.5182 48.2574 49.2406 48.5392 49.0586C48.6533 48.9849 48.6073 48.9753 48.7013 48.8916C49.0627 48.5697 49.3398 48.7088 49.4866 48.0084C49.4081 47.9466 49.353 47.9535 49.3302 47.828C49.0846 46.4725 50.0049 46.5453 50.1997 46.144C50.2946 45.9485 50.4407 45.4894 50.5888 45.3475C50.6783 45.2618 50.6887 45.2657 50.777 45.148C51.079 44.7448 51.0513 45.1003 51.4478 44.6698C51.5564 44.5517 51.5662 44.5722 51.5842 44.3653C51.3162 44.1617 51.5002 44.1741 51.3992 43.9339C51.3456 43.8066 51.1588 43.7066 51.1228 43.5778C50.9976 43.1286 50.817 43.5237 50.5941 43.1512C50.5424 43.0649 50.4937 43.0495 50.4968 42.9428C50.4992 42.8623 50.6498 42.4367 50.6788 42.398C50.8111 42.2213 51.1198 42.0193 51.1535 41.8002C51.1697 41.695 51.1772 41.5702 51.1889 41.4626L51.3369 40.1191C51.3651 39.8391 51.408 39.8103 51.5225 39.5754C51.7602 39.0875 51.7847 39.0472 51.9382 38.5226C52.1117 37.9302 52.1796 37.3315 51.9434 36.8221C51.8228 36.562 51.8465 36.6064 51.8854 36.2639C52.1559 36.0449 52.5582 35.894 52.8769 35.618C53.1117 35.4146 53.1481 35.5653 53.316 35.2254C53.3653 35.1254 53.4069 35.0589 53.4433 35.0084C49.2697 35.8048 43.0702 36.9371 42.6868 36.9371C42.4847 36.9371 40.7873 36.8298 38.6788 36.6912V36.6918Z" fill="#FFCC00"/>
<mask id="mask0_580_6776" style="mask-type:luminance" maskUnits="userSpaceOnUse" x="38" y="35" width="16" height="18">
<path d="M38.6793 36.6918C38.7005 36.7418 38.7242 36.7811 38.7219 36.8752C38.715 37.1424 38.6591 37.4506 38.6662 37.7115C38.6698 37.8462 38.7084 37.8848 38.6968 38.0485C38.687 38.1877 38.6747 38.33 38.662 38.4694C38.6316 38.8046 38.6742 38.8554 38.7698 39.1164C39.0067 39.7623 38.8548 39.9071 38.7996 40.6233C38.7744 40.9501 38.9366 40.9831 39.0094 41.1763C39.0742 41.3489 38.9421 41.7545 38.99 41.9464C39.0081 42.0189 39.0888 42.1198 39.1258 42.1983L39.4313 43.0738C39.4633 43.2242 39.5629 43.5724 39.5577 43.706C39.5528 43.835 39.5134 43.9992 39.5119 44.1235C39.5097 44.3167 39.6204 44.2307 39.6141 44.4297C39.6107 44.536 39.5364 45.1751 39.5102 45.2607C39.489 45.3298 39.1751 45.7072 39.1103 45.7857C38.9221 46.0129 38.7998 46.0753 38.9629 46.3425C39.1047 46.5744 39.1373 46.6042 39.5027 46.6053C41.979 46.6122 40.7862 46.6943 41.6379 46.9799C41.8366 47.0466 42.0526 47.1209 42.271 47.1623C42.4923 47.2041 42.6519 47.2758 42.7788 47.4594C42.8755 47.5993 42.8072 47.9634 42.865 48.156C42.8942 48.253 43.0662 48.6016 43.1341 48.6664C43.2651 48.7912 43.4485 48.8999 43.5913 49.008C43.8094 49.1731 43.8418 49.1538 43.9608 49.4269C44.0407 49.6101 44.1266 49.7808 44.2141 49.9759C44.2684 50.0971 44.3147 50.1166 44.2985 50.2756C44.2591 50.6628 44.3816 50.4537 44.3051 51.0058C44.272 51.2441 44.273 51.1704 44.1786 51.3544C44.0994 51.5085 44.0823 51.9869 44.0622 52.1797C44.0071 52.7088 43.9271 52.8129 44.0925 52.9286C44.1968 52.8859 44.1981 52.8417 44.284 52.8043C44.583 52.6738 44.6444 52.8299 44.9434 52.5039C44.9896 52.4534 45.1608 52.1992 45.1847 52.1494C45.2603 51.6146 45.2171 51.4131 45.3341 51.0722C45.3606 50.995 45.4096 50.9275 45.4373 50.8439C45.4675 50.7532 45.4742 50.6563 45.5074 50.5656C45.6117 50.2806 45.9614 49.9982 46.1394 49.8661C46.2838 49.7588 46.6142 49.7431 46.7919 49.7168C46.9539 49.6929 47.106 49.6184 47.2881 49.579C47.5683 49.5182 48.2579 49.2406 48.5397 49.0586C48.6538 48.9849 48.6077 48.9753 48.7018 48.8916C49.0632 48.5697 49.3402 48.7088 49.4871 48.0084C49.4086 47.9466 49.3535 47.9535 49.3307 47.828C49.085 46.4725 50.0053 46.5453 50.2002 46.144C50.2951 45.9485 50.4412 45.4894 50.5893 45.3475C50.6788 45.2618 50.6892 45.2657 50.7775 45.148C51.0795 44.7448 51.0518 45.1003 51.4483 44.6698C51.5569 44.5517 51.5667 44.5722 51.5847 44.3653C51.3167 44.1617 51.5006 44.1741 51.3997 43.9339C51.3461 43.8066 51.1592 43.7066 51.1232 43.5778C50.9981 43.1286 50.8175 43.5237 50.5945 43.1512C50.5429 43.0649 50.4942 43.0495 50.4973 42.9428C50.4997 42.8623 50.6503 42.4367 50.6793 42.398C50.8115 42.2213 51.1203 42.0193 51.154 41.8002C51.1702 41.695 51.1777 41.5702 51.1894 41.4626L51.3373 40.1191C51.3656 39.8391 51.4085 39.8103 51.5229 39.5754C51.7607 39.0875 51.7852 39.0472 51.9387 38.5226C52.1121 37.9302 52.18 37.3315 51.9439 36.8221C51.8232 36.562 51.847 36.6064 51.8859 36.2639C52.1564 36.0449 52.5587 35.894 52.8774 35.618C53.1122 35.4146 53.1486 35.5653 53.3165 35.2254C53.3658 35.1254 53.4074 35.0589 53.4438 35.0084C49.2702 35.8048 43.0707 36.9371 42.6873 36.9371C42.4852 36.9371 40.7878 36.8298 38.6793 36.6912V36.6918Z" fill="white"/>
</mask>
<g mask="url(#mask0_580_6776)">
<path d="M46 43.5618C46.7219 43.5618 47.3072 43.0038 47.3072 42.3155C47.3072 41.6272 46.7219 41.0692 46 41.0692C45.2781 41.0692 44.6929 41.6272 44.6929 42.3155C44.6929 43.0038 45.2781 43.5618 46 43.5618Z" fill="black"/>
<path d="M41.7432 42.8253C42.7446 42.8253 43.5563 42.0513 43.5563 41.0966C43.5563 40.1419 42.7446 39.3679 41.7432 39.3679C40.7419 39.3679 39.9302 40.1419 39.9302 41.0966C39.9302 42.0513 40.7419 42.8253 41.7432 42.8253Z" fill="black"/>
<path d="M50.05 45.1997C50.6181 45.1997 51.0786 44.7607 51.0786 44.2191C51.0786 43.6775 50.6181 43.2384 50.05 43.2384C49.482 43.2384 49.0215 43.6775 49.0215 44.2191C49.0215 44.7607 49.482 45.1997 50.05 45.1997Z" fill="black"/>
<path fill-rule="evenodd" clip-rule="evenodd" d="M41.5335 43.2012C42.3532 43.2012 43.0919 43.7055 43.6115 44.5124C41.8134 46.0525 42.148 48.3681 42.3298 51.3313C42.0771 51.4382 41.8099 51.4958 41.5335 51.4958C39.9603 51.4958 38.6851 49.639 38.6851 47.3485C38.6851 45.058 39.9603 43.2012 41.5335 43.2012Z" fill="black"/>
<path d="M50.0325 53.7286C51.6056 53.7286 52.8809 51.8718 52.8809 49.5813C52.8809 47.2908 51.6056 45.434 50.0325 45.434C48.4594 45.434 47.1841 47.2908 47.1841 49.5813C47.1841 51.8718 48.4594 53.7286 50.0325 53.7286Z" fill="black"/>
<path d="M45.7863 52.7306C47.4769 52.7306 48.8474 50.7351 48.8474 48.2735C48.8474 45.8118 47.4769 43.8163 45.7863 43.8163C44.0956 43.8163 42.7251 45.8118 42.7251 48.2735C42.7251 50.7351 44.0956 52.7306 45.7863 52.7306Z" fill="black"/>
<path d="M44.8376 56.3087C47.2278 56.3087 49.1654 55.1989 49.1654 53.8298C49.1654 52.4608 47.2278 51.351 44.8376 51.351C42.4474 51.351 40.5098 52.4608 40.5098 53.8298C40.5098 55.1989 42.4474 56.3087 44.8376 56.3087Z" fill="black"/>
</g>
</svg>
