<?xml version="1.0" standalone="no"?>
<!DOCTYPE svg PUBLIC "-//W3C//DTD SVG 20010904//EN"
 "http://www.w3.org/TR/2001/REC-SVG-20010904/DTD/svg10.dtd">
<svg version="1.0" xmlns="http://www.w3.org/2000/svg"
 width="928.000000pt" height="928.000000pt" viewBox="0 0 928.000000 928.000000"
 preserveAspectRatio="xMidYMid meet">
<metadata>
Created by potrace 1.14, written by Peter Selinger 2001-2017
</metadata>
<g transform="translate(0.000000,928.000000) scale(0.100000,-0.100000)"
fill="#000000" stroke="none">
<path d="M7908 8795 c-2 -2 -17 -6 -33 -9 -17 -2 -30 -5 -30 -6 0 -1 -11 -3
-25 -5 -14 -2 -74 -15 -135 -30 -60 -15 -121 -29 -135 -31 -14 -3 -43 -10 -65
-16 -22 -5 -51 -12 -65 -14 -14 -3 -33 -7 -42 -10 -9 -3 -26 -7 -37 -9 -36 -8
-53 -12 -143 -34 -48 -11 -98 -23 -110 -25 -24 -6 -81 -19 -238 -55 -52 -13
-102 -24 -110 -26 -8 -2 -55 -13 -105 -25 -49 -12 -97 -23 -105 -25 -8 -2 -54
-12 -102 -24 -48 -11 -98 -23 -110 -25 -47 -10 -70 -15 -86 -20 -16 -5 -27 -7
-97 -21 -16 -3 -39 -9 -50 -12 -28 -9 -52 -15 -110 -27 -11 -2 -40 -9 -65 -16
-25 -7 -54 -14 -65 -15 -11 -1 -20 -4 -20 -5 0 -1 -14 -3 -31 -5 -17 -1 -35
-5 -40 -8 -10 -6 -261 -67 -299 -72 -11 -2 -20 -4 -20 -5 0 -2 -13 -5 -52 -14
-50 -11 -157 -73 -206 -120 -67 -64 -115 -146 -172 -292 -25 -63 -45 -117 -45
-120 0 -16 -102 -229 -111 -232 -5 -2 -9 -9 -9 -16 0 -10 -58 -95 -104 -153
-1 -1 -13 -4 -26 -7 -14 -2 -101 -21 -195 -41 -93 -20 -179 -38 -190 -39 -11
-2 -27 -6 -35 -9 -8 -3 -28 -8 -45 -10 -16 -3 -48 -9 -70 -15 -22 -6 -57 -13
-78 -16 -21 -4 -47 -10 -56 -16 -10 -5 -21 -7 -23 -4 -3 2 -32 -2 -64 -10 -32
-9 -70 -17 -84 -20 -14 -2 -70 -14 -125 -26 -55 -12 -111 -24 -125 -26 -22 -5
-78 -17 -135 -30 -22 -5 -53 -12 -87 -18 -13 -2 -45 -10 -73 -16 -27 -6 -61
-14 -74 -16 -12 -3 -51 -11 -85 -19 -33 -8 -72 -16 -86 -19 -14 -2 -45 -9 -70
-15 -25 -5 -60 -13 -79 -16 -19 -3 -37 -8 -40 -10 -4 -2 -25 -6 -47 -9 -23 -4
-56 -11 -74 -16 -19 -5 -36 -8 -38 -5 -3 2 -12 0 -21 -4 -9 -5 -29 -11 -46
-14 -49 -9 -86 -17 -175 -38 -47 -10 -98 -21 -115 -24 -31 -5 -76 -14 -210
-46 -44 -10 -96 -21 -115 -24 -19 -3 -55 -11 -80 -16 -25 -6 -54 -12 -65 -15
-19 -3 -29 -6 -95 -20 -24 -5 -57 -12 -90 -19 -8 -2 -17 -4 -20 -5 -3 -1 -8
-2 -12 -1 -3 0 -30 -6 -60 -13 -29 -8 -69 -17 -88 -20 -19 -3 -49 -10 -67 -15
-17 -5 -34 -7 -37 -3 -3 3 -6 1 -6 -4 0 -5 -10 -9 -22 -10 -13 0 -34 -4 -48
-7 -14 -3 -36 -9 -50 -12 -14 -3 -41 -8 -60 -11 -19 -3 -53 -10 -75 -15 -22
-6 -49 -13 -60 -15 -11 -2 -29 -6 -40 -8 -87 -19 -182 -39 -239 -51 -15 -3
-58 -13 -95 -21 -36 -9 -77 -17 -91 -19 -14 -2 -47 -9 -75 -15 -27 -7 -59 -14
-70 -16 -11 -2 -31 -6 -45 -9 -14 -4 -36 -8 -50 -11 -14 -3 -41 -9 -60 -14
-19 -5 -50 -12 -69 -15 -86 -15 -205 -104 -240 -180 -7 -16 -18 -39 -24 -50
-13 -26 -18 -153 -8 -196 15 -60 41 -173 44 -194 1 -11 6 -26 10 -32 5 -7 6
-13 4 -13 -3 0 -1 -17 5 -37 5 -21 11 -47 13 -58 11 -58 16 -77 25 -99 5 -13
7 -26 4 -29 -2 -2 0 -16 6 -31 5 -15 12 -41 15 -59 3 -18 13 -61 21 -97 8 -36
20 -85 25 -110 6 -25 12 -52 14 -60 2 -12 63 -285 82 -365 2 -11 6 -31 9 -44
3 -12 12 -53 20 -90 9 -36 18 -75 20 -86 2 -11 6 -29 9 -40 21 -88 32 -151 28
-157 -2 -5 0 -8 5 -8 5 0 12 -17 15 -37 3 -21 8 -49 11 -63 6 -30 35 -154 43
-190 3 -14 7 -30 9 -36 1 -7 10 -45 19 -85 9 -41 19 -83 21 -94 2 -11 6 -31 9
-45 4 -14 8 -36 11 -50 3 -14 7 -29 8 -35 2 -5 6 -21 9 -35 12 -49 58 -255 62
-280 3 -14 12 -54 20 -90 18 -77 25 -107 40 -175 3 -11 7 -30 10 -42 3 -13 7
-33 10 -45 2 -13 9 -44 15 -69 6 -26 13 -53 14 -60 2 -8 6 -25 9 -39 4 -14 9
-36 11 -50 2 -14 9 -45 16 -70 7 -25 14 -54 15 -65 3 -18 6 -31 19 -90 3 -11
11 -49 19 -85 8 -36 25 -108 37 -160 12 -52 23 -104 25 -115 2 -11 8 -38 13
-60 6 -22 13 -51 16 -65 3 -14 14 -65 26 -115 11 -49 22 -101 25 -115 3 -14
10 -45 15 -70 6 -25 12 -55 15 -68 2 -12 7 -26 10 -32 3 -5 8 -24 10 -42 2
-18 11 -60 19 -93 8 -33 15 -61 15 -63 0 -1 3 -12 6 -25 3 -12 7 -33 9 -47 2
-14 9 -43 14 -65 6 -22 13 -51 16 -65 3 -14 10 -43 15 -65 5 -22 14 -62 20
-90 6 -27 13 -61 16 -75 8 -33 14 -60 19 -85 2 -11 9 -38 14 -60 6 -22 13 -53
15 -70 35 -221 240 -368 433 -310 24 7 44 11 44 9 0 -2 11 1 25 6 14 5 37 12
51 14 14 3 51 12 82 21 31 10 65 19 74 21 10 2 26 6 35 8 10 2 45 11 78 20 33
9 67 18 75 20 8 2 70 18 137 36 67 17 130 33 140 35 10 2 39 11 66 19 26 8 49
15 52 16 3 0 6 0 8 1 1 0 9 2 17 4 35 7 146 36 160 42 8 3 22 7 30 8 8 1 87
21 175 44 88 24 203 54 255 68 52 13 120 31 150 39 30 8 62 16 70 18 8 2 112
30 230 61 118 32 220 58 225 60 18 4 69 17 180 47 61 16 117 31 125 33 20 4
102 25 115 29 48 14 94 26 115 30 14 2 46 11 73 19 26 8 47 13 47 11 0 -3 8 0
18 5 11 6 30 12 43 14 13 3 44 10 69 17 25 7 46 12 47 12 2 -1 17 4 35 9 18 6
44 13 58 16 37 7 43 9 60 16 8 4 24 8 35 10 11 2 40 9 65 16 43 13 54 15 101
26 12 2 36 9 54 15 18 6 42 12 54 15 12 2 55 13 95 24 40 11 83 22 97 25 13 3
58 15 99 26 41 11 82 22 90 24 8 2 51 14 95 25 44 12 87 23 95 25 8 2 44 12
80 21 36 9 72 18 80 20 8 2 76 20 150 40 74 20 144 38 155 40 11 2 21 4 23 6
1 1 5 2 10 3 4 2 25 8 47 14 22 6 49 13 60 15 11 2 40 9 65 16 25 7 52 15 60
17 8 2 60 15 115 30 55 14 105 27 110 28 6 1 16 5 23 9 6 5 12 6 12 3 0 -2 15
0 33 5 44 13 364 98 390 104 12 2 47 11 77 20 30 9 62 17 71 19 8 3 60 16 115
30 54 15 108 28 119 30 11 2 32 9 48 15 15 6 27 8 27 6 0 -2 12 0 28 6 15 6
34 12 42 14 8 2 53 13 100 25 107 27 106 27 160 40 25 6 52 13 60 17 8 3 24 8
35 10 11 2 53 13 93 24 40 11 81 22 90 24 9 2 41 11 70 19 29 8 53 14 55 14 1
0 22 6 47 13 25 7 50 13 55 14 6 1 12 3 15 4 7 3 30 9 65 16 30 6 88 22 115
32 8 3 22 7 30 8 8 1 42 10 75 19 33 9 71 19 85 22 14 2 81 20 150 40 69 20
134 37 145 38 47 5 143 70 186 126 55 71 74 131 73 235 0 50 -3 113 -7 140
-18 143 -29 216 -33 240 -2 11 -6 41 -9 68 -3 26 -7 58 -10 70 -2 12 -7 42
-10 67 -3 25 -7 59 -10 75 -13 76 -15 93 -21 135 -3 25 -7 59 -9 75 -1 17 -5
46 -8 65 -11 59 -24 152 -32 220 -3 25 -7 56 -10 70 -2 14 -7 43 -10 65 -2 22
-8 58 -12 80 -3 22 -7 51 -8 65 -2 14 -4 27 -5 30 -1 3 -2 8 -2 11 1 3 -3 35
-9 70 -5 35 -12 84 -15 109 -3 25 -7 56 -10 70 -3 14 -7 47 -9 74 -3 26 -7 56
-9 65 -3 9 -8 39 -11 66 -3 28 -7 61 -10 75 -3 14 -8 50 -11 80 -3 30 -7 57
-9 60 -2 3 -6 34 -10 70 -4 36 -8 67 -10 70 -2 3 -6 34 -10 70 -4 36 -9 74
-11 85 -2 11 -7 40 -10 65 -3 25 -7 56 -9 70 -11 57 -18 116 -17 133 0 9 -2
17 -6 17 -4 0 -7 15 -7 33 -1 17 -4 57 -9 87 -4 30 -9 69 -11 85 -2 17 -5 44
-8 60 -15 84 -27 171 -32 230 -2 22 -5 40 -6 40 -1 0 -3 9 -4 20 -2 11 -6 43
-9 70 -6 45 -10 72 -21 140 -7 45 -16 113 -21 160 -3 28 -9 69 -15 92 -5 24
-9 46 -8 50 1 5 0 10 -1 13 -1 3 -3 16 -5 30 -7 69 -17 145 -20 150 -2 3 -6
34 -10 70 -4 36 -8 67 -10 70 -2 3 -6 30 -9 60 -9 78 -15 121 -21 150 -2 14
-7 45 -10 70 -3 25 -7 56 -9 70 -5 23 -10 66 -21 160 -3 19 -7 44 -9 55 -2 12
-7 48 -11 80 -4 33 -9 69 -11 80 -2 11 -7 40 -10 65 -3 25 -7 52 -9 60 -1 8
-6 40 -10 70 -4 30 -9 63 -11 74 -2 10 -6 44 -10 75 -3 31 -8 65 -10 76 -2 11
-6 43 -9 70 -3 28 -8 57 -10 65 -2 8 -7 40 -10 70 -4 30 -10 75 -15 100 -5 25
-12 56 -14 70 -8 40 -59 142 -86 174 -104 121 -227 174 -404 174 -46 0 -86 -1
-88 -3z m-471 -1328 c42 -28 71 -89 77 -163 3 -33 8 -81 11 -109 11 -96 15
-130 21 -200 3 -38 8 -86 11 -105 2 -19 6 -57 8 -85 3 -27 7 -68 9 -90 7 -54
18 -161 21 -210 2 -22 4 -40 5 -40 2 0 13 -126 13 -160 0 -33 -9 -91 -19 -121
-16 -47 -48 -114 -55 -114 -4 0 -10 -8 -13 -17 -7 -21 -64 -60 -98 -67 -13 -3
-50 -12 -83 -20 -33 -8 -94 -21 -135 -30 -41 -9 -156 -34 -255 -56 -99 -23
-191 -43 -205 -46 -23 -5 -85 -19 -135 -30 -11 -3 -29 -7 -40 -9 -11 -3 -81
-18 -155 -35 -74 -17 -144 -32 -155 -35 -11 -2 -33 -6 -50 -10 -16 -3 -36 -8
-44 -11 -8 -2 -30 -7 -49 -10 -20 -3 -45 -9 -56 -13 -12 -5 -29 -7 -38 -6 -10
2 -18 -1 -18 -7 0 -5 -6 -8 -12 -5 -7 2 -24 0 -37 -5 -13 -5 -40 -11 -60 -14
-20 -3 -43 -8 -51 -11 -8 -3 -24 -7 -35 -9 -11 -1 -92 -19 -180 -39 -88 -20
-167 -38 -175 -39 -8 -1 -28 -6 -45 -9 -16 -4 -39 -9 -50 -12 -11 -2 -92 -20
-180 -39 -88 -19 -173 -37 -190 -40 -16 -2 -39 -7 -50 -9 -86 -21 -121 -31
-129 -38 -6 -5 -15 -9 -22 -9 -6 0 -29 -8 -50 -17 -22 -9 -41 -17 -44 -17 -23
-3 -114 -72 -162 -121 -33 -35 -141 -212 -141 -232 0 -7 -3 -13 -7 -13 -4 0
-15 -19 -25 -42 -9 -24 -21 -52 -26 -63 -5 -11 -31 -73 -58 -139 -93 -222
-126 -253 -306 -291 -11 -2 -35 -8 -53 -14 -18 -5 -35 -10 -37 -10 -3 0 -18
-2 -33 -5 -15 -4 -37 -9 -49 -11 -43 -9 -58 -13 -98 -23 -22 -6 -51 -13 -65
-16 -26 -5 -308 -71 -431 -100 -9 -3 -33 -7 -54 -10 -20 -4 -41 -8 -45 -11 -3
-2 -22 -7 -41 -10 -31 -6 -60 -12 -66 -14 -2 -1 -4 -1 -5 -2 -13 -3 -129 -31
-148 -35 -14 -3 -52 -12 -85 -21 -33 -8 -69 -17 -80 -19 -11 -2 -31 -6 -45 -9
-14 -3 -34 -7 -45 -9 -11 -3 -60 -14 -110 -26 -49 -12 -98 -24 -108 -26 -10
-2 -26 -5 -35 -8 -9 -3 -28 -7 -42 -10 -14 -2 -65 -14 -115 -26 -49 -12 -97
-23 -105 -25 -8 -2 -35 -8 -60 -14 -123 -28 -160 -29 -213 -6 -41 17 -87 57
-106 92 -10 20 -62 224 -74 293 -3 14 -10 44 -16 66 -6 23 -16 64 -21 90 -13
64 -18 83 -40 179 -10 45 -21 92 -24 105 -2 14 -12 57 -21 95 -9 39 -19 81
-21 95 -3 14 -11 50 -19 80 -44 172 -38 239 26 308 39 42 108 74 154 73 2 0
19 5 37 10 18 6 44 12 58 15 14 3 72 16 130 30 58 14 114 28 125 30 11 3 29 7
40 8 11 2 43 9 70 16 80 19 84 20 106 25 11 2 28 6 37 9 9 3 28 7 42 10 14 2
63 14 110 25 47 11 96 22 110 24 14 3 43 10 65 15 22 6 51 13 65 16 14 3 52
12 85 20 33 8 63 12 67 10 5 -3 8 -1 8 4 0 5 6 9 13 9 6 0 56 10 110 22 54 13
104 24 110 25 7 2 30 8 52 14 22 6 51 13 65 16 14 2 68 14 120 26 52 12 104
24 115 26 11 2 67 15 125 29 58 14 114 27 125 30 11 2 38 9 60 14 22 5 41 8
43 6 3 -2 17 2 33 11 16 8 29 13 29 10 0 -2 23 2 52 9 28 8 55 12 60 9 4 -3 8
-1 8 3 0 5 12 10 28 11 15 1 41 6 57 12 17 5 41 11 55 14 14 3 34 7 45 10 62
15 163 37 180 41 11 2 70 16 130 31 61 15 116 27 122 27 23 0 39 31 103 192
64 162 163 375 200 430 11 17 24 40 30 53 14 32 141 157 181 177 18 10 47 21
63 26 28 8 235 56 279 65 10 2 26 5 35 8 9 3 28 7 42 10 14 2 57 12 95 21 39
9 81 19 95 21 14 3 34 8 45 11 11 3 29 7 40 9 11 2 29 5 40 8 11 3 79 18 150
34 72 16 193 44 270 62 77 17 148 33 158 35 10 2 26 6 35 9 9 3 28 7 42 10 14
2 57 12 95 21 39 9 79 19 90 21 84 16 132 27 145 32 20 7 60 16 125 27 11 2
20 4 20 5 0 1 11 4 25 6 14 3 63 14 110 25 47 12 96 23 110 25 14 3 31 7 38 9
8 3 37 8 65 11 29 4 54 8 55 9 7 6 88 -26 119 -48z m738 -2482 c31 -9 62 -27
81 -47 50 -53 51 -56 69 -228 2 -19 6 -57 9 -85 3 -27 8 -75 11 -105 3 -30 8
-75 10 -100 3 -25 7 -63 10 -85 2 -22 6 -60 9 -85 3 -25 8 -74 11 -110 3 -36
8 -83 10 -105 16 -137 19 -187 19 -241 0 -64 -28 -178 -51 -205 -7 -8 -13 -19
-13 -23 0 -4 -15 -23 -32 -42 -30 -31 -77 -52 -154 -69 -11 -2 -53 -11 -94
-20 -41 -9 -83 -18 -93 -20 -10 -2 -26 -6 -35 -9 -9 -3 -29 -7 -45 -10 -15 -3
-35 -7 -45 -10 -9 -3 -28 -7 -42 -10 -14 -2 -65 -14 -115 -26 -49 -11 -101
-23 -115 -25 -14 -2 -34 -6 -45 -9 -30 -7 -196 -44 -225 -50 -14 -2 -32 -7
-40 -10 -8 -3 -27 -8 -42 -11 -55 -10 -84 -16 -123 -26 -22 -5 -51 -12 -65
-15 -14 -3 -45 -10 -70 -15 -25 -6 -56 -13 -70 -16 -38 -8 -55 -11 -60 -13 -3
-1 -9 -3 -15 -4 -5 -1 -35 -7 -65 -14 -30 -7 -64 -14 -75 -16 -11 -3 -58 -14
-105 -25 -99 -23 -137 -31 -165 -36 -11 -2 -20 -4 -20 -5 0 -1 -11 -4 -25 -6
-14 -3 -84 -18 -156 -35 -73 -16 -140 -31 -150 -34 -52 -11 -171 -37 -189 -42
-11 -2 -29 -6 -40 -8 -11 -2 -20 -4 -20 -5 0 -2 -10 -4 -60 -14 -16 -3 -61
-13 -100 -21 -38 -9 -77 -18 -85 -20 -8 -2 -45 -10 -83 -19 -37 -9 -82 -18
-100 -21 -17 -3 -50 -11 -72 -17 -22 -6 -49 -13 -60 -15 -11 -2 -72 -15 -135
-29 -63 -14 -122 -27 -130 -29 -8 -2 -37 -9 -65 -15 -27 -6 -61 -14 -75 -16
-14 -3 -43 -10 -64 -15 -22 -6 -49 -12 -60 -14 -12 -1 -28 -5 -36 -8 -16 -5
-164 -38 -190 -41 -8 -2 -28 -6 -45 -9 -16 -4 -46 -9 -65 -12 -46 -8 -207 -50
-245 -65 -128 -49 -228 -124 -294 -222 -44 -65 -132 -244 -176 -356 -102 -265
-154 -323 -305 -347 -43 -7 -98 -16 -125 -21 -11 -3 -33 -7 -50 -9 -16 -3 -66
-13 -110 -21 -44 -8 -91 -17 -105 -19 -46 -7 -95 -15 -150 -27 -30 -6 -64 -12
-75 -14 -11 -1 -74 -12 -140 -24 -136 -25 -193 -26 -236 -5 -16 9 -29 12 -29
8 0 -4 -18 12 -40 36 -36 38 -59 90 -74 167 -3 11 -12 52 -21 93 -9 40 -19 80
-20 90 -2 9 -4 18 -5 21 -1 3 -3 10 -5 15 -1 6 -3 12 -4 15 -2 3 -4 16 -6 30
-1 14 -7 43 -13 65 -6 22 -13 51 -16 65 -2 14 -9 45 -15 70 -7 25 -14 56 -17
70 -3 13 -14 61 -24 105 -10 45 -26 115 -35 156 -9 41 -18 82 -21 92 -38 149
-38 194 -1 264 30 57 85 95 152 106 17 3 37 7 45 10 8 3 31 8 50 11 19 3 64
12 100 20 36 8 79 17 95 20 17 2 41 7 55 10 86 19 137 30 150 31 8 1 51 10 95
19 81 18 683 141 727 150 12 2 79 16 148 31 69 14 159 32 200 40 85 17 80 12
133 145 46 115 55 137 73 173 8 16 14 33 14 38 0 5 26 62 57 127 101 208 198
331 309 390 11 6 72 23 135 37 63 15 121 28 129 30 85 20 119 27 142 30 15 2
31 6 36 9 5 3 24 8 43 11 19 3 50 10 69 15 19 5 47 12 63 15 15 3 39 7 55 10
15 3 45 11 67 17 22 5 51 12 65 15 14 2 63 13 110 24 115 26 133 30 150 34 8
2 33 8 55 13 22 6 51 13 65 16 14 2 68 14 120 26 52 12 104 23 115 25 31 6
246 54 285 65 19 5 118 28 220 50 102 23 194 44 205 46 11 3 31 7 45 10 13 3
60 14 105 24 45 10 92 21 105 24 14 3 34 7 45 10 275 63 344 78 365 82 14 3
61 14 105 24 44 10 91 21 105 24 14 3 36 8 50 11 14 3 36 8 50 11 14 3 50 11
80 19 30 8 67 16 83 19 67 14 85 18 127 28 25 6 54 12 65 14 11 2 40 8 65 15
25 6 56 13 70 15 13 3 26 7 27 8 9 9 74 4 118 -9z"/>
</g>
</svg>
