<?xml version="1.0" standalone="no"?>
<!DOCTYPE svg PUBLIC "-//W3C//DTD SVG 20010904//EN"
 "http://www.w3.org/TR/2001/REC-SVG-20010904/DTD/svg10.dtd">
<svg version="1.0" xmlns="http://www.w3.org/2000/svg"
 width="864.000000pt" height="864.000000pt" viewBox="0 0 864.000000 864.000000"
 preserveAspectRatio="xMidYMid meet">
<metadata>
Created by potrace 1.14, written by Peter Selinger 2001-2017
</metadata>
<g transform="translate(0.000000,864.000000) scale(0.100000,-0.100000)"
fill="#000000" stroke="none">
<path d="M6059 8315 c-2 -1 -26 -5 -54 -9 -27 -3 -70 -8 -95 -11 -25 -3 -70
-12 -100 -21 -30 -8 -64 -17 -74 -19 -11 -3 -49 -15 -85 -27 -36 -12 -68 -23
-71 -23 -3 -1 -31 -13 -64 -28 -32 -15 -60 -27 -62 -27 -8 0 -129 -75 -132
-82 -2 -4 -8 -8 -13 -8 -9 0 -65 -36 -79 -50 -3 -3 -21 -17 -40 -31 -43 -33
-174 -161 -218 -214 -64 -79 -138 -192 -181 -277 -42 -84 -45 -87 -101 -103
-9 -2 -64 -15 -85 -20 -51 -11 -171 -48 -178 -55 -5 -4 -17 -5 -27 -3 -18 5
-18 7 -3 47 9 22 25 52 35 65 10 13 18 34 18 46 0 26 -30 56 -56 56 -29 1 -78
-11 -84 -20 -3 -5 -19 -15 -36 -24 -34 -17 -114 -101 -141 -148 -14 -23 -23
-28 -43 -25 -14 2 -26 5 -27 6 -2 2 -7 3 -12 4 -5 0 -13 4 -17 9 -4 4 -17 7
-29 7 -12 0 -25 3 -29 7 -3 4 -13 8 -21 9 -7 1 -30 7 -49 14 -31 10 -37 18
-56 78 -26 81 -106 246 -127 261 -4 3 -21 26 -38 50 -57 84 -211 228 -300 281
-22 13 -42 26 -45 29 -3 4 -14 11 -25 17 -11 6 -40 22 -65 36 -74 40 -258 113
-340 133 -194 49 -314 63 -509 60 -86 -1 -178 -6 -206 -9 -90 -13 -188 -30
-256 -46 -26 -6 -53 -13 -60 -14 -8 -2 -21 -6 -29 -9 -12 -4 -179 -57 -200
-62 -72 -20 -381 -170 -416 -202 -27 -25 -30 -59 -9 -87 10 -14 26 -18 61 -18
l47 1 -31 -17 c-88 -48 -230 -159 -338 -267 -144 -144 -212 -235 -282 -380
-58 -119 -66 -141 -103 -285 -19 -75 -7 -125 32 -130 33 -5 49 2 82 35 19 19
37 35 40 35 5 0 -12 -62 -30 -110 -7 -19 -8 -21 -27 -100 -17 -73 -29 -144
-29 -177 -1 -13 -4 -23 -8 -23 -3 0 -3 -18 1 -40 4 -22 4 -40 1 -40 -14 0 0
-246 19 -340 6 -30 13 -66 16 -79 3 -13 9 -32 15 -43 5 -10 7 -18 4 -18 -2 0
5 -26 16 -57 40 -114 50 -132 81 -142 26 -9 33 -7 57 17 22 22 26 36 25 75 0
26 2 44 5 41 3 -3 6 -9 6 -12 1 -4 4 -24 8 -44 5 -21 8 -40 8 -43 0 -2 11 -34
24 -70 13 -36 22 -65 20 -65 -2 0 12 -32 31 -70 19 -39 34 -75 34 -80 0 -6 5
-10 10 -10 6 0 10 -5 10 -11 0 -10 47 -82 80 -123 44 -55 88 -94 111 -99 35
-9 80 33 73 68 -4 21 3 17 48 -26 41 -39 52 -56 50 -75 -2 -14 1 -31 7 -38 8
-9 -5 -25 -49 -64 -33 -29 -79 -78 -103 -110 -76 -99 -93 -147 -62 -178 13
-14 11 -20 -19 -57 -55 -68 -96 -139 -96 -167 0 -18 9 -31 29 -43 15 -9 31
-13 35 -10 4 4 5 1 2 -7 -3 -8 -7 -26 -10 -40 -2 -14 -9 -47 -15 -73 -6 -27
-14 -72 -18 -100 -8 -64 -7 -315 2 -377 3 -25 8 -65 10 -90 4 -42 6 -55 21
-112 3 -13 7 -34 10 -48 2 -14 7 -32 11 -40 3 -8 7 -19 9 -25 20 -66 55 -140
110 -227 38 -60 142 -165 171 -173 37 -9 77 22 78 61 1 42 25 95 58 127 63 63
-151 58 2740 58 1453 0 2651 -2 2662 -5 62 -13 128 -80 139 -141 3 -16 8 -41
11 -55 5 -28 38 -60 58 -56 32 7 56 24 105 75 57 59 112 133 112 149 0 6 3 12
8 14 10 4 65 119 78 163 15 50 43 169 49 205 3 25 8 56 10 70 3 14 7 71 9 128
3 57 7 106 9 110 3 4 1 16 -3 27 -4 11 -4 30 1 41 4 12 5 25 2 28 -4 3 -7 25
-9 49 -2 51 -12 119 -25 172 -20 83 -20 85 -2 92 25 9 42 34 43 60 0 25 -53
113 -100 166 -28 33 -29 35 -12 58 9 13 15 33 13 43 -6 40 -75 133 -157 213
-47 46 -79 85 -73 89 6 3 9 19 7 35 -2 23 7 38 50 79 29 28 52 45 51 38 -7
-58 28 -96 73 -79 46 17 198 199 198 237 0 7 6 19 14 26 18 18 92 217 107 288
16 73 26 82 27 24 2 -74 49 -110 96 -73 39 31 111 257 131 413 3 27 8 53 11
57 2 4 0 10 -6 14 -6 4 -7 12 -3 18 9 14 12 197 3 197 -3 0 -5 15 -4 33 5 72
-39 272 -94 427 -3 8 12 -2 33 -23 20 -21 47 -42 59 -46 27 -10 64 6 72 32 8
25 -7 134 -25 172 -5 11 -14 39 -20 62 -11 41 -71 172 -111 243 -20 35 -28 48
-75 106 -14 18 -25 35 -25 38 0 4 -10 17 -22 30 -13 12 -46 47 -73 78 -46 49
-212 194 -261 226 -126 83 -138 93 -114 91 64 -4 90 14 90 62 0 25 -9 35 -55
64 -30 19 -61 35 -70 35 -8 0 -15 4 -15 8 0 7 -106 61 -130 66 -3 1 -12 6 -20
11 -8 5 -19 10 -25 11 -9 2 -117 45 -195 77 -14 6 -29 11 -35 12 -5 2 -41 12
-80 23 -38 11 -90 24 -115 30 -47 11 -101 24 -110 27 -3 0 -32 5 -65 9 -32 4
-68 10 -80 13 -24 5 -371 13 -376 8z"/>
<path d="M1834 3318 c-108 -16 -195 -80 -242 -177 -23 -49 -26 -68 -25 -146 0
-49 4 -110 7 -135 3 -25 8 -71 11 -102 3 -31 7 -78 9 -103 l5 -46 -32 6 c-97
18 -321 1 -355 -27 -8 -7 -18 -12 -21 -10 -12 6 -97 -32 -141 -62 -70 -48
-147 -125 -188 -186 -37 -57 -97 -186 -106 -230 -3 -14 -7 -35 -10 -47 -31
-124 -36 -175 -36 -343 1 -128 3 -169 13 -215 2 -11 8 -42 12 -69 8 -58 49
-175 76 -220 10 -17 24 -42 31 -56 13 -25 38 -56 90 -110 30 -32 127 -99 173
-119 102 -46 224 -69 353 -66 93 2 199 13 214 21 11 7 16 -8 22 -71 8 -77 25
-219 32 -269 11 -77 52 -137 129 -189 l40 -27 2238 0 c1895 0 2238 2 2243 14
3 7 24 17 47 21 23 5 44 9 47 9 20 5 100 49 100 56 0 23 44 17 120 -15 45 -19
127 -47 181 -61 94 -24 108 -25 326 -21 125 2 235 6 243 9 14 4 64 25 115 49
21 9 45 24 79 49 31 22 136 129 136 138 0 5 9 18 20 30 12 12 18 22 14 22 -3
0 0 7 7 16 7 9 20 33 27 53 33 87 51 142 56 173 3 18 8 44 11 58 21 104 22
331 1 475 -21 144 -95 335 -159 413 -43 51 -136 138 -164 152 -15 8 -30 18
-33 21 -9 10 -143 61 -175 66 -16 3 -37 8 -45 13 -19 9 -251 6 -308 -5 l-43
-8 6 31 c2 16 7 58 10 93 2 35 7 75 9 89 3 14 7 54 11 89 3 36 8 79 10 95 2
17 7 58 10 91 4 33 8 74 10 90 2 17 6 57 9 90 3 33 8 71 10 85 4 26 15 134 20
205 5 63 -30 156 -81 214 -24 28 -50 51 -58 51 -7 0 -18 6 -24 14 -6 7 -26 17
-44 21 -17 4 -39 9 -47 12 -26 7 -4945 8 -4996 1z"/>
</g>
</svg>
