<?xml version="1.0" standalone="no"?>
<!DOCTYPE svg PUBLIC "-//W3C//DTD SVG 20010904//EN"
 "http://www.w3.org/TR/2001/REC-SVG-20010904/DTD/svg10.dtd">
<svg version="1.0" xmlns="http://www.w3.org/2000/svg"
 width="77.000000pt" height="77.000000pt" viewBox="0 0 77.000000 77.000000"
 preserveAspectRatio="xMidYMid meet">
<metadata>
Created by potrace 1.14, written by Peter Selinger 2001-2017
</metadata>
<g transform="translate(0.000000,77.000000) scale(0.100000,-0.100000)"
fill="#000000" stroke="none">
<path d="M16 754 c-20 -20 -23 -162 -3 -186 9 -12 35 -17 97 -20 100 -5 133
-22 151 -76 15 -45 15 -144 0 -180 -22 -50 -57 -67 -151 -71 -47 -1 -91 -8
-97 -13 -9 -7 -13 -39 -13 -94 0 -108 6 -114 109 -114 97 0 105 8 107 99 1
137 40 178 169 175 97 -1 105 7 105 111 0 104 -5 109 -118 112 -76 2 -89 5
-112 28 -34 33 -46 75 -44 150 2 85 -9 95 -107 95 -57 0 -82 -4 -93 -16z"/>
<path d="M286 754 c-20 -20 -23 -176 -3 -192 6 -6 50 -12 97 -15 49 -2 95 -10
108 -18 34 -21 55 -76 56 -144 1 -120 -48 -165 -177 -165 -44 0 -78 -5 -85
-12 -7 -7 -12 -44 -12 -94 0 -108 6 -114 109 -114 98 0 104 6 107 111 4 92 27
142 72 155 15 4 59 8 98 8 97 1 104 8 104 111 0 104 -6 110 -112 111 -128 2
-159 33 -162 164 -2 104 -8 110 -107 110 -57 0 -82 -4 -93 -16z"/>
</g>
</svg>
