<?xml version="1.0" standalone="no"?>
<!DOCTYPE svg PUBLIC "-//W3C//DTD SVG 20010904//EN"
 "http://www.w3.org/TR/2001/REC-SVG-20010904/DTD/svg10.dtd">
<svg version="1.0" xmlns="http://www.w3.org/2000/svg"
 width="608.000000pt" height="608.000000pt" viewBox="0 0 608.000000 608.000000"
 preserveAspectRatio="xMidYMid meet">
<metadata>
Created by potrace 1.14, written by Peter Selinger 2001-2017
</metadata>
<g transform="translate(0.000000,608.000000) scale(0.100000,-0.100000)"
fill="#000000" stroke="none">
<path d="M2069 5395 c-3 -2 -24 -5 -47 -6 -24 -2 -45 -6 -48 -10 -2 -4 -14 -5
-26 -1 -16 4 -19 2 -13 -8 6 -9 4 -11 -4 -6 -15 10 -83 -2 -77 -13 3 -4 -5 -7
-17 -6 -12 1 -28 -2 -34 -8 -7 -5 -13 -6 -13 -2 0 4 -6 2 -13 -4 -8 -6 -24
-12 -38 -15 -13 -2 -23 -8 -22 -14 1 -5 -6 -8 -17 -5 -12 3 -22 -1 -26 -10 -3
-9 -12 -13 -20 -10 -8 3 -14 0 -14 -5 0 -6 -9 -14 -20 -17 -11 -4 -18 -10 -15
-15 3 -4 -3 -7 -13 -6 -9 0 -16 -4 -15 -10 1 -7 -5 -11 -15 -10 -9 0 -17 -4
-17 -11 0 -6 -4 -15 -9 -20 -5 -5 -6 -3 -2 5 4 6 3 12 -2 12 -15 0 -33 -26
-24 -35 4 -5 2 -5 -4 -2 -7 4 -41 -22 -78 -60 -61 -62 -83 -94 -53 -77 7 4 9
3 4 -2 -5 -5 -14 -9 -20 -9 -7 0 -11 -12 -9 -25 1 -17 -1 -21 -6 -12 -7 10
-13 7 -26 -12 -9 -14 -13 -26 -9 -26 5 0 3 -4 -2 -8 -18 -13 -63 -106 -60
-125 2 -9 -1 -15 -6 -11 -8 4 -11 -9 -8 -32 0 -4 -4 -10 -10 -14 -6 -3 -12
-25 -14 -48 -1 -23 -5 -42 -8 -42 -25 0 -43 -325 -26 -460 9 -74 24 -165 27
-165 1 0 4 -11 6 -25 8 -43 11 -55 17 -70 5 -14 11 -41 24 -102 3 -16 8 -28
12 -28 4 0 8 -12 9 -27 1 -15 7 -32 12 -37 6 -6 10 -18 10 -29 0 -11 4 -15 12
-11 7 4 8 3 4 -4 -4 -7 1 -28 10 -48 10 -20 17 -42 17 -50 0 -8 4 -14 9 -14 4
0 8 -7 8 -15 0 -8 5 -15 10 -15 6 0 9 -3 8 -8 -4 -11 46 -122 55 -122 4 0 6
-4 2 -9 -3 -5 0 -15 7 -23 7 -7 24 -35 37 -61 13 -25 28 -44 34 -40 6 3 7 1 3
-5 -7 -13 23 -72 36 -72 4 0 8 -5 8 -11 0 -17 89 -147 108 -159 9 -5 13 -10 9
-10 -9 0 43 -73 56 -78 4 -2 7 -8 7 -13 0 -10 36 -54 91 -111 20 -21 35 -38
32 -38 -11 0 163 -176 281 -285 l76 -69 -75 -71 c-41 -38 -81 -75 -88 -81 -35
-31 -141 -150 -197 -220 -174 -218 -285 -438 -336 -669 -13 -60 -13 -250 0
-312 44 -208 167 -360 366 -456 144 -69 298 -99 500 -97 63 1 126 3 140 4 14
2 50 7 80 11 192 23 411 87 645 188 39 16 73 34 76 39 3 5 8 9 10 8 10 -4 59
13 59 21 0 5 6 8 13 6 6 -1 11 4 9 11 -1 8 2 11 8 7 5 -3 24 3 40 15 17 12 30
18 30 14 0 -4 7 1 15 12 8 10 15 15 15 10 0 -6 7 -1 16 10 8 10 12 13 9 5 -5
-9 1 -8 19 4 14 9 23 22 19 28 -3 6 -1 7 6 3 6 -4 24 0 39 10 15 10 31 17 35
16 5 -1 6 2 2 8 -3 5 -1 10 6 10 7 0 27 11 44 25 18 13 35 21 39 18 3 -4 6 -1
6 5 0 6 25 27 55 47 30 21 55 40 56 43 0 4 2 19 3 34 1 15 10 36 20 47 11 12
17 24 14 27 -3 3 -15 -7 -27 -22 -12 -15 -24 -25 -26 -22 -3 3 9 19 27 37 17
17 27 31 20 31 -6 0 -14 -4 -17 -10 -4 -6 -15 -4 -30 6 -15 10 -25 12 -30 5
-3 -6 1 -11 9 -11 8 0 18 -5 21 -11 9 -13 -33 -59 -54 -59 -9 0 -2 9 17 20 37
23 41 35 11 43 -12 3 -22 0 -26 -9 -4 -12 -8 -11 -20 6 -8 11 -19 18 -24 15
-5 -4 -9 -1 -9 4 0 16 16 13 34 -4 8 -8 17 -11 20 -7 3 5 -5 18 -19 30 -13 11
-26 16 -29 11 -2 -5 -3 -4 -2 3 2 7 9 12 16 10 15 -3 40 16 40 32 0 7 -9 12
-21 13 -17 2 -18 -1 -9 -13 8 -8 8 -14 2 -14 -14 0 -23 28 -11 35 11 7 2 25
-12 25 -6 0 -8 -4 -5 -9 3 -5 -6 -21 -19 -35 -14 -15 -25 -22 -25 -16 0 6 -5
8 -12 4 -6 -4 -4 3 5 15 8 13 13 29 11 36 -3 7 -1 16 5 20 6 3 11 11 11 17 0
6 -9 3 -19 -6 -11 -10 -25 -15 -30 -11 -6 3 -11 1 -11 -4 0 -6 -5 -11 -11 -11
-8 0 -8 5 1 15 10 12 10 18 0 30 -8 9 -8 15 -2 15 6 0 12 -6 15 -12 2 -7 8
-10 12 -6 4 4 3 13 -3 21 -7 8 -7 18 -2 27 9 13 10 13 11 0 1 -8 1 -19 0 -23
-1 -5 4 -7 11 -4 7 2 11 11 9 18 -2 8 -4 22 -5 32 0 23 -13 22 -28 -3 -7 -11
-16 -20 -21 -20 -4 0 -5 5 -2 10 3 6 1 10 -5 10 -6 0 -13 -7 -16 -15 -4 -8
-11 -15 -16 -15 -6 0 -5 7 2 15 19 23 -4 43 -57 47 -7 1 -13 6 -13 11 0 5 8 6
18 2 9 -4 26 -8 36 -11 11 -2 22 -7 25 -12 16 -23 41 -20 61 8 20 29 20 29 0
27 -11 -1 -19 -7 -17 -16 4 -26 -18 -21 -56 14 -21 19 -33 35 -27 35 6 0 23
-14 37 -30 13 -17 29 -30 35 -30 5 0 -7 20 -28 45 -26 32 -34 49 -27 56 7 7
17 8 28 1 12 -6 14 -11 6 -16 -6 -4 -11 -13 -11 -19 1 -7 9 -2 19 10 23 27 32
29 25 6 -5 -15 -3 -15 10 1 21 27 20 33 -6 33 -49 1 -51 2 -38 18 7 9 10 18 7
21 -3 3 -12 -3 -19 -15 -7 -12 -18 -21 -25 -21 -6 0 -13 -3 -16 -7 -2 -5 -2
-2 -1 5 2 7 -3 15 -11 19 -12 4 -13 8 -4 20 10 11 9 18 -5 31 -17 16 -18 16
-12 -4 4 -13 -1 -28 -12 -42 l-19 -22 -11 24 c-11 24 -7 36 10 36 5 0 6 -10 3
-22 -7 -22 -6 -22 11 -5 17 16 17 18 1 34 -15 16 -18 16 -37 -2 -25 -23 -26
-15 -1 13 10 12 22 18 26 14 4 -4 6 0 3 8 -3 8 -13 14 -23 12 -14 -3 -15 -1
-4 11 12 13 15 13 22 1 4 -8 12 -14 18 -14 5 0 2 11 -7 24 -8 14 -21 24 -27
22 -7 -1 -9 -1 -4 1 16 10 6 23 -15 19 -13 -3 -25 -5 -28 -5 -3 -1 2 -6 10
-11 9 -6 10 -10 3 -10 -21 0 -25 21 -7 35 20 14 65 1 61 -18 -1 -5 4 -12 11
-14 7 -3 10 1 6 10 -3 8 -1 18 5 22 7 3 8 0 5 -9 -4 -11 0 -16 11 -16 9 0 14
4 10 9 -8 15 14 24 29 12 7 -6 17 -7 22 -3 4 4 2 -1 -5 -11 -8 -10 -20 -16
-28 -13 -14 6 -18 -9 -5 -18 12 -7 63 29 55 39 -5 4 -2 5 5 1 7 -4 9 -12 6
-18 -5 -8 -1 -9 10 -5 10 4 21 7 24 7 4 0 0 5 -8 10 -12 7 -10 9 8 7 12 0 22
-5 22 -10 0 -5 7 -4 15 3 8 7 15 9 15 5 0 -4 7 -2 16 5 8 8 14 9 13 4 -4 -21
2 -28 11 -14 7 11 10 11 10 2 0 -7 5 -10 10 -7 6 4 8 10 6 14 -3 4 18 6 45 5
27 0 52 3 55 7 8 14 33 -2 27 -17 -4 -11 -9 -12 -19 -3 -11 9 -14 8 -14 -2 0
-11 -3 -11 -11 1 -10 13 -10 13 -6 -1 3 -9 -1 -16 -8 -16 -8 0 -11 7 -8 16 4
11 1 10 -9 -3 -9 -12 -20 -16 -28 -11 -8 5 -11 4 -7 -2 4 -6 -1 -17 -10 -24
-14 -12 -16 -12 -8 0 6 10 4 12 -5 6 -9 -6 -11 -4 -5 6 7 11 5 11 -10 -1 -15
-12 -17 -12 -10 -1 5 10 4 12 -4 7 -6 -4 -9 -12 -6 -17 4 -5 1 -9 -4 -9 -15 0
-14 13 1 30 7 8 4 7 -7 -3 -20 -18 -20 -18 4 -36 15 -12 21 -23 16 -31 -6 -9
-4 -11 5 -5 9 5 11 4 6 -3 -4 -7 -2 -10 6 -9 7 2 10 2 5 0 -4 -3 -4 -9 -1 -14
3 -6 12 -2 21 8 8 10 11 11 7 3 -7 -13 -5 -13 8 -2 14 11 16 10 13 -5 -1 -10
3 -25 9 -33 10 -13 9 -13 -9 -1 -19 14 -19 14 -3 -4 21 -23 36 -12 17 12 -12
16 -11 16 7 0 19 -18 19 -19 -11 -44 -16 -14 -24 -22 -16 -18 10 6 12 4 7 -6
-4 -8 0 -5 8 5 9 11 16 14 16 8 0 -7 5 -12 11 -12 5 0 8 4 4 9 -3 5 0 13 6 17
8 4 9 3 5 -5 -4 -7 -2 -10 5 -9 7 2 13 -9 14 -24 1 -15 -2 -25 -7 -22 -5 3 -7
2 -6 -3 2 -4 -1 -8 -7 -8 -5 0 -9 8 -9 17 1 18 -7 23 -19 12 -3 -4 -2 -16 4
-27 8 -14 8 -18 0 -13 -7 5 -8 1 -4 -10 4 -12 8 -14 11 -5 3 9 9 7 24 -6 19
-17 20 -17 38 7 16 21 21 23 32 12 11 -11 10 -12 -4 -7 -22 9 -23 -3 -3 -25
23 -25 28 -65 10 -80 -8 -7 -12 -16 -9 -21 3 -5 0 -9 -6 -9 -6 0 -10 7 -8 16
2 10 -2 19 -8 21 -6 2 -10 -9 -10 -26 0 -22 4 -29 18 -28 9 1 20 8 23 16 5 13
7 13 15 1 7 -12 12 -11 29 4 19 17 19 17 17 -1 -5 -30 5 -35 27 -16 21 18 21
18 7 -1 -13 -18 -13 -19 0 -11 9 5 7 -1 -5 -15 -12 -14 -14 -20 -5 -15 12 7
13 6 3 -6 -10 -12 -10 -18 -1 -27 9 -9 9 -12 1 -12 -6 0 -13 6 -16 13 -3 8
-10 7 -23 -7 -12 -12 -14 -16 -4 -12 13 7 13 6 0 -6 -8 -7 -16 -20 -18 -28 -2
-8 -7 -19 -11 -23 -10 -10 -7 25 3 42 7 10 4 11 -12 2 -13 -7 -19 -17 -16 -26
6 -14 -11 -20 -38 -16 -5 0 -8 -3 -8 -7 0 -17 13 -21 31 -11 15 7 17 6 13 -5
-3 -9 -9 -15 -12 -14 -18 2 -32 -3 -32 -12 0 -21 27 -8 63 30 20 23 37 38 37
35 0 -3 16 9 35 26 19 18 32 35 30 40 -3 4 -1 10 5 14 5 3 10 1 10 -6 0 -6 9
-1 19 12 12 16 16 28 10 35 -6 7 -3 16 8 25 15 12 16 12 10 -4 -4 -11 -2 -17
8 -17 9 0 12 6 8 17 -4 10 -2 14 5 9 6 -3 13 -2 17 4 3 5 -1 10 -9 10 -9 0
-16 5 -16 10 0 6 10 9 23 6 17 -3 23 1 25 15 1 10 3 28 4 39 2 13 8 18 18 15
15 -5 42 7 41 19 -2 17 0 20 7 9 5 -9 12 -6 21 10 13 20 13 21 -2 8 -17 -14
-23 -3 -9 15 4 5 -3 -2 -15 -16 -13 -14 -23 -28 -23 -32 0 -5 -4 -8 -10 -8
-20 0 -9 21 30 60 42 42 47 50 29 50 -5 0 -7 -5 -4 -10 3 -5 2 -10 -3 -10 -4
0 -17 -8 -28 -17 -24 -22 -54 -28 -55 -11 0 7 -2 21 -4 31 -2 11 1 16 8 14 7
-2 11 -13 9 -23 -2 -14 -1 -16 6 -6 5 8 12 13 16 13 23 -3 30 0 16 8 -8 6 -18
7 -22 5 -5 -3 -11 2 -14 10 -3 9 -10 14 -14 11 -5 -3 -11 4 -15 15 -3 11 -11
20 -16 20 -5 0 -3 -10 6 -23 8 -13 12 -27 8 -30 -12 -12 -21 -7 -19 11 0 10
-5 16 -13 14 -8 -2 -11 3 -8 11 3 8 0 20 -6 26 -11 11 -17 36 -18 81 -1 17 -3
19 -6 7 -2 -9 -9 -15 -14 -12 -5 4 -5 14 2 26 10 19 12 20 29 4 14 -13 20 -14
26 -3 4 7 4 10 0 6 -11 -9 -36 14 -28 26 3 5 0 6 -6 2 -19 -11 -14 5 6 21 15
13 15 13 -6 3 -14 -7 -21 -17 -18 -26 3 -7 -1 -17 -9 -21 -13 -8 -15 -12 -15
-33 0 -5 -4 -10 -9 -10 -5 0 -8 11 -8 25 0 15 5 25 13 25 8 0 14 4 14 10 0 5
-8 7 -17 4 -13 -4 -11 0 5 12 24 18 29 34 10 34 -6 0 -8 -3 -5 -7 4 -3 -2 -13
-14 -21 -18 -12 -23 -12 -41 5 -12 10 -18 12 -13 4 6 -10 2 -12 -16 -6 -13 3
-19 3 -14 -2 14 -11 18 -43 5 -43 -5 0 -10 9 -10 19 0 11 -5 23 -11 27 -8 4
-9 -1 -4 -17 7 -21 6 -22 -9 -10 -21 17 -16 36 10 37 30 3 73 12 84 19 5 3 10
1 10 -4 0 -6 -5 -11 -12 -11 -6 0 -8 -3 -5 -7 4 -3 16 3 28 15 11 13 24 20 29
17 4 -3 10 -1 12 5 2 6 13 12 24 14 27 5 117 52 171 88 24 16 43 25 43 21 0
-4 5 0 11 10 6 9 15 15 20 11 5 -3 8 -2 7 3 -2 4 2 10 7 13 6 3 23 20 39 37
15 18 33 30 39 26 5 -3 7 -2 4 4 -3 5 9 25 26 45 79 89 183 308 202 428 3 19
8 46 10 60 14 68 20 252 11 340 -7 76 -19 152 -31 210 -3 14 -8 36 -11 50 -3
14 -7 35 -10 46 -6 33 -84 265 -99 299 -111 247 -190 389 -319 570 -61 85
-185 239 -197 243 -5 2 -9 8 -9 13 0 12 -292 305 -339 339 -18 14 -43 35 -54
48 -11 12 -27 22 -34 22 -7 0 -13 4 -13 8 0 11 -132 108 -142 105 -5 -2 -8 1
-8 6 0 8 -37 33 -180 123 -83 53 -228 127 -234 120 -3 -3 -6 0 -6 7 0 7 -4 10
-9 7 -5 -4 -11 -3 -13 2 -5 13 -110 52 -122 45 -6 -3 -8 -2 -3 2 6 8 -83 51
-123 59 -8 2 -23 6 -32 10 -9 4 -22 5 -28 1 -5 -3 -10 -1 -10 4 0 10 -74 28
-92 23 -5 -1 -8 2 -8 7 0 5 -15 11 -32 14 -57 9 -102 17 -128 24 -42 10 -69 9
-62 -2 3 -5 -1 -4 -10 3 -21 17 -262 27 -252 10 5 -7 2 -8 -7 -2 -16 10 -44
15 -50 9z m37 -40 c-1 -8 -5 -17 -8 -21 -5 -4 -4 16 1 34 3 9 9 -1 7 -13z
m-200 -31 c1 -9 0 -13 -4 -10 -3 4 -7 14 -8 22 -1 9 0 13 4 10 3 -4 7 -14 8
-22z m140 14 c3 -4 -1 -5 -10 -4 -8 1 -18 5 -22 8 -3 4 1 5 10 4 8 -1 18 -5
22 -8z m164 -3 c0 -2 -9 -3 -19 -2 -11 0 -18 5 -15 9 4 6 34 0 34 -7z m154 -1
c3 -8 2 -12 -4 -9 -6 3 -10 10 -10 16 0 14 7 11 14 -7z m-574 -34 c0 -5 -5
-10 -11 -10 -5 0 -7 5 -4 10 3 6 8 10 11 10 2 0 4 -4 4 -10z m155 0 c3 -5 1
-10 -4 -10 -6 0 -11 5 -11 10 0 6 2 10 4 10 3 0 8 -4 11 -10z m160 1 c3 -5 2
-12 -3 -15 -5 -3 -9 1 -9 9 0 17 3 19 12 6z m125 -15 c0 -3 -4 -8 -10 -11 -5
-3 -10 -1 -10 4 0 6 5 11 10 11 6 0 10 -2 10 -4z m-480 -20 c0 -3 -4 -8 -10
-11 -5 -3 -10 -1 -10 4 0 6 5 11 10 11 6 0 10 -2 10 -4z m40 -6 c0 -5 -2 -10
-4 -10 -3 0 -8 5 -11 10 -3 6 -1 10 4 10 6 0 11 -4 11 -10z m275 1 c-9 -8 -36
-10 -30 -2 2 4 11 8 20 8 8 0 13 -3 10 -6z m61 -3 c3 -4 -1 -5 -10 -4 -8 1
-18 5 -22 8 -3 4 1 5 10 4 8 -1 18 -5 22 -8z m44 2 c0 -5 -5 -10 -11 -10 -5 0
-7 5 -4 10 3 6 8 10 11 10 2 0 4 -4 4 -10z m-184 -25 c-1 -8 -5 -17 -8 -21 -5
-4 -4 16 1 34 3 9 9 -1 7 -13z m239 5 c3 -5 1 -10 -4 -10 -6 0 -11 5 -11 10 0
6 2 10 4 10 3 0 8 -4 11 -10z m50 0 c-3 -5 -12 -10 -18 -10 -7 0 -6 4 3 10 19
12 23 12 15 0z m-369 -25 c-1 -8 -5 -17 -8 -21 -5 -4 -4 16 1 34 3 9 9 -1 7
-13z m-216 1 c0 -2 -8 -10 -17 -17 -16 -13 -17 -12 -4 4 13 16 21 21 21 13z
m111 -29 c-10 -9 -11 -8 -5 6 3 10 9 15 12 12 3 -3 0 -11 -7 -18z m226 -2 c0
-8 -4 -12 -9 -9 -5 3 -6 10 -3 15 9 13 12 11 12 -6z m-317 1 c0 -3 -4 -8 -10
-11 -5 -3 -10 -1 -10 4 0 6 5 11 10 11 6 0 10 -2 10 -4z m655 -15 c3 -5 2 -12
-3 -15 -5 -3 -9 1 -9 9 0 17 3 19 12 6z m-499 -27 c1 -9 0 -13 -4 -10 -3 4 -7
14 -8 22 -1 9 0 13 4 10 3 -4 7 -14 8 -22z m329 16 c3 -6 -1 -7 -9 -4 -18 7
-21 14 -7 14 6 0 13 -4 16 -10z m115 6 c0 -2 -7 -7 -16 -10 -8 -3 -12 -2 -9 4
6 10 25 14 25 6z m-520 -20 c0 -3 -4 -8 -10 -11 -5 -3 -10 -1 -10 4 0 6 5 11
10 11 6 0 10 -2 10 -4z m160 -2 c0 -8 -19 -13 -24 -6 -3 5 1 9 9 9 8 0 15 -2
15 -3z m114 -6 c-3 -4 -11 -5 -19 -1 -21 7 -19 12 4 10 11 0 18 -5 15 -9z
m459 -13 c-3 -9 -8 -14 -10 -11 -3 3 -2 9 2 15 9 16 15 13 8 -4z m-279 -3 c3
-5 -1 -9 -9 -9 -8 0 -12 4 -9 9 3 4 7 8 9 8 2 0 6 -4 9 -8z m-694 -22 c0 -5
-5 -10 -11 -10 -5 0 -7 5 -4 10 3 6 8 10 11 10 2 0 4 -4 4 -10z m40 6 c0 -3
-4 -8 -10 -11 -5 -3 -10 -1 -10 4 0 6 5 11 10 11 6 0 10 -2 10 -4z m37 -11 c0
-8 -4 -12 -9 -9 -5 3 -6 10 -3 15 9 13 12 11 12 -6z m123 5 c0 -5 -5 -10 -11
-10 -5 0 -7 5 -4 10 3 6 8 10 11 10 2 0 4 -4 4 -10z m364 -18 c3 -5 -1 -9 -9
-9 -8 0 -12 4 -9 9 3 4 7 8 9 8 2 0 6 -4 9 -8z m-490 -20 c3 -5 -1 -9 -9 -9
-8 0 -12 4 -9 9 3 4 7 8 9 8 2 0 6 -4 9 -8z m210 0 c3 -5 -1 -9 -9 -9 -8 0
-12 4 -9 9 3 4 7 8 9 8 2 0 6 -4 9 -8z m216 4 c0 -3 -4 -8 -10 -11 -5 -3 -10
-1 -10 4 0 6 5 11 10 11 6 0 10 -2 10 -4z m198 -31 c-3 -3 -9 2 -12 12 -6 14
-5 15 5 6 7 -7 10 -15 7 -18z m-462 -11 c1 -9 0 -13 -4 -10 -3 4 -7 14 -8 22
-1 9 0 13 4 10 3 -4 7 -14 8 -22z m119 16 c3 -5 1 -10 -4 -10 -6 0 -11 5 -11
10 0 6 2 10 4 10 3 0 8 -4 11 -10z m-395 -20 c0 -5 -2 -10 -4 -10 -3 0 -8 5
-11 10 -3 6 -1 10 4 10 6 0 11 -4 11 -10z m216 -2 c3 -4 -1 -5 -10 -4 -8 1
-18 5 -22 8 -3 4 1 5 10 4 8 -1 18 -5 22 -8z m218 4 c3 -5 -1 -9 -9 -9 -8 0
-12 4 -9 9 3 4 7 8 9 8 2 0 6 -4 9 -8z m141 -1 c3 -5 2 -12 -3 -15 -5 -3 -9 1
-9 9 0 17 3 19 12 6z m-455 -41 c0 -5 -5 -10 -11 -10 -5 0 -7 5 -4 10 3 6 8
10 11 10 2 0 4 -4 4 -10z m95 1 c-9 -8 -36 -10 -30 -2 2 4 11 8 20 8 8 0 13
-3 10 -6z m1236 -34 c-10 -9 -11 -8 -5 6 3 10 9 15 12 12 3 -3 0 -11 -7 -18z
m389 13 c0 -5 -5 -10 -11 -10 -5 0 -7 5 -4 10 3 6 8 10 11 10 2 0 4 -4 4 -10z
m-1920 -20 c0 -5 -2 -10 -4 -10 -3 0 -8 5 -11 10 -3 6 -1 10 4 10 6 0 11 -4
11 -10z m256 -2 c3 -4 -1 -5 -10 -4 -8 1 -18 5 -22 8 -3 4 1 5 10 4 8 -1 18
-5 22 -8z m1321 -13 c0 -8 -4 -12 -9 -9 -5 3 -6 10 -3 15 9 13 12 11 12 -6z
m-1057 -5 c0 -5 -2 -10 -4 -10 -3 0 -8 5 -11 10 -3 6 -1 10 4 10 6 0 11 -4 11
-10z m120 6 c0 -2 -7 -7 -16 -10 -8 -3 -12 -2 -9 4 6 10 25 14 25 6z m1020 0
c0 -2 -7 -7 -16 -10 -8 -3 -12 -2 -9 4 6 10 25 14 25 6z m-1660 -20 c0 -3 -4
-8 -10 -11 -5 -3 -10 -1 -10 4 0 6 5 11 10 11 6 0 10 -2 10 -4z m115 -5 c-8
-7 -45 -9 -50 -1 -2 3 9 6 25 6 17 0 27 -2 25 -5z m282 -6 c0 -8 -4 -12 -9 -9
-5 3 -6 10 -3 15 9 13 12 11 12 -6z m-241 -20 c-1 -8 -5 -17 -8 -21 -5 -4 -4
16 1 34 3 9 9 -1 7 -13z m119 -4 c3 -5 2 -12 -3 -15 -5 -3 -9 1 -9 9 0 17 3
19 12 6z m-315 -11 c0 -5 -5 -10 -11 -10 -5 0 -7 5 -4 10 3 6 8 10 11 10 2 0
4 -4 4 -10z m114 -2 c-3 -4 -11 -5 -19 -1 -21 7 -19 12 4 10 11 0 18 -5 15 -9z
m162 -14 c1 -9 0 -13 -4 -10 -3 4 -7 14 -8 22 -1 9 0 13 4 10 3 -4 7 -14 8
-22z m144 11 c0 -2 -9 -3 -19 -2 -11 0 -18 5 -15 9 4 6 34 0 34 -7z m-476 -13
c3 -5 -1 -9 -9 -9 -8 0 -12 4 -9 9 3 4 7 8 9 8 2 0 6 -4 9 -8z m431 -1 c3 -5
2 -12 -3 -15 -5 -3 -9 1 -9 9 0 17 3 19 12 6z m360 0 c3 -5 2 -12 -3 -15 -5
-3 -9 1 -9 9 0 17 3 19 12 6z m-741 -19 c2 -4 -5 -9 -17 -9 -17 -2 -19 0 -7 7
18 12 18 12 24 2z m200 -1 c3 -5 -2 -15 -12 -22 -15 -12 -16 -12 -5 2 7 9 10
19 6 22 -3 4 -4 7 0 7 3 0 8 -4 11 -9z m-85 -25 c9 -11 9 -16 -1 -22 -7 -4
-10 -4 -6 1 4 4 3 14 -3 22 -6 7 -9 13 -6 13 2 0 10 -6 16 -14z m331 10 c0 -3
-4 -8 -10 -11 -5 -3 -10 -1 -10 4 0 6 5 11 10 11 6 0 10 -2 10 -4z m60 0 c0
-3 -4 -8 -10 -11 -5 -3 -10 -1 -10 4 0 6 5 11 10 11 6 0 10 -2 10 -4z m-520
-21 c0 -7 -30 -13 -34 -7 -3 4 4 9 15 9 10 1 19 0 19 -2z m76 -20 c-1 -8 -5
-17 -8 -21 -5 -4 -4 16 1 34 3 9 9 -1 7 -13z m139 -5 c3 -5 1 -10 -4 -10 -6 0
-11 5 -11 10 0 6 2 10 4 10 3 0 8 -4 11 -10z m240 -8 c-3 -3 -11 0 -18 7 -9
10 -8 11 6 5 10 -3 15 -9 12 -12z m269 10 c3 -5 -1 -9 -9 -9 -8 0 -12 4 -9 9
3 4 7 8 9 8 2 0 6 -4 9 -8z m-749 -11 c3 -5 2 -12 -3 -15 -5 -3 -9 1 -9 9 0
17 3 19 12 6z m42 -23 c2 -17 0 -19 -7 -8 -5 8 -6 18 -4 22 8 12 10 10 11 -14z
m117 13 c3 -5 -2 -15 -12 -22 -15 -12 -16 -12 -5 2 7 9 10 19 6 22 -3 4 -4 7
0 7 3 0 8 -4 11 -9z m122 -17 c1 -9 0 -13 -4 -10 -3 4 -7 14 -8 22 -1 9 0 13
4 10 3 -4 7 -14 8 -22z m-381 -12 c-3 -3 -11 0 -18 7 -9 10 -8 11 6 5 10 -3
15 -9 12 -12z m476 1 c13 -16 12 -17 -3 -4 -10 7 -18 15 -18 17 0 8 8 3 21
-13z m-175 -18 c-1 -8 -5 -17 -8 -21 -5 -4 -4 16 1 34 3 9 9 -1 7 -13z m84
-15 c0 -5 -5 -10 -11 -10 -5 0 -7 5 -4 10 3 6 8 10 11 10 2 0 4 -4 4 -10z
m1110 6 c0 -2 -8 -10 -17 -17 -16 -13 -17 -12 -4 4 13 16 21 21 21 13z m120
-2 c0 -8 -19 -13 -24 -6 -3 5 1 9 9 9 8 0 15 -2 15 -3z m-1550 -18 c0 -3 -4
-8 -10 -11 -5 -3 -10 -1 -10 4 0 6 5 11 10 11 6 0 10 -2 10 -4z m75 -5 c3 -5
2 -12 -3 -15 -5 -3 -9 1 -9 9 0 17 3 19 12 6z m101 -3 c3 -4 -1 -5 -10 -4 -8
1 -18 5 -22 8 -3 4 1 5 10 4 8 -1 18 -5 22 -8z m389 -17 c-9 -8 -36 -10 -30
-2 2 4 11 8 20 8 8 0 13 -3 10 -6z m-605 -21 c0 -5 -2 -10 -4 -10 -3 0 -8 5
-11 10 -3 6 -1 10 4 10 6 0 11 -4 11 -10z m295 0 c3 -5 1 -10 -4 -10 -6 0 -11
5 -11 10 0 6 2 10 4 10 3 0 8 -4 11 -10z m65 -20 c0 -5 -2 -10 -4 -10 -3 0 -8
5 -11 10 -3 6 -1 10 4 10 6 0 11 -4 11 -10z m120 6 c0 -2 -7 -7 -16 -10 -8 -3
-12 -2 -9 4 6 10 25 14 25 6z m225 -6 c3 -6 -1 -7 -9 -4 -18 7 -21 14 -7 14 6
0 13 -4 16 -10z m430 0 c3 -5 1 -10 -4 -10 -6 0 -11 5 -11 10 0 6 2 10 4 10 3
0 8 -4 11 -10z m-1099 -36 c1 -9 0 -13 -4 -10 -3 4 -7 14 -8 22 -1 9 0 13 4
10 3 -4 7 -14 8 -22z m99 17 c-9 -8 -36 -10 -30 -2 2 4 11 8 20 8 8 0 13 -3
10 -6z m1206 -18 c13 -16 12 -17 -3 -4 -17 13 -22 21 -14 21 2 0 10 -8 17 -17z
m-1396 -3 c3 -6 -1 -7 -9 -4 -18 7 -21 14 -7 14 6 0 13 -4 16 -10z m375 6 c0
-3 -4 -8 -10 -11 -5 -3 -10 -1 -10 4 0 6 5 11 10 11 6 0 10 -2 10 -4z m44 -4
c3 -5 -1 -9 -9 -9 -8 0 -12 4 -9 9 3 4 7 8 9 8 2 0 6 -4 9 -8z m-354 -18 c0
-8 -19 -13 -24 -6 -3 5 1 9 9 9 8 0 15 -2 15 -3z m110 0 c0 -8 -19 -13 -24 -6
-3 5 1 9 9 9 8 0 15 -2 15 -3z m194 -22 c3 -5 -1 -9 -9 -9 -8 0 -12 4 -9 9 3
4 7 8 9 8 2 0 6 -4 9 -8z m-237 -17 c0 -8 -4 -12 -9 -9 -5 3 -6 10 -3 15 9 13
12 11 12 -6z m-131 -27 c3 -4 -1 -5 -10 -4 -8 1 -18 5 -22 8 -3 4 1 5 10 4 8
-1 18 -5 22 -8z m1319 2 c3 -6 -1 -7 -9 -4 -18 7 -21 14 -7 14 6 0 13 -4 16
-10z m-1269 -25 c-1 -8 -5 -17 -8 -21 -5 -4 -4 16 1 34 3 9 9 -1 7 -13z m124
-15 c0 -5 -2 -10 -4 -10 -3 0 -8 5 -11 10 -3 6 -1 10 4 10 6 0 11 -4 11 -10z
m-36 -18 c3 -5 -1 -9 -9 -9 -8 0 -12 4 -9 9 3 4 7 8 9 8 2 0 6 -4 9 -8z m-10
-40 c2 -4 -5 -9 -17 -9 -17 -2 -19 0 -7 7 18 12 18 12 24 2z m61 -2 c3 -5 1
-10 -4 -10 -6 0 -11 5 -11 10 0 6 2 10 4 10 3 0 8 -4 11 -10z m-198 -15 c0 -8
-4 -12 -9 -9 -5 3 -6 10 -3 15 9 13 12 11 12 -6z m60 -30 c0 -8 -4 -12 -9 -9
-5 3 -6 10 -3 15 9 13 12 11 12 -6z m117 -13 c3 -5 -1 -9 -9 -9 -8 0 -12 4 -9
9 3 4 7 8 9 8 2 0 6 -4 9 -8z m60 0 c3 -5 -1 -9 -9 -9 -8 0 -12 4 -9 9 3 4 7
8 9 8 2 0 6 -4 9 -8z m70 0 c3 -5 -1 -9 -9 -9 -8 0 -12 4 -9 9 3 4 7 8 9 8 2
0 6 -4 9 -8z m687 -15 c-10 -9 -11 -8 -5 6 3 10 9 15 12 12 3 -3 0 -11 -7 -18z
m-976 -6 c-9 -8 -36 -10 -30 -2 2 4 11 8 20 8 8 0 13 -3 10 -6z m40 -21 c3 -5
1 -10 -4 -10 -6 0 -11 5 -11 10 0 6 2 10 4 10 3 0 8 -4 11 -10z m186 -37 c13
-16 12 -17 -3 -4 -10 7 -18 15 -18 17 0 8 8 3 21 -13z m76 2 c0 -8 -4 -12 -9
-9 -5 3 -6 10 -3 15 9 13 12 11 12 -6z m118 6 c3 -5 2 -12 -3 -15 -5 -3 -9 1
-9 9 0 17 3 19 12 6z m-40 -10 c3 -5 2 -12 -3 -15 -5 -3 -9 1 -9 9 0 17 3 19
12 6z m-335 -35 c0 -2 -7 -7 -16 -10 -8 -3 -12 -2 -9 4 6 10 25 14 25 6z m-62
-31 c-3 -3 -9 2 -12 12 -6 14 -5 15 5 6 7 -7 10 -15 7 -18z m1355 -110 c-3 -9
-8 -14 -10 -11 -3 3 -2 9 2 15 9 16 15 13 8 -4z m-253 -49 c0 -2 -8 -10 -17
-17 -16 -13 -17 -12 -4 4 13 16 21 21 21 13z m-985 -55 c3 -5 2 -12 -3 -15 -5
-3 -9 1 -9 9 0 17 3 19 12 6z m725 -81 c0 -5 -5 -10 -11 -10 -5 0 -7 5 -4 10
3 6 8 10 11 10 2 0 4 -4 4 -10z m-602 -125 c-3 -3 -9 2 -12 12 -6 14 -5 15 5
6 7 -7 10 -15 7 -18z m197 -275 c3 -5 1 -10 -4 -10 -6 0 -11 5 -11 10 0 6 2
10 4 10 3 0 8 -4 11 -10z m880 0 c3 -5 1 -10 -4 -10 -6 0 -11 5 -11 10 0 6 2
10 4 10 3 0 8 -4 11 -10z m-764 -367 c13 -16 12 -17 -3 -4 -10 7 -18 15 -18
17 0 8 8 3 21 -13z m999 -1049 c0 -8 -19 -13 -24 -6 -3 5 1 9 9 9 8 0 15 -2
15 -3z m-56 -46 c-3 -4 -11 -5 -19 -1 -21 7 -19 12 4 10 11 0 18 -5 15 -9z
m61 3 c-9 -8 -36 -10 -30 -2 2 4 11 8 20 8 8 0 13 -3 10 -6z m122 -76 c0 -8
-4 -12 -9 -9 -5 3 -6 10 -3 15 9 13 12 11 12 -6z m-57 1 c0 -3 -4 -8 -10 -11
-5 -3 -10 -1 -10 4 0 6 5 11 10 11 6 0 10 -2 10 -4z m97 -18 c2 -17 0 -19 -7
-8 -5 8 -6 18 -4 22 8 12 10 10 11 -14z m37 13 c3 -5 -2 -15 -12 -22 -15 -12
-16 -12 -5 2 7 9 10 19 6 22 -3 4 -4 7 0 7 3 0 8 -4 11 -9z m58 -16 c3 3 13
-5 24 -17 19 -23 19 -23 -2 -5 -11 9 -23 15 -26 12 -3 -3 -13 5 -24 17 -19 23
-19 23 2 5 11 -9 23 -15 26 -12z m49 -2 c13 -16 12 -17 -3 -4 -17 13 -22 21
-14 21 2 0 10 -8 17 -17z m84 -23 c3 -6 -1 -7 -9 -4 -18 7 -21 14 -7 14 6 0
13 -4 16 -10z m-124 -17 c13 -16 12 -17 -3 -4 -17 13 -22 21 -14 21 2 0 10 -8
17 -17z m103 -5 c-3 -4 -9 -8 -15 -8 -5 0 -9 4 -9 8 0 5 7 9 15 9 8 0 12 -4 9
-9z m-43 -15 c13 -16 12 -17 -3 -4 -17 13 -22 21 -14 21 2 0 10 -8 17 -17z
m-266 -2 c3 -5 2 -12 -3 -15 -5 -3 -9 1 -9 9 0 17 3 19 12 6z m136 -8 c13 -16
12 -17 -3 -4 -10 7 -18 15 -18 17 0 8 8 3 21 -13z m256 11 c-3 -3 -12 -4 -19
-1 -8 3 -5 6 6 6 11 1 17 -2 13 -5z m56 -14 c-10 -11 -19 -20 -21 -20 -1 0 2
9 8 20 6 11 15 20 20 20 6 0 2 -9 -7 -20z m-202 -7 c13 -16 12 -17 -3 -4 -17
13 -22 21 -14 21 2 0 10 -8 17 -17z m-45 -5 c4 -7 4 -10 -1 -6 -4 4 -15 2 -24
-5 -14 -11 -14 -10 -2 6 16 20 18 21 27 5z m135 -11 c-10 -9 -11 -8 -5 6 3 10
9 15 12 12 3 -3 0 -11 -7 -18z m74 13 c3 -6 -1 -7 -9 -4 -18 7 -21 14 -7 14 6
0 13 -4 16 -10z m113 -26 c-4 -3 -12 5 -18 18 -12 22 -12 22 6 6 10 -10 15
-20 12 -24z m-40 14 c-5 -14 -38 -20 -38 -6 0 6 7 8 15 4 8 -3 15 -1 15 4 0 6
3 10 6 10 3 0 4 -5 2 -12z m-443 -7 c-9 -8 -36 -10 -30 -2 2 4 11 8 20 8 8 0
13 -3 10 -6z m360 -10 c-8 -14 -52 -19 -52 -6 0 7 10 10 25 7 19 -4 23 -2 17
8 -5 9 -4 11 4 6 6 -4 9 -11 6 -15z m168 1 c12 -13 13 -21 6 -32 -9 -13 -10
-12 -6 2 8 23 -3 30 -20 12 -9 -8 -18 -12 -22 -9 -3 4 3 11 13 17 15 8 16 12
5 19 -8 5 -9 9 -3 9 6 0 18 -8 27 -18z m47 8 c-20 -13 -33 -13 -25 0 3 6 14
10 23 10 15 0 15 -2 2 -10z m-329 -17 c13 -16 12 -17 -3 -4 -10 7 -18 15 -18
17 0 8 8 3 21 -13z m152 4 c3 -8 -1 -14 -8 -14 -7 0 -11 6 -8 14 3 7 6 13 8
13 2 0 5 -6 8 -13z m802 -26 c-1 -22 -14 -41 -27 -41 -6 0 -6 6 2 15 11 13 10
18 -9 32 -17 11 -20 18 -10 23 16 11 46 -8 44 -29z m-735 14 c0 -8 -2 -15 -4
-15 -2 0 -6 7 -10 15 -3 8 -1 15 4 15 6 0 10 -7 10 -15z m673 -19 c32 3 40 -6
24 -26 -16 -20 -41 -25 -34 -6 8 20 -3 28 -20 15 -12 -11 -18 -2 -14 24 2 13
-12 7 -37 -15 -24 -22 -25 -22 -19 -3 7 19 6 19 -7 2 -8 -10 -16 -14 -18 -10
-3 4 -3 2 -1 -5 1 -7 -3 -11 -10 -7 -6 3 -4 0 5 -7 15 -11 15 -13 0 -25 -15
-12 -15 -12 2 -6 15 5 18 3 13 -10 -6 -15 -3 -16 14 -7 22 12 54 -4 43 -21 -3
-5 2 -12 10 -15 9 -3 13 -10 10 -15 -7 -12 -21 -3 -35 23 -9 16 -8 19 2 13 8
-5 10 -4 5 3 -11 19 -25 14 -23 -8 1 -11 6 -20 11 -20 5 0 6 -3 3 -7 -4 -3 2
-16 12 -27 11 -12 20 -23 20 -26 0 -22 16 -38 36 -35 22 2 23 0 13 -19 -6 -12
-12 -21 -12 -22 -1 0 4 -8 11 -16 7 -8 10 -26 8 -40 -3 -15 -1 -29 4 -32 5 -3
8 2 7 11 0 9 6 18 14 21 13 4 13 3 2 -10 -10 -13 -10 -18 -1 -24 8 -5 10 -3 4
7 -6 10 -3 9 11 -2 32 -27 48 -34 40 -18 -4 8 -1 6 7 -4 10 -12 17 -14 22 -8
3 6 1 11 -6 11 -8 0 -8 4 1 15 7 8 17 12 23 8 6 -4 7 -1 2 7 -5 8 -4 11 2 7 6
-4 9 5 8 21 0 15 7 35 17 45 10 9 18 12 18 6 0 -5 5 -7 11 -3 8 4 7 9 -2 15
-7 4 -17 5 -21 3 -4 -3 -13 -2 -20 2 -18 12 24 23 45 12 9 -5 22 -6 27 -3 16
10 11 -5 -9 -26 -11 -12 -24 -18 -29 -15 -14 8 -24 -23 -14 -41 8 -13 10 -13
15 1 4 10 3 15 -3 11 -6 -3 -10 -1 -10 4 0 6 7 11 15 11 18 0 18 -2 3 -34 -10
-24 -12 -24 -25 -8 -8 9 -12 12 -9 5 4 -6 1 -15 -5 -18 -5 -4 -8 -14 -4 -23 3
-9 3 -13 -1 -9 -13 12 -45 -24 -34 -38 7 -9 6 -16 -5 -25 -8 -7 -15 -9 -15 -5
0 4 -7 2 -15 -5 -8 -7 -12 -17 -8 -23 3 -6 1 -7 -6 -3 -9 6 -9 11 0 22 6 8 8
14 5 14 -4 0 -4 6 1 13 10 16 14 47 6 47 -3 0 -14 -7 -24 -16 -16 -14 -17 -14
-15 3 5 29 -4 36 -24 18 -12 -11 -20 -13 -25 -5 -3 5 -12 7 -18 3 -7 -3 -4 2
5 13 20 23 17 58 -9 87 -10 11 -13 17 -6 14 19 -11 24 9 7 24 -14 11 -19 10
-35 -10 -10 -12 -23 -20 -29 -16 -8 5 -7 12 2 22 18 22 17 54 0 75 -12 15 -18
16 -31 5 -14 -11 -14 -10 -2 6 12 15 11 20 -7 40 -11 12 -20 26 -19 31 1 6
-11 11 -26 11 -15 1 -34 10 -41 21 -16 21 -10 42 7 25 8 -8 16 -6 29 6 10 9
28 17 40 17 13 1 29 5 36 9 6 5 17 5 22 2 6 -3 13 1 17 11 6 16 8 15 23 -3 10
-13 25 -19 43 -17z m-914 11 c8 -10 7 -14 -2 -14 -8 0 -14 6 -14 14 0 7 1 13
2 13 2 0 8 -6 14 -13z m-179 -7 c0 -5 -2 -10 -4 -10 -3 0 -8 5 -11 10 -3 6 -1
10 4 10 6 0 11 -4 11 -10z m300 6 c0 -2 -7 -7 -16 -10 -8 -3 -12 -2 -9 4 6 10
25 14 25 6z m50 -10 c0 -2 -7 -7 -16 -10 -8 -3 -12 -2 -9 4 6 10 25 14 25 6z
m171 -16 c6 0 7 5 4 10 -3 6 -1 10 5 10 24 0 2 -25 -23 -27 -22 -1 -24 1 -14
12 6 7 14 9 15 4 2 -5 8 -9 13 -9z m-547 2 c3 -5 -1 -9 -9 -9 -8 0 -12 4 -9 9
3 4 7 8 9 8 2 0 6 -4 9 -8z m336 4 c0 -2 -8 -10 -17 -17 -16 -13 -17 -12 -4 4
13 16 21 21 21 13z m94 -8 c-3 -4 -9 -8 -15 -8 -5 0 -9 4 -9 8 0 5 7 9 15 9 8
0 12 -4 9 -9z m36 2 c0 -5 -4 -10 -10 -10 -5 0 -10 5 -10 10 0 6 5 10 10 10 6
0 10 -4 10 -10z m123 -14 c-24 -20 -25 -26 -14 -40 7 -9 9 -16 4 -16 -5 0 -15
12 -22 28 -7 15 -10 24 -6 20 8 -7 35 13 30 22 -2 3 5 6 16 7 16 2 14 -2 -8
-21z m481 8 c5 -14 9 -14 23 -3 9 8 14 9 10 2 -9 -14 1 -43 15 -43 5 0 7 4 4
8 -3 5 0 9 7 10 7 0 31 3 55 6 34 4 44 1 52 -15 6 -11 8 -23 5 -28 -3 -5 0
-15 7 -23 7 -7 13 -20 13 -28 0 -8 5 -14 12 -13 6 2 11 -6 10 -17 -1 -11 -4
-20 -8 -20 -6 0 -32 49 -34 65 0 6 -9 9 -19 7 -18 -3 -18 -2 -4 20 12 18 13
29 6 39 -8 11 -9 10 -4 -3 6 -19 -3 -23 -19 -10 -6 4 -7 3 -2 -2 10 -14 9 -36
-3 -36 -5 0 -9 5 -7 12 1 8 -9 12 -26 12 -22 -1 -27 2 -23 15 4 11 1 9 -9 -4
-9 -11 -18 -19 -20 -17 -18 9 -26 -1 -11 -13 17 -13 22 -13 38 2 11 9 18 11
18 5 0 -7 -16 -22 -35 -34 -19 -13 -35 -27 -35 -32 0 -5 6 -4 13 2 10 8 13 6
14 -11 2 -15 0 -18 -6 -9 -7 11 -10 10 -14 -3 -4 -9 -3 -13 2 -10 5 3 12 1 16
-5 11 -17 22 -2 20 25 -2 14 1 25 6 25 6 0 7 5 3 12 -5 7 -3 8 5 4 7 -5 10
-10 7 -14 -3 -3 2 -10 11 -17 12 -9 13 -16 5 -31 -6 -10 -12 -15 -12 -11 0 4
-9 3 -20 -3 -23 -12 -65 4 -55 21 4 5 -2 17 -12 27 -11 9 -14 14 -7 10 6 -5
19 1 30 13 10 11 14 20 9 19 -6 -2 -17 -2 -25 -1 -12 1 -13 3 -1 10 11 7 9 12
-10 22 -13 8 -30 14 -38 14 -8 0 -16 10 -18 23 -1 13 1 21 6 17 6 -3 16 1 23
9 17 20 24 20 32 0z m-867 -24 c1 -11 -2 -22 -6 -24 -6 -4 -7 26 -2 42 3 8 7
-1 8 -18z m93 15 c0 -1 -10 -10 -22 -21 -14 -12 -18 -13 -10 -3 6 9 10 18 7
21 -3 2 2 5 10 5 8 0 15 -1 15 -2z m63 -21 c-7 -19 -10 -18 -16 5 -3 13 -1 18
9 14 7 -2 10 -11 7 -19z m144 -5 c-2 -25 -35 -45 -49 -31 -6 6 -5 12 3 17 8 5
10 4 5 -3 -4 -7 -4 -12 1 -12 15 0 28 15 31 34 3 17 2 18 -12 7 -9 -8 -16 -9
-16 -3 0 11 21 22 32 15 4 -2 6 -13 5 -24z m-61 6 c-3 -23 -12 -26 -13 -5 -1
11 2 20 7 20 4 0 7 -7 6 -15z m98 -1 c3 -8 2 -12 -4 -9 -6 3 -10 1 -10 -6 0
-7 -2 -10 -5 -7 -5 5 4 38 10 38 2 0 6 -7 9 -16z m76 2 c0 -2 -7 -6 -15 -10
-8 -3 -15 -1 -15 4 0 6 7 10 15 10 8 0 15 -2 15 -4z m-377 -21 c-3 -9 -8 -14
-10 -11 -3 3 -2 9 2 15 9 16 15 13 8 -4z m174 9 c-3 -3 -12 -4 -19 -1 -8 3 -5
6 6 6 11 1 17 -2 13 -5z m-367 -8 c0 -3 -4 -8 -10 -11 -5 -3 -10 -1 -10 4 0 6
5 11 10 11 6 0 10 -2 10 -4z m495 -18 c-25 -15 -68 -23 -45 -9 8 5 17 8 21 5
4 -2 10 0 14 6 3 5 12 10 18 10 7 0 3 -6 -8 -12z m-244 -15 c13 -16 12 -17 -3
-4 -17 13 -22 21 -14 21 2 0 10 -8 17 -17z m82 3 c4 -11 1 -13 -10 -9 -10 4
-14 2 -10 -4 3 -5 0 -10 -8 -10 -13 0 -12 4 2 19 19 22 19 22 26 4z m80 -9 c4
3 7 4 7 0 0 -18 -21 -14 -30 5 -10 21 -10 21 3 6 8 -10 17 -15 20 -11z m677
17 c0 -8 -19 -13 -24 -6 -3 5 1 9 9 9 8 0 15 -2 15 -3z m45 -3 c-7 -12 32 -34
45 -26 6 4 9 3 8 -2 -1 -4 3 -18 10 -30 7 -13 10 -23 7 -23 -3 0 -8 0 -12 0
-5 0 -8 6 -8 13 0 6 -7 13 -15 13 -32 3 -35 5 -22 13 10 6 9 10 -7 14 -22 6
-21 -3 8 -36 13 -16 13 -20 1 -29 -12 -8 -11 -9 3 -4 12 4 17 2 14 -6 -2 -7
-11 -12 -20 -12 -9 1 -14 -3 -10 -9 3 -6 1 -7 -5 -3 -8 5 -10 1 -6 -11 4 -14
3 -15 -4 -4 -7 9 -12 10 -16 2 -4 -6 -3 -11 3 -11 5 0 8 -11 7 -24 -2 -17 1
-23 10 -19 12 4 18 -6 16 -28 0 -3 8 -11 20 -18 15 -9 18 -10 13 0 -5 8 -4 10
3 5 8 -5 10 -1 5 10 -4 11 -3 15 5 10 6 -3 13 -2 16 3 4 5 1 13 -4 16 -8 5 -5
14 7 28 14 17 14 19 1 9 -9 -8 -19 -9 -22 -4 -11 18 27 23 43 6 9 -9 10 -14 4
-10 -7 4 -13 4 -14 -1 -4 -44 -8 -55 -22 -71 -27 -30 -66 -24 -79 13 -1 6 -9
9 -15 9 -7 -1 -10 2 -7 8 3 5 2 14 -3 21 -10 13 -10 19 2 54 4 13 11 20 16 18
4 -3 13 3 18 13 11 21 -6 72 -23 72 -5 0 -1 9 9 20 19 21 30 27 20 11z m-615
-11 c0 -5 -7 -10 -16 -10 -8 0 -13 -4 -10 -8 2 -4 0 -14 -5 -22 -7 -11 -8 -9
-6 8 2 13 10 28 18 33 18 11 19 11 19 -1z m-169 -23 c-10 -9 -11 -8 -5 6 3 10
9 15 12 12 3 -3 0 -11 -7 -18z m206 16 c-4 -3 1 -12 11 -19 14 -11 15 -15 3
-26 -12 -11 -13 -10 -8 4 3 9 0 19 -9 22 -8 3 -14 1 -14 -4 0 -5 -9 -14 -20
-20 -14 -7 -20 -7 -20 0 0 5 8 10 17 10 9 0 13 3 10 7 -4 3 1 12 11 19 18 14
30 19 19 7z m-676 -20 c13 -16 12 -17 -3 -4 -10 7 -18 15 -18 17 0 8 8 3 21
-13z m562 4 c3 -7 -3 -13 -14 -13 -13 0 -15 3 -7 13 6 7 12 13 13 13 2 0 5 -6
8 -13z m-323 -7 c0 -5 -2 -10 -4 -10 -3 0 -8 5 -11 10 -3 6 -1 10 4 10 6 0 11
-4 11 -10z m34 -6 c3 -8 2 -12 -4 -9 -6 3 -10 10 -10 16 0 14 7 11 14 -7z m86
6 c0 -5 -2 -10 -4 -10 -3 0 -8 5 -11 10 -3 6 -1 10 4 10 6 0 11 -4 11 -10z
m382 -17 c-11 -10 -29 -24 -39 -31 -17 -12 -17 -13 2 -7 11 3 16 3 13 -1 -4
-3 0 -13 8 -21 15 -16 11 -33 -9 -33 -7 0 -6 4 3 10 14 9 7 14 -13 11 -5 -1
-6 3 -3 8 3 5 -2 12 -12 16 -14 5 -12 11 18 35 19 16 39 30 44 30 5 0 0 -8
-12 -17z m-566 -5 c3 -4 -1 -5 -10 -4 -8 1 -18 5 -22 8 -3 4 1 5 10 4 8 -1 18
-5 22 -8z m424 -12 c8 -11 10 -17 3 -13 -6 4 -13 1 -16 -5 -2 -7 -4 0 -4 15 0
15 0 27 1 25 1 -2 8 -12 16 -22z m-53 -8 c-3 -8 -6 -5 -6 6 -1 11 2 17 5 13 3
-3 4 -12 1 -19z m115 -10 c-8 -8 -9 -4 -5 13 4 13 8 18 11 10 2 -7 -1 -18 -6
-23z m112 -8 c-6 -5 -24 21 -24 34 0 6 6 1 14 -10 8 -10 12 -21 10 -24z m-397
15 c0 -8 -4 -12 -9 -9 -4 3 -8 9 -8 15 0 5 4 9 8 9 5 0 9 -7 9 -15z m264 2
c-6 -8 -8 -17 -4 -20 3 -4 1 -7 -5 -7 -15 0 -15 13 0 28 16 16 23 15 9 -1z
m136 -51 c14 -14 14 -17 3 -14 -8 3 -23 20 -33 39 -12 21 -13 26 -3 14 8 -11
23 -28 33 -39z m558 38 c11 -1 27 2 35 7 12 5 16 2 17 -12 1 -11 -2 -17 -7
-14 -12 7 -90 -32 -90 -45 0 -6 5 -10 12 -10 6 0 8 -3 5 -7 -4 -3 -1 -13 6
-21 8 -11 9 -14 0 -9 -6 4 -15 1 -20 -6 -6 -11 -13 -6 -30 19 l-21 33 30 30
c18 18 27 34 23 42 -6 8 -4 10 6 4 7 -5 23 -10 34 -11z m-1140 -4 c3 -5 1 -10
-4 -10 -6 0 -11 5 -11 10 0 6 2 10 4 10 3 0 8 -4 11 -10z m290 -20 c-14 -15
-15 -20 -4 -21 10 0 11 -2 1 -6 -6 -2 -10 -8 -7 -13 3 -4 -3 -14 -12 -21 -15
-12 -16 -12 -8 1 6 8 10 22 10 31 0 16 22 49 33 49 3 0 -3 -9 -13 -20z m95 2
c0 -5 -7 -9 -15 -9 -8 0 -12 4 -9 9 3 4 9 8 15 8 5 0 9 -4 9 -8z m30 -2 c0 -5
-2 -10 -4 -10 -3 0 -8 5 -11 10 -3 6 -1 10 4 10 6 0 11 -4 11 -10z m67 4 c-3
-3 -12 -4 -19 -1 -8 3 -5 6 6 6 11 1 17 -2 13 -5z m-162 -13 c3 -5 2 -12 -3
-15 -5 -3 -9 1 -9 9 0 17 3 19 12 6z m118 -6 c-3 -9 -8 -14 -10 -11 -3 3 -2 9
2 15 9 16 15 13 8 -4z m-420 -20 c-7 -21 -12 -19 -10 4 0 11 5 18 9 15 4 -3 5
-11 1 -19z m227 10 c-6 -8 -8 -20 -4 -27 5 -10 4 -10 -6 -1 -11 10 -11 15 0
28 7 8 15 15 17 15 3 0 0 -7 -7 -15z m248 2 c-2 -5 10 -15 25 -23 15 -8 25
-19 22 -23 -2 -5 3 -15 12 -22 14 -12 15 -11 10 11 -4 14 -4 19 -1 12 3 -6 10
-9 16 -6 6 4 5 -2 -1 -15 -7 -11 -16 -21 -20 -21 -9 0 -19 19 -17 33 0 5 -12
15 -27 23 -15 8 -25 19 -22 24 3 5 -4 8 -15 7 -11 -1 -20 -7 -20 -14 0 -7 -5
-13 -10 -13 -7 0 -7 6 -1 19 10 18 54 25 49 8z m-107 -20 c-10 -9 -11 -8 -5 6
3 10 9 15 12 12 3 -3 0 -11 -7 -18z m-36 4 c-9 -8 -36 -10 -30 -2 2 4 11 8 20
8 8 0 13 -3 10 -6z m11 -35 c0 -14 -3 -23 -7 -20 -6 3 -6 22 0 42 3 10 7 -2 7
-22z m124 14 c0 -5 -4 -10 -10 -10 -5 0 -10 5 -10 10 0 6 5 10 10 10 6 0 10
-4 10 -10z m-280 -4 c0 -2 -8 -10 -17 -17 -16 -13 -17 -12 -4 4 13 16 21 21
21 13z m177 -18 c-3 -8 -6 -5 -6 6 -1 11 2 17 5 13 3 -3 4 -12 1 -19z m63 -8
c-6 -11 -16 -20 -23 -20 -7 0 -6 4 3 10 8 5 11 10 5 10 -5 0 -3 5 5 10 21 14
22 13 10 -10z m151 -3 c-10 -9 -11 -8 -5 6 3 10 9 15 12 12 3 -3 0 -11 -7 -18z
m-226 -19 c5 4 5 1 1 -6 -5 -7 -11 -11 -14 -8 -3 3 -10 2 -16 -4 -8 -6 -12 -3
-12 10 0 14 4 16 17 10 9 -5 20 -6 24 -2z m-160 -8 c-3 -5 -12 -10 -18 -10 -7
0 -6 4 3 10 19 12 23 12 15 0z m259 -2 c-3 -4 -9 -8 -15 -8 -5 0 -9 4 -9 8 0
5 7 9 15 9 8 0 12 -4 9 -9z m56 -9 c0 -6 -4 -7 -10 -4 -5 3 -10 11 -10 16 0 6
5 7 10 4 6 -3 10 -11 10 -16z m75 11 c3 -5 2 -10 -4 -10 -5 0 -13 5 -16 10 -3
6 -2 10 4 10 5 0 13 -4 16 -10z m42 -1 c-15 -9 -16 -13 -6 -25 8 -10 9 -18 2
-25 -7 -7 -14 -5 -23 6 -11 13 -10 19 5 35 10 11 23 20 29 20 6 0 3 -5 -7 -11z
m-71 -20 c5 1 9 -8 9 -19 0 -11 -4 -20 -9 -19 -5 0 -13 -5 -18 -13 -8 -10 -9
-10 -5 2 2 8 10 14 16 13 6 -2 11 6 11 17 0 11 -5 19 -11 18 -6 -2 -14 4 -16
12 -4 12 -3 12 5 2 5 -8 13 -13 18 -13z m-282 3 c2 -4 -4 -8 -14 -8 -10 0 -16
4 -14 8 3 4 9 8 14 8 5 0 11 -4 14 -8z m121 0 c-6 -4 -10 -17 -9 -29 1 -12 -8
-30 -20 -40 -20 -17 -20 -17 -6 1 18 22 22 47 10 61 -6 7 -1 11 13 12 12 1 17
-1 12 -5z m75 -12 c0 -5 -2 -10 -4 -10 -3 0 -8 5 -11 10 -3 6 -1 10 4 10 6 0
11 -4 11 -10z m-274 -12 c3 -4 -1 -5 -10 -4 -8 1 -18 5 -22 8 -3 4 1 5 10 4 8
-1 18 -5 22 -8z m334 2 c0 -5 -3 -9 -7 -9 -23 4 -43 -2 -38 -11 3 -5 4 -10 1
-10 -17 0 -13 22 6 29 31 13 38 13 38 1z m-221 -13 c8 -10 7 -14 -2 -14 -8 0
-14 6 -14 14 0 7 1 13 2 13 2 0 8 -6 14 -13z m-182 -4 c-4 -3 -1 -13 6 -22 11
-14 10 -14 -5 -2 -16 12 -16 31 -1 31 4 0 3 -3 0 -7z m228 -3 c-3 -5 -12 -10
-18 -10 -7 0 -6 4 3 10 19 12 23 12 15 0z m226 -13 c-10 -9 -11 -8 -5 6 3 10
9 15 12 12 3 -3 0 -11 -7 -18z m-621 -1 c0 -2 -8 -10 -17 -17 -16 -13 -17 -12
-4 4 13 16 21 21 21 13z m221 -13 c13 -16 12 -17 -3 -4 -17 13 -22 21 -14 21
2 0 10 -8 17 -17z m431 0 c-11 -18 -42 -27 -42 -11 0 6 7 8 15 4 9 -3 15 0 15
9 0 8 5 15 10 15 7 0 8 -6 2 -17z m62 -7 c-3 -9 -10 -16 -16 -16 -5 0 -7 4 -4
9 4 5 3 11 -1 14 -5 2 -2 2 5 1 6 -2 12 2 12 8 0 6 2 9 5 6 3 -3 3 -13 -1 -22z
m-149 5 c3 -5 0 -13 -6 -17 -7 -4 -9 -3 -5 4 3 5 0 13 -6 15 -9 4 -10 6 -1 6
6 1 14 -3 18 -8z m-95 -8 c0 -5 -5 -15 -10 -23 -7 -12 -9 -10 -7 8 1 19 17 33
17 15z m215 -34 c-3 -4 4 -10 15 -12 20 -5 20 -5 0 -3 -12 0 -21 6 -21 11 -1
6 -5 19 -11 30 -9 19 -9 19 6 1 9 -10 13 -22 11 -27z m-271 12 c-7 -8 -54 -9
-49 -1 2 3 15 6 29 6 14 0 23 -2 20 -5z m191 -1 c3 -5 1 -10 -4 -10 -6 0 -11
5 -11 10 0 6 2 10 4 10 3 0 8 -4 11 -10z m52 -12 c-3 -8 -6 -5 -6 6 -1 11 2
17 5 13 3 -3 4 -12 1 -19z m-32 -7 c-3 -6 -11 -11 -16 -11 -5 0 -4 6 3 14 14
16 24 13 13 -3z m132 -6 c-15 -14 -33 -25 -40 -25 -7 0 -3 6 8 12 11 7 26 18
33 25 7 7 16 13 20 13 4 0 -6 -12 -21 -25z m-552 6 c-9 -8 -36 -10 -30 -2 2 4
11 8 20 8 8 0 13 -3 10 -6z m305 -11 c-5 -10 -6 -21 -2 -26 4 -5 0 -3 -9 4 -9
6 -18 10 -21 7 -2 -3 -5 2 -5 10 0 12 3 12 16 2 12 -10 14 -9 9 4 -4 9 -1 16
7 16 10 0 11 -5 5 -17z m-136 -9 c14 -15 15 -21 4 -27 -7 -4 -10 -3 -5 1 4 5
0 17 -10 27 -9 10 -14 18 -11 18 3 0 13 -9 22 -19z m212 -10 c-4 -6 -13 -11
-19 -11 -8 0 -7 3 2 9 8 5 10 14 6 22 -6 11 -5 11 5 2 7 -6 9 -16 6 -22z m484
9 c0 -4 -7 -11 -16 -14 -13 -5 -14 -4 -6 7 7 8 8 18 4 22 -4 5 -1 5 6 1 6 -4
12 -11 12 -16z m-405 1 c-3 -2 3 -10 13 -18 16 -13 15 -13 -3 -4 -43 22 -51
30 -28 28 12 0 20 -3 18 -6z m-235 -5 c0 -2 -8 -10 -17 -17 -16 -13 -17 -12
-4 4 13 16 21 21 21 13z m-180 -16 c0 -5 -2 -10 -4 -10 -3 0 -8 5 -11 10 -3 6
-1 10 4 10 6 0 11 -4 11 -10z m395 1 c3 -5 0 -13 -6 -17 -8 -4 -9 -3 -5 4 11
19 -5 14 -21 -5 -13 -16 -13 -16 -3 5 11 23 25 28 35 13z m99 -7 c-19 -15 -19
-16 1 -9 15 5 17 3 8 -6 -17 -17 -37 -1 -22 17 6 8 16 14 22 14 6 0 2 -7 -9
-16z m-248 -16 c12 -14 13 -18 3 -10 -9 6 -18 10 -21 7 -2 -3 -5 2 -5 10 0 19
0 19 23 -7z m209 3 c-3 -6 -11 -11 -16 -11 -5 0 -4 6 3 14 14 16 24 13 13 -3z
m-755 5 c0 -2 -7 -7 -16 -10 -8 -3 -12 -2 -9 4 6 10 25 14 25 6z m717 -18 c2
-17 0 -19 -7 -8 -5 8 -6 18 -4 22 8 12 10 10 11 -14z m-337 -8 c0 -5 -2 -10
-4 -10 -3 0 -8 5 -11 10 -3 6 -1 10 4 10 6 0 11 -4 11 -10z m260 0 c0 -5 -4
-10 -10 -10 -5 0 -10 5 -10 10 0 6 5 10 10 10 6 0 10 -4 10 -10z m58 -15 c-3
-3 -9 2 -12 12 -6 14 -5 15 5 6 7 -7 10 -15 7 -18z m79 -6 c-2 -12 -9 -24 -16
-28 -7 -5 -12 -12 -11 -17 1 -5 -4 -10 -12 -12 -9 -2 -8 0 2 7 8 6 11 11 5 11
-5 0 -3 6 5 13 8 7 17 21 18 32 3 16 1 18 -9 8 -7 -7 -17 -13 -23 -13 -5 0 -1
6 9 14 24 17 36 12 32 -15z m37 7 c-3 -9 -10 -16 -15 -16 -6 0 -5 9 1 21 13
24 24 20 14 -5z m86 10 c0 -3 -4 -8 -10 -11 -5 -3 -10 -1 -10 4 0 6 5 11 10
11 6 0 10 -2 10 -4z m-706 -22 c3 -8 2 -12 -4 -9 -6 3 -10 10 -10 16 0 14 7
11 14 -7z m402 4 c4 -7 4 -10 -1 -6 -4 4 -15 2 -24 -5 -14 -11 -14 -10 -2 6
16 20 18 21 27 5z m264 1 c13 -9 12 -10 -2 -5 -10 3 -22 -2 -27 -12 -12 -19
-14 -12 -5 12 7 19 14 20 34 5z m-523 -14 c0 -8 -4 -12 -9 -9 -5 3 -6 10 -3
15 9 13 12 11 12 -6z m139 -11 c1 -9 0 -13 -4 -10 -3 4 -7 14 -8 22 -1 9 0 13
4 10 3 -4 7 -14 8 -22z m145 3 c-10 -9 -11 -8 -5 6 3 10 9 15 12 12 3 -3 0
-11 -7 -18z m-241 3 c0 -5 -5 -10 -11 -10 -5 0 -7 5 -4 10 3 6 8 10 11 10 2 0
4 -4 4 -10z m150 5 c0 -2 -6 -8 -13 -14 -10 -8 -14 -7 -14 2 0 8 6 14 14 14 7
0 13 -1 13 -2z m150 -2 c0 -5 -5 -15 -10 -23 -7 -12 -9 -10 -7 8 1 19 17 33
17 15z m162 -39 c-8 -15 -9 -15 -15 0 -4 10 -3 15 3 11 6 -3 10 2 11 12 0 10
3 13 5 6 3 -7 1 -20 -4 -29z m-602 22 c0 -3 -4 -8 -10 -11 -5 -3 -10 -1 -10 4
0 6 5 11 10 11 6 0 10 -2 10 -4z m320 -11 c-5 -7 -9 -14 -7 -16 1 -2 0 -3 -2
-1 -11 7 -7 29 5 29 9 0 11 -4 4 -12z m164 4 c-7 -13 -43 -17 -38 -5 2 6 13
12 24 12 10 0 17 -3 14 -7z m83 5 c-3 -3 -12 -4 -19 -1 -8 3 -5 6 6 6 11 1 17
-2 13 -5z m103 -14 c-11 -11 -22 -20 -25 -20 -3 0 0 9 7 20 7 11 18 20 25 20
8 0 5 -8 -7 -20z m-595 1 c3 -5 2 -12 -3 -15 -5 -3 -9 1 -9 9 0 17 3 19 12 6z
m105 -11 c0 -5 -2 -10 -4 -10 -3 0 -8 5 -11 10 -3 6 -1 10 4 10 6 0 11 -4 11
-10z m105 0 c3 -6 -1 -7 -9 -4 -18 7 -21 14 -7 14 6 0 13 -4 16 -10z m75 6 c0
-2 -7 -7 -16 -10 -8 -3 -12 -2 -9 4 6 10 25 14 25 6z m37 -2 c-3 -3 -12 -4
-19 -1 -8 3 -5 6 6 6 11 1 17 -2 13 -5z m181 -17 c2 -10 -1 -17 -7 -17 -6 0
-8 6 -5 13 3 8 -4 13 -16 14 -11 1 -18 -2 -16 -6 3 -4 0 -13 -5 -21 -7 -11 -8
-8 -5 10 3 14 5 26 5 27 3 11 47 -8 49 -20z m112 13 c0 -5 -5 -10 -11 -10 -5
0 -7 5 -4 10 3 6 8 10 11 10 2 0 4 -4 4 -10z m-852 -25 c-3 -3 -9 2 -12 12 -6
14 -5 15 5 6 7 -7 10 -15 7 -18z m575 10 c-3 -9 -8 -14 -10 -11 -3 3 -2 9 2
15 9 16 15 13 8 -4z m-42 -12 c13 -16 12 -17 -3 -4 -17 13 -22 21 -14 21 2 0
10 -8 17 -17z m129 2 c0 -8 -2 -15 -4 -15 -2 0 -6 7 -10 15 -3 8 -1 15 4 15 6
0 10 -7 10 -15z m136 3 c5 -7 3 -8 -6 -3 -10 6 -12 4 -7 -9 4 -10 3 -15 -3
-11 -13 8 -13 35 -1 35 6 0 13 -5 17 -12z m-452 -16 c3 -5 -1 -9 -9 -9 -8 0
-12 4 -9 9 3 4 7 8 9 8 2 0 6 -4 9 -8z m167 -9 c13 -16 12 -17 -3 -4 -17 13
-22 21 -14 21 2 0 10 -8 17 -17z m120 -6 c-10 -9 -11 -8 -5 6 3 10 9 15 12 12
3 -3 0 -11 -7 -18z m81 -23 c-6 -12 -9 -7 -9 16 0 23 3 28 9 16 5 -9 5 -23 0
-32z m43 36 c-3 -5 -1 -10 6 -10 7 0 10 -2 7 -5 -3 -3 -13 -2 -22 1 -14 5 -15
9 -4 15 17 11 20 11 13 -1z m-170 -18 c-3 -3 -11 0 -18 7 -9 10 -8 11 6 5 10
-3 15 -9 12 -12z m-114 -15 c-10 -9 -11 -8 -5 6 3 10 9 15 12 12 3 -3 0 -11
-7 -18z m215 11 c3 -4 -1 -5 -10 -4 -8 1 -18 5 -22 8 -3 4 1 5 10 4 8 -1 18
-5 22 -8z m-129 -11 c0 -8 -6 -14 -14 -14 -9 0 -10 4 -2 14 6 7 12 13 14 13 1
0 2 -6 2 -13z m-42 -7 c3 -5 1 -10 -4 -10 -6 0 -11 5 -11 10 0 6 2 10 4 10 3
0 8 -4 11 -10z m85 6 c0 -2 -7 -7 -16 -10 -8 -3 -12 -2 -9 4 6 10 25 14 25 6z
m15 -34 c-17 -15 -18 -15 -6 0 7 9 9 23 5 30 -6 10 -4 11 7 0 11 -10 10 -15
-6 -30z m132 31 c-9 -2 -14 -9 -11 -15 4 -7 2 -8 -5 -4 -15 10 -4 26 17 25 15
-1 15 -2 -1 -6z m-53 -19 c3 -8 2 -12 -4 -9 -6 3 -10 10 -10 16 0 14 7 11 14
-7z m-259 -4 c3 -5 1 -10 -4 -10 -6 0 -11 5 -11 10 0 6 2 10 4 10 3 0 8 -4 11
-10z m42 -7 c0 -9 -4 -10 -14 -2 -7 6 -13 12 -13 14 0 1 6 2 13 2 8 0 14 -6
14 -14z m199 -19 c1 -9 0 -13 -4 -10 -3 4 -7 14 -8 22 -1 9 0 13 4 10 3 -4 7
-14 8 -22z m-156 12 c0 -2 -7 -7 -16 -10 -8 -3 -12 -2 -9 4 6 10 25 14 25 6z
m-76 -24 c3 -5 -1 -9 -9 -9 -8 0 -15 4 -15 9 0 4 4 8 9 8 6 0 12 -4 15 -8z
m191 -2 c3 -5 1 -10 -4 -10 -6 0 -11 5 -11 10 0 6 2 10 4 10 3 0 8 -4 11 -10z
m-258 -25 c0 -8 -4 -12 -9 -9 -5 3 -6 10 -3 15 9 13 12 11 12 -6z m238 -4 c3
-5 2 -12 -3 -15 -5 -3 -9 1 -9 9 0 17 3 19 12 6z m-59 -16 c-1 -8 -5 -17 -8
-21 -5 -4 -4 16 1 34 3 9 9 -1 7 -13z m-39 -10 c0 -8 -4 -12 -9 -9 -5 3 -6 10
-3 15 9 13 12 11 12 -6z m-192 -25 c3 -6 -1 -7 -9 -4 -18 7 -21 14 -7 14 6 0
13 -4 16 -10z"/>
<path d="M3828 1750 c-20 -15 -28 -17 -39 -7 -7 7 -6 3 4 -9 15 -18 44 -23 76
-15 2 1 -2 8 -9 16 -6 8 -9 19 -5 25 9 15 1 12 -27 -10z m20 -13 c9 -10 6 -13
-13 -13 -19 0 -22 3 -13 13 6 7 12 13 13 13 1 0 7 -6 13 -13z"/>
<path d="M3867 1694 c-4 -4 10 -28 31 -53 40 -49 46 -76 22 -107 -9 -12 -4
-10 13 5 20 19 24 27 16 38 -6 7 -8 13 -3 13 4 0 -3 11 -15 24 -12 13 -24 32
-25 42 -2 11 -9 19 -17 19 -8 1 -13 6 -11 13 2 13 -1 15 -11 6z"/>
<path d="M3986 1512 c-2 -4 2 -16 10 -27 8 -10 14 -14 14 -8 0 7 -5 15 -10 18
-6 4 -8 11 -5 16 4 5 4 9 1 9 -3 0 -7 -3 -10 -8z"/>
<path d="M3996 1421 c-4 -5 -2 -12 3 -15 5 -4 12 -2 15 3 4 5 2 12 -3 15 -5 4
-12 2 -15 -3z"/>
<path d="M4053 1405 c0 -8 4 -12 9 -9 5 3 6 10 3 15 -9 13 -12 11 -12 -6z"/>
<path d="M4099 1385 c-1 -3 -2 -8 -3 -12 -1 -5 -5 -13 -9 -20 -6 -10 -2 -11
32 -4 2 1 -2 7 -8 14 -6 8 -8 17 -4 20 3 4 3 7 0 7 -4 0 -8 -2 -8 -5z"/>
<path d="M3914 1728 c-13 -15 -14 -18 -3 -10 14 10 18 10 22 -3 4 -9 13 -12
23 -8 13 5 15 3 9 -8 -5 -8 -4 -11 0 -6 5 4 10 14 11 22 2 12 -2 13 -18 4 -18
-9 -19 -8 -13 10 8 27 -7 27 -31 -1z"/>
<path d="M4045 1720 c-3 -5 -1 -10 4 -10 6 0 11 5 11 10 0 6 -2 10 -4 10 -3 0
-8 -4 -11 -10z"/>
<path d="M4030 1600 c0 -5 5 -10 10 -10 6 0 10 5 10 10 0 6 -4 10 -10 10 -5 0
-10 -4 -10 -10z"/>
<path d="M4135 1570 c-4 -6 -9 -9 -13 -6 -4 2 -19 -8 -34 -23 l-27 -26 20 -24
c16 -20 19 -21 16 -5 -1 11 -6 24 -10 31 -5 8 3 18 22 28 27 13 50 35 37 35
-3 0 -8 -5 -11 -10z"/>
<path d="M3620 1411 c0 -5 5 -13 10 -16 6 -3 10 -2 10 4 0 5 -4 13 -10 16 -5
3 -10 2 -10 -4z"/>
<path d="M5146 4073 c-97 -29 -176 -97 -222 -191 -24 -49 -28 -70 -28 -147 -1
-78 3 -98 27 -149 60 -129 184 -208 325 -207 95 0 166 28 234 89 169 153 152
429 -34 555 -85 58 -207 78 -302 50z"/>
<path d="M4520 2020 c-12 -7 -10 -9 7 -7 12 0 19 5 17 9 -6 10 -6 10 -24 -2z"/>
<path d="M4350 1963 c0 -6 8 -17 18 -24 16 -13 16 -13 2 6 -8 11 -16 22 -17
24 -2 2 -3 0 -3 -6z"/>
<path d="M4293 1935 c-3 -9 -3 -18 -1 -21 3 -3 8 4 11 16 6 23 -1 27 -10 5z"/>
<path d="M4530 1939 c0 -5 5 -7 10 -4 6 3 10 8 10 11 0 2 -4 4 -10 4 -5 0 -10
-5 -10 -11z"/>
<path d="M4410 1936 c0 -2 8 -10 18 -17 15 -13 16 -12 3 4 -13 16 -21 21 -21
13z"/>
<path d="M4266 1917 c3 -10 9 -15 12 -12 3 3 0 11 -7 18 -10 9 -11 8 -5 -6z"/>
<path d="M4456 1918 c3 -5 10 -6 15 -3 13 9 11 12 -6 12 -8 0 -12 -4 -9 -9z"/>
<path d="M4313 1903 c4 -3 1 -13 -6 -22 -11 -14 -10 -14 6 -2 20 15 22 31 5
31 -6 0 -8 -3 -5 -7z"/>
<path d="M4214 1883 c3 -18 -1 -23 -16 -23 -18 0 -19 2 -7 18 13 15 12 16 -3
3 -21 -16 -15 -31 12 -31 24 0 30 10 19 35 -9 18 -9 18 -5 -2z"/>
<path d="M4465 1880 c10 -11 20 -20 23 -20 3 0 -3 9 -13 20 -10 11 -20 20 -23
20 -3 0 3 -9 13 -20z"/>
<path d="M4271 1873 c7 -12 15 -20 18 -17 3 2 -3 12 -13 22 -17 16 -18 16 -5
-5z"/>
<path d="M4364 1882 c4 -3 14 -7 22 -8 9 -1 13 0 10 4 -4 3 -14 7 -22 8 -9 1
-13 0 -10 -4z"/>
<path d="M4136 1872 c-3 -5 3 -15 13 -24 10 -9 21 -22 23 -29 3 -8 8 -11 12
-8 3 3 -5 18 -18 32 -13 14 -21 28 -18 31 3 3 3 6 -1 6 -3 0 -8 -4 -11 -8z"/>
<path d="M4231 1850 c-13 -11 -19 -20 -13 -20 6 0 17 7 25 15 8 8 18 11 22 7
5 -4 5 -1 1 6 -9 15 -6 15 -35 -8z"/>
<path d="M4353 1849 c-2 -23 3 -25 10 -4 4 8 3 16 -1 19 -4 3 -9 -4 -9 -15z"/>
<path d="M4300 1851 c0 -6 4 -13 10 -16 6 -3 7 1 4 9 -7 18 -14 21 -14 7z"/>
<path d="M4332 1840 c0 -14 2 -19 5 -12 2 6 2 18 0 25 -3 6 -5 1 -5 -13z"/>
<path d="M4255 1830 c-3 -6 1 -13 9 -16 9 -3 13 -11 10 -16 -4 -6 3 -5 15 2
18 9 21 30 5 30 -3 0 -2 -4 1 -10 7 -12 3 -12 -19 -4 -9 3 -13 10 -10 15 3 5
3 9 0 9 -3 0 -8 -5 -11 -10z"/>
<path d="M4402 1818 c-7 -7 -12 -16 -12 -22 0 -5 3 -6 7 -3 3 4 13 1 22 -6 14
-10 14 -10 3 5 -8 9 -11 22 -7 28 8 14 2 13 -13 -2z"/>
<path d="M4433 1813 c0 -9 4 -10 14 -2 7 6 13 12 13 14 0 1 -6 2 -13 2 -8 0
-14 -6 -14 -14z"/>
<path d="M4473 1815 c0 -8 4 -12 9 -9 5 3 6 10 3 15 -9 13 -12 11 -12 -6z"/>
<path d="M4150 1811 c0 -10 19 -25 25 -20 1 2 -3 10 -11 17 -8 7 -14 8 -14 3z"/>
<path d="M4189 1785 c-15 -32 -15 -34 7 -44 25 -11 37 -2 29 21 -4 9 2 14 16
15 18 2 19 0 7 -15 -12 -15 -11 -16 4 -3 22 17 14 32 -15 27 -15 -2 -21 -10
-20 -24 2 -15 -2 -20 -12 -16 -18 7 -18 9 -4 35 6 11 9 24 7 28 -2 5 -10 -6
-19 -24z"/>
<path d="M4230 1810 c0 -5 5 -10 11 -10 5 0 7 5 4 10 -3 6 -8 10 -11 10 -2 0
-4 -4 -4 -10z"/>
<path d="M3585 1800 c3 -5 11 -10 16 -10 6 0 7 5 4 10 -3 6 -11 10 -16 10 -6
0 -7 -4 -4 -10z"/>
<path d="M3810 1795 c-8 -9 -8 -15 0 -20 6 -4 9 -1 8 7 -2 8 4 12 15 10 21 -3
23 4 3 11 -8 3 -20 0 -26 -8z"/>
<path d="M4320 1800 c-9 -6 -10 -10 -3 -10 6 0 15 5 18 10 8 12 4 12 -15 0z"/>
<path d="M3725 1791 c-5 -5 -28 -9 -71 -14 -11 -1 -31 -9 -45 -19 -23 -16 -24
-17 -5 -35 18 -17 18 -17 11 7 -5 19 -4 21 4 10 10 -13 11 -13 12 0 1 8 1 18
0 23 0 4 4 7 10 7 6 0 8 -8 5 -18 -4 -13 0 -18 15 -19 16 -2 18 1 9 12 -9 11
-7 16 9 25 18 9 20 8 14 -7 -6 -16 -4 -16 18 2 13 11 19 13 12 6 -10 -11 -9
-17 4 -26 15 -11 14 -12 -9 -10 -21 2 -25 -1 -25 -20 0 -16 5 -22 16 -20 9 2
18 4 21 4 3 1 -1 5 -9 10 -9 6 -10 11 -2 15 6 4 11 3 11 -1 0 -5 9 -9 20 -10
11 -1 20 3 20 9 0 6 -3 8 -7 5 -3 -4 -13 2 -21 14 -12 18 -12 22 2 38 14 15
14 18 1 18 -8 0 -17 -3 -20 -6z"/>
<path d="M4335 1780 c-3 -5 9 -16 27 -25 23 -11 28 -12 16 -2 -10 8 -15 17
-11 21 4 4 -1 4 -11 0 -14 -5 -17 -4 -12 4 4 7 5 12 2 12 -3 0 -7 -4 -11 -10z"/>
<path d="M3545 1771 c-7 -13 12 -24 28 -15 6 3 -1 -6 -18 -21 -16 -14 -23 -24
-14 -22 25 8 43 -9 44 -40 0 -28 24 -40 33 -15 2 8 -2 10 -15 6 -16 -6 -16 -5
2 9 l20 16 -20 1 c-12 1 -15 4 -7 7 10 4 9 9 -4 24 -9 11 -14 22 -11 26 8 7
-11 33 -24 33 -4 0 -10 -4 -14 -9z"/>
<path d="M4446 1763 c-6 -14 -5 -15 5 -6 7 7 10 15 7 18 -3 3 -9 -2 -12 -12z"/>
<path d="M4280 1755 c0 -8 -5 -14 -12 -12 -19 4 -21 -31 -2 -55 10 -15 14 -17
11 -6 -4 11 2 23 16 33 12 8 17 15 13 15 -5 0 -18 -7 -28 -17 -17 -15 -18 -15
-18 6 0 12 4 20 9 16 6 -3 15 4 21 15 7 13 7 20 0 20 -5 0 -10 -7 -10 -15z"/>
<path d="M4416 1753 c-6 -14 -5 -15 5 -6 7 7 10 15 7 18 -3 3 -9 -2 -12 -12z"/>
<path d="M4310 1750 c0 -5 5 -10 11 -10 5 0 7 5 4 10 -3 6 -8 10 -11 10 -2 0
-4 -4 -4 -10z"/>
<path d="M4148 1730 c2 -8 5 -24 6 -34 1 -21 26 -36 26 -16 0 6 -4 8 -10 5
-17 -11 -11 7 8 21 14 12 15 15 2 23 -8 5 -17 8 -21 5 -4 -2 -9 -1 -12 3 -2 5
-2 1 1 -7z m27 -10 c3 -5 1 -10 -4 -10 -6 0 -11 5 -11 10 0 6 2 10 4 10 3 0 8
-4 11 -10z"/>
<path d="M3629 1723 c-9 -49 1 -73 15 -38 3 8 1 15 -4 15 -5 0 -7 7 -4 15 4 8
3 15 0 15 -3 0 -7 -3 -7 -7z"/>
<path d="M3654 1682 c0 -30 2 -49 4 -43 2 6 9 8 15 4 7 -4 20 -9 31 -10 14 -3
16 0 8 10 -9 10 -6 17 8 30 11 9 20 12 20 6 0 -8 5 -7 16 1 12 11 15 11 12 -1
-2 -8 3 -13 10 -11 11 2 16 -10 13 -30 0 -5 5 -8 13 -8 8 0 18 -5 22 -12 5 -8
2 -9 -9 -5 -9 3 -19 1 -23 -4 -7 -13 15 -59 28 -59 5 0 6 4 3 10 -4 6 1 7 11
3 11 -4 13 -8 6 -11 -7 -2 -10 -8 -6 -13 3 -5 0 -9 -7 -9 -10 0 -10 -3 -2 -11
16 -16 30 -4 28 23 -1 13 3 30 9 38 10 13 9 13 -7 1 -16 -13 -20 -13 -27 -1
-6 9 -4 20 6 31 12 14 12 18 1 27 -8 7 -18 8 -23 4 -5 -4 0 4 11 17 l20 24
-21 -11 c-18 -9 -25 -8 -39 8 -10 11 -22 17 -26 14 -5 -3 -9 0 -9 7 0 8 -6 6
-18 -4 -10 -10 -22 -14 -27 -10 -4 5 -5 3 -2 -3 4 -7 0 -15 -9 -18 -8 -3 -12
-11 -8 -17 4 -8 3 -9 -5 -5 -9 6 -9 11 0 22 9 11 9 17 0 28 -7 8 -8 16 -4 18
4 3 3 3 -4 2 -6 -2 -14 2 -16 9 -2 7 -4 -12 -3 -41z m160 -88 c3 -8 2 -12 -4
-9 -6 3 -10 10 -10 16 0 14 7 11 14 -7z"/>
<path d="M4348 1712 c9 -10 19 -17 21 -16 6 5 -20 34 -30 34 -5 0 -1 -8 9 -18z"/>
<path d="M4385 1720 c-3 -6 1 -7 9 -4 18 7 21 14 7 14 -6 0 -13 -4 -16 -10z"/>
<path d="M4211 1698 c13 -30 24 -35 35 -15 4 6 4 9 -1 5 -4 -4 -16 3 -26 15
l-19 22 11 -27z"/>
<path d="M4299 1708 c-7 -25 -7 -48 1 -53 7 -4 9 3 6 19 -3 19 0 26 17 29 22
4 22 4 0 6 -13 0 -23 0 -24 -1z"/>
<path d="M4190 1685 c0 -8 4 -15 10 -15 5 0 7 7 4 15 -4 8 -8 15 -10 15 -2 0
-4 -7 -4 -15z"/>
<path d="M4377 1681 c-3 -12 0 -24 5 -28 6 -3 8 -1 4 5 -3 5 -2 12 4 14 5 2 6
9 1 16 -6 10 -10 9 -14 -7z"/>
<path d="M4337 1673 c5 -12 3 -14 -7 -8 -9 5 -11 4 -6 -4 4 -6 12 -9 17 -6 12
8 12 35 -1 35 -5 0 -6 -7 -3 -17z"/>
<path d="M3730 1659 c0 -6 -6 -7 -12 -3 -10 6 -10 5 -1 -7 9 -11 6 -20 -13
-44 -13 -16 -32 -30 -41 -30 -27 0 -22 -30 5 -31 15 -1 22 4 22 16 0 10 7 21
16 24 8 3 13 10 9 15 -3 5 0 13 6 17 7 4 9 3 5 -4 -3 -6 -2 -13 3 -16 5 -3 11
1 14 8 3 8 2 16 -4 18 -5 2 -1 8 10 15 15 10 20 9 25 -2 3 -10 0 -12 -12 -8
-15 6 -15 4 -4 -10 14 -17 7 -42 -9 -32 -5 4 -9 2 -9 -4 0 -6 17 -20 38 -31
20 -12 29 -19 20 -16 -12 3 -15 1 -11 -9 3 -8 10 -12 16 -8 6 3 7 1 3 -6 -4
-6 -12 -9 -17 -6 -14 10 -11 -9 7 -31 11 -14 14 -15 11 -3 -7 21 8 46 17 30 4
-6 2 -11 -5 -11 -16 0 -3 -13 16 -16 7 -1 16 4 19 12 5 12 10 13 27 3 17 -9
20 -8 14 2 -5 8 -4 10 4 5 6 -4 9 -12 5 -17 -3 -5 -10 -7 -15 -4 -5 3 -6 -1
-3 -10 6 -13 9 -14 23 -2 9 7 22 12 29 11 6 -1 16 -2 20 -3 4 0 8 -11 9 -23 2
-23 2 -23 -11 1 -9 15 -16 20 -20 12 -4 -6 -12 -9 -17 -6 -5 3 -6 -2 -3 -12 5
-15 4 -16 -6 -3 -9 12 -10 11 -5 -7 3 -12 1 -24 -6 -28 -8 -6 -7 -10 2 -16 22
-14 33 -10 19 6 -9 10 -9 15 -1 15 6 0 10 3 10 8 -5 29 2 34 20 18 22 -20 32
-10 26 24 -7 35 -25 52 -41 39 -10 -8 -18 -8 -27 -1 -7 6 -26 9 -42 7 -29 -3
-59 11 -51 24 3 4 -5 18 -16 31 -11 14 -16 19 -12 11 5 -10 3 -12 -5 -7 -7 5
-9 15 -6 25 14 33 13 60 -3 67 -28 12 -42 13 -42 3z m224 -167 c3 -5 -1 -9 -9
-9 -8 0 -12 4 -9 9 3 4 7 8 9 8 2 0 6 -4 9 -8z"/>
<path d="M4250 1660 c0 -5 5 -10 11 -10 5 0 7 -5 3 -12 -4 -7 -3 -8 4 -4 7 4
12 3 12 -3 0 -5 -5 -12 -10 -14 -6 -3 -5 -4 2 -3 21 4 20 30 -2 44 -12 7 -20
8 -20 2z"/>
<path d="M4210 1649 c0 -5 5 -7 10 -4 6 3 10 8 10 11 0 2 -4 4 -10 4 -5 0 -10
-5 -10 -11z"/>
<path d="M4350 1635 c0 -8 4 -15 8 -15 5 0 9 7 9 15 0 8 -4 15 -9 15 -4 0 -8
-7 -8 -15z"/>
<path d="M4230 1630 c0 -5 5 -10 10 -10 6 0 10 5 10 10 0 6 -4 10 -10 10 -5 0
-10 -4 -10 -10z"/>
<path d="M4310 1630 c0 -5 5 -10 10 -10 6 0 10 5 10 10 0 6 -4 10 -10 10 -5 0
-10 -4 -10 -10z"/>
<path d="M3610 1600 c0 -5 5 -10 10 -10 6 0 10 5 10 10 0 6 -4 10 -10 10 -5 0
-10 -4 -10 -10z"/>
<path d="M4325 1601 c-3 -5 0 -13 6 -17 7 -4 9 -3 5 4 -3 5 0 13 6 15 9 4 10
6 1 6 -6 1 -14 -3 -18 -8z"/>
<path d="M3899 1598 c-5 -18 -6 -38 -1 -34 7 8 12 36 6 36 -2 0 -4 -1 -5 -2z"/>
<path d="M3712 1578 c-17 -17 -15 -24 15 -43 22 -15 25 -15 20 -2 -4 12 -1 15
11 11 16 -5 16 -5 0 6 -10 6 -21 17 -26 25 -6 12 -11 12 -20 3z m18 -18 c0 -5
-5 -10 -11 -10 -5 0 -7 5 -4 10 3 6 8 10 11 10 2 0 4 -4 4 -10z"/>
<path d="M4310 1570 c0 -5 5 -10 11 -10 5 0 7 5 4 10 -3 6 -8 10 -11 10 -2 0
-4 -4 -4 -10z"/>
<path d="M3705 1521 c-7 -12 12 -24 24 -17 5 3 12 -1 15 -10 3 -9 11 -12 18
-8 9 5 8 2 -1 -10 -12 -15 -12 -19 3 -34 17 -16 18 -16 11 8 -7 24 -7 24 8 5
18 -23 2 -41 -20 -23 -8 7 -13 7 -13 0 0 -17 25 -31 40 -22 8 5 18 6 23 3 5
-3 6 5 3 18 -3 13 -3 18 0 12 4 -9 11 -10 25 -3 10 6 19 7 19 3 0 -4 4 -2 9 6
5 8 7 21 4 29 -5 12 -7 12 -15 -2 -5 -9 -13 -14 -19 -11 -5 4 -9 2 -9 -2 0 -5
-9 -9 -20 -10 -11 -1 -20 2 -20 8 0 5 -9 18 -20 29 -16 16 -17 20 -5 20 8 0
15 5 15 10 0 13 -13 13 -27 -1 -8 -8 -13 -8 -17 0 -9 13 -23 14 -31 2z"/>
<path d="M3710 1483 c0 -5 5 -14 12 -21 9 -9 5 -19 -17 -42 -16 -16 -24 -30
-18 -30 6 0 16 7 23 15 19 22 35 3 21 -24 -7 -12 -9 -21 -6 -21 3 0 0 -10 -6
-22 -12 -23 -12 -23 9 -4 12 10 21 21 20 25 -4 37 14 40 32 6 7 -14 15 -23 18
-20 3 2 13 0 24 -6 17 -9 18 -8 6 10 -6 11 -16 19 -21 18 -5 -1 -12 5 -14 13
-4 13 -3 13 7 0 10 -13 11 -12 6 5 -5 18 -5 18 7 3 8 -10 18 -13 26 -8 7 4 9
10 5 12 -5 3 -4 4 2 2 7 -1 11 8 10 20 0 14 -6 22 -13 19 -7 -3 -10 -9 -7 -14
3 -5 0 -9 -5 -9 -19 0 -26 -2 -41 -10 -16 -9 -67 24 -52 34 15 9 6 51 -11 54
-9 2 -17 0 -17 -5z"/>
<path d="M3875 1440 c-4 -7 -9 -22 -10 -34 -4 -35 -4 -36 -20 -36 -19 0 -19
-9 0 -34 8 -10 12 -22 10 -26 -2 -4 9 -7 25 -7 24 0 27 3 19 14 -6 7 -15 10
-20 7 -5 -3 -9 -2 -10 3 0 4 -2 16 -4 25 -2 10 4 22 13 28 10 5 13 10 8 10 -5
0 -4 6 2 13 5 6 6 21 2 31 -5 15 -8 17 -15 6z"/>
<path d="M4015 1379 c-4 -6 -13 -8 -21 -5 -8 3 -17 -1 -21 -10 -5 -13 -7 -13
-14 -2 -7 10 -9 10 -9 0 0 -10 -5 -9 -22 2 -23 14 -61 8 -57 -9 1 -6 15 -20
31 -31 22 -17 25 -23 13 -27 -8 -4 -22 -4 -30 -1 -9 4 -15 0 -15 -10 0 -9 5
-16 11 -16 5 0 7 5 3 12 -4 7 -3 8 5 4 15 -10 3 -29 -15 -22 -8 3 -14 1 -14
-4 0 -14 18 -21 25 -9 4 5 13 8 21 5 7 -3 16 -1 19 4 4 6 1 10 -4 10 -6 0 -11
5 -11 10 0 6 5 9 12 8 7 -2 13 7 14 19 1 14 -3 20 -12 16 -8 -3 -14 -1 -14 5
0 5 14 8 30 7 17 -1 30 2 30 7 0 6 8 4 17 -3 14 -12 16 -12 8 0 -6 10 -4 12 5
6 9 -6 11 -4 5 6 -7 11 -6 12 7 2 8 -7 19 -9 24 -5 4 4 2 -2 -6 -13 -22 -30
-24 -32 -17 -12 4 11 3 16 -4 12 -6 -4 -8 -13 -5 -20 3 -9 -2 -12 -15 -10 -10
2 -19 -2 -19 -8 0 -8 -3 -8 -9 1 -7 11 -9 10 -14 -3 -4 -9 -3 -13 3 -10 20 13
9 -7 -17 -29 -20 -17 -22 -23 -10 -23 10 0 17 4 17 9 0 5 5 6 10 3 6 -4 10 -3
9 2 -3 14 13 43 21 38 4 -2 22 7 40 20 19 14 30 25 26 25 -5 0 -2 8 5 18 7 9
9 14 5 10 -11 -10 -38 11 -30 23 3 5 3 9 0 9 -3 0 -8 -5 -11 -11z m-85 -29 c0
-7 -13 -7 -38 -1 -2 1 -1 5 3 11 6 10 35 2 35 -10z"/>
<path d="M3806 1303 c-18 -24 -18 -26 -1 -41 17 -16 17 -16 12 1 -8 20 2 49
13 42 5 -3 11 -1 14 4 14 22 -21 16 -38 -6z"/>
<path d="M3945 1320 c-2 -3 7 -6 21 -6 13 0 24 3 24 7 0 9 -40 8 -45 -1z"/>
<path d="M3830 1290 c-13 -9 -13 -11 0 -20 9 -6 18 -6 24 0 15 15 -6 31 -24
20z"/>
<path d="M3894 1185 c-17 -26 -12 -67 7 -48 10 10 22 73 14 73 -3 0 -12 -11
-21 -25z"/>
</g>
</svg>
